<?xml version="1.0" standalone="no"?>
<svg viewBox="0 0 800 600" version="1.1" xmlns="http://www.w3.org/2000/svg" xmlns:xlink="http://www.w3.org/1999/xlink" stroke-linecap="round" stroke-linejoin="round" fill-rule="evenodd" xml:space="preserve" >
<defs >
<clipPath id="clipId0" >
<path d="M0,600 800,600 800,0 0,0 z" />
</clipPath>
</defs>
<g stroke-width="0.7" clip-path="url(#clipId0)" fill="none" stroke="rgb(0,0,0)" />
<g stroke-width="2.1" clip-path="url(#clipId0)" fill="none" stroke="rgb(0,0,0)" >
<polyline points="203.036,224.223 203.036,294.678 " />
<polyline points="203.036,298.299 203.036,306.611 " />
<polyline points="203.036,310.232 203.036,322.549 " />
<polyline points="203.036,326.17 203.036,345.485 " />
<polyline points="203.036,351.79 203.036,366.212 " />
<polyline points="203.036,369.833 203.036,451.115 " />
<polyline points="206.657,227.844 206.657,294.678 " />
<polyline points="206.657,298.299 206.657,306.611 " />
<polyline points="206.657,310.232 206.657,322.549 " />
<polyline points="206.657,326.17 206.657,346.242 " />
<polyline points="206.657,349.863 206.657,366.212 " />
<polyline points="206.657,369.833 206.657,389.829 " />
<polyline points="206.657,393.45 206.657,451.115 " />
<polyline points="243.497,227.844 243.497,294.678 " />
<polyline points="243.497,298.299 243.497,306.611 " />
<polyline points="243.497,310.232 243.497,322.549 " />
<polyline points="243.497,326.17 243.497,358.315 " />
<polyline points="243.497,361.936 243.497,369.935 " />
<polyline points="243.497,373.556 243.497,389.829 " />
<polyline points="243.497,393.45 243.497,451.115 " />
<polyline points="247.118,227.844 247.118,242.995 " />
<polyline points="247.118,246.616 247.118,294.678 " />
<polyline points="247.118,298.299 247.118,306.611 " />
<polyline points="247.118,310.232 247.118,322.549 " />
<polyline points="247.118,326.17 247.118,358.315 " />
<polyline points="247.118,361.936 247.118,389.829 " />
<polyline points="247.118,393.45 247.118,412.764 " />
<polyline points="247.118,419.07 247.118,451.115 " />
<polyline points="284.386,170.543 284.386,194.039 " />
<polyline points="284.386,197.66 284.386,224.223 " />
<polyline points="284.386,227.844 284.386,242.995 " />
<polyline points="284.386,246.616 284.386,285.042 " />
<polyline points="284.386,288.663 284.386,294.678 " />
<polyline points="284.386,298.299 284.386,358.315 " />
<polyline points="284.386,361.936 284.386,389.829 " />
<polyline points="284.386,393.45 284.386,451.115 " />
<polyline points="288.007,166.922 288.007,194.039 " />
<polyline points="288.007,197.66 288.007,294.678 " />
<polyline points="288.007,298.299 288.007,389.829 " />
<polyline points="288.007,393.45 288.007,412.764 " />
<polyline points="288.007,419.07 288.007,451.115 " />
</g>
<g stroke-width="1.75" clip-path="url(#clipId0)" fill="rgb(0,0,0)" stroke="none" >
<text transform="matrix(3.69534e-016 -6.03495 6.03495 3.69534e-016 256.632 457.01)" font-family="SimSun,'sans-serif'" font-size="1.42915" >&#19977;&#37319;&#21306;&#20154;&#34892;</text>
<text transform="matrix(3.69534e-016 -6.03495 6.03495 3.69534e-016 267.497 457.277)" font-family="SimSun,'sans-serif'" font-size="1.42915" >&#19979;&#23665;</text>
<text transform="matrix(6.03495 0 -0 6.03495 298.904 444.343)" font-family="SimSun,'sans-serif'" font-size="1.42915" >&#19977;&#37319;&#21306;&#36712;&#36947;&#19979;&#23665;</text>
</g>
<g stroke-width="2.1" clip-path="url(#clipId0)" fill="none" stroke="rgb(0,0,0)" >
<polyline points="298.174,445.822 287.267,428.755 " />
<polyline points="206.657,393.45 260.666,393.45 " />
<polyline points="265.089,393.45 301.555,393.45 " />
<polyline points="206.657,389.829 220.907,389.829 " />
<polyline points="224.528,389.829 293.526,389.829 " />
<polyline points="297.147,389.829 302.357,389.829 " />
<polyline points="220.907,389.829 220.907,369.833 21.859,369.833 " />
<polyline points="224.528,389.829 224.528,366.212 25.4799,366.212 " />
<polyline points="247.118,412.764 260.666,393.45 " />
<polyline points="247.118,419.07 265.089,393.45 " />
<polyline points="288.007,412.764 301.555,393.45 " />
<polyline points="288.007,419.07 305.978,393.45 " />
<polyline points="305.978,393.45 305.978,369.833 390.649,369.833 " />
<polyline points="302.357,389.829 302.357,366.212 390.649,366.212 " />
<polyline points="299.947,406.038 298.286,408.412 " />
<polyline points="299.117,407.225 294.37,403.903 " />
<polyline points="304.397,399.484 302.736,401.857 " />
<polyline points="303.566,400.671 298.82,397.348 " />
<polyline points="262.348,401.138 260.687,403.511 " />
<polyline points="261.517,402.325 256.771,399.003 " />
<polyline points="259.469,405.243 257.808,407.616 " />
<polyline points="258.638,406.429 253.892,403.107 " />
<polyline points="293.526,389.829 293.526,298.299 " />
<polyline points="293.526,294.678 293.526,222.136 " />
<polyline points="297.147,389.829 297.147,323.919 " />
<polyline points="297.147,317.613 297.147,298.299 " />
<polyline points="297.147,294.678 297.147,223.28 " />
<polyline points="252.102,306.611 154.353,306.611 " />
<polyline points="150.732,306.611 113.902,306.611 " />
<polyline points="110.281,306.611 70.8376,306.611 " />
<polyline points="67.2167,306.611 25.4799,306.611 " />
<polyline points="255.723,310.232 25.4799,310.232 " />
<polyline points="396.703,294.678 321.563,294.678 " />
<polyline points="321.563,294.678 255.723,294.678 " />
<polyline points="252.102,294.678 180.83,294.678 " />
<polyline points="177.21,294.678 21.859,294.678 " />
<polyline points="396.703,298.299 321.489,298.299 " />
<polyline points="321.489,298.299 315.118,298.299 " />
<polyline points="310.695,298.299 265.859,298.299 " />
<polyline points="262.238,298.299 255.723,298.299 " />
<polyline points="252.102,298.299 154.353,298.299 " />
<polyline points="150.732,298.299 113.902,298.299 " />
<polyline points="110.281,298.299 70.8376,298.299 " />
<polyline points="67.2167,298.299 25.4799,298.299 " />
<polyline points="243.497,369.935 237.777,369.935 237.777,361.936 " />
<polyline points="237.777,358.315 237.777,326.17 " />
<polyline points="345.867,322.549 298.107,322.549 " />
<polyline points="293.526,322.549 288.007,322.549 " />
<polyline points="284.386,322.549 265.859,322.549 " />
<polyline points="262.238,322.549 58.82,322.549 " />
<polyline points="243.497,373.556 234.156,373.556 234.156,349.863 " />
<polyline points="234.156,346.242 234.156,326.17 189.488,326.17 " />
<polyline points="185.065,326.17 55.199,326.17 " />
<polyline points="234.156,349.863 206.657,349.863 " />
<polyline points="234.156,346.242 206.657,346.242 " />
<polyline points="207.417,344.062 210.314,344.078 " />
<polyline points="208.865,344.07 208.833,349.863 " />
<polyline points="210.939,344.062 213.836,344.078 " />
<polyline points="212.388,344.07 212.355,349.863 " />
<polyline points="262.238,298.299 262.238,358.315 " />
<polyline points="265.859,298.299 265.859,358.315 " />
<polyline points="252.102,306.611 252.102,166.922 " />
<polyline points="255.723,310.232 255.723,170.543 " />
<polyline points="297.147,317.613 310.695,298.299 " />
<polyline points="297.147,323.919 315.118,298.299 " />
<polyline points="267.42,292.497 270.317,292.514 " />
<polyline points="268.869,292.505 268.836,298.299 " />
<polyline points="272.933,292.497 275.829,292.514 " />
<polyline points="274.381,292.505 274.348,298.299 " />
<polyline points="154.353,298.299 154.353,306.611 " />
<polyline points="150.732,298.299 150.732,306.611 " />
<polyline points="113.902,298.299 113.902,306.611 " />
<polyline points="110.281,298.299 110.281,306.611 " />
<polyline points="70.8376,298.299 70.8376,306.611 " />
<polyline points="67.2167,298.299 67.2167,306.611 " />
<polyline points="25.4799,298.299 25.4799,306.611 " />
<polyline points="25.4799,310.232 25.4799,366.212 " />
<polyline points="21.859,294.678 21.859,369.833 " />
<polyline points="284.386,224.223 255.723,224.223 " />
<polyline points="252.102,224.223 236.005,224.223 " />
<polyline points="232.384,224.223 203.036,224.223 " />
<polyline points="284.386,227.844 255.723,227.844 " />
<polyline points="252.102,227.844 247.118,227.844 " />
<polyline points="243.497,227.844 206.657,227.844 " />
<polyline points="232.384,224.223 232.384,197.66 " />
<polyline points="255.723,194.039 284.386,194.039 " />
<polyline points="288.007,194.039 389.651,194.039 " />
<polyline points="236.005,224.223 236.005,197.66 252.102,197.66 " />
<polyline points="255.723,197.66 284.386,197.66 " />
<polyline points="288.007,197.66 310.695,197.66 " />
<polyline points="315.118,197.66 389.651,197.66 " />
<polyline points="232.384,197.66 58.82,197.66 " />
<polyline points="252.102,194.039 55.199,194.039 " />
<polyline points="55.199,326.17 55.199,310.232 " />
<polyline points="55.199,306.611 55.199,298.299 " />
<polyline points="55.199,294.678 55.199,194.039 " />
<polyline points="58.82,322.549 58.82,310.232 " />
<polyline points="58.82,306.611 58.82,298.299 " />
<polyline points="58.82,294.678 58.82,197.66 " />
<polyline points="237.777,358.315 262.238,358.315 " />
<polyline points="265.859,358.315 284.386,358.315 " />
<polyline points="237.777,361.936 284.386,361.936 " />
<polyline points="231.976,338.896 231.992,335.999 " />
<polyline points="231.984,337.448 237.777,337.48 " />
<polyline points="231.976,335.374 231.992,332.477 " />
<polyline points="231.984,333.925 237.777,333.958 " />
<polyline points="173.825,320.369 176.722,320.385 " />
<polyline points="175.273,320.377 175.241,326.17 " />
<polyline points="177.347,320.369 180.244,320.385 " />
<polyline points="178.796,320.377 178.763,326.17 " />
<polyline points="203.036,345.485 189.488,326.17 " />
<polyline points="203.036,351.79 185.065,326.17 " />
<polyline points="237.777,326.17 262.238,326.17 " />
<polyline points="265.859,326.17 284.386,326.17 " />
<polyline points="288.007,326.17 293.526,326.17 " />
<polyline points="297.147,326.17 345.867,326.17 " />
<polyline points="345.867,322.549 345.867,326.17 " />
<polyline points="288.007,166.922 252.102,166.922 " />
<polyline points="284.386,170.543 255.723,170.543 " />
<polyline points="293.526,222.136 310.695,197.66 " />
<polyline points="297.147,223.28 315.118,197.66 " />
<polyline points="294.551,191.859 297.448,191.875 " />
<polyline points="296,191.867 295.967,197.66 " />
<polyline points="298.074,191.859 300.971,191.875 " />
<polyline points="299.522,191.867 299.49,197.66 " />
<polyline points="389.651,194.039 389.651,197.66 " />
<polyline points="396.703,294.678 396.703,298.299 " />
<polyline points="390.649,366.212 390.649,369.833 " />
<polyline points="247.118,246.616 252.102,246.616 " />
<polyline points="255.723,246.616 267.288,246.616 " />
<polyline points="270.909,246.616 284.386,246.616 " />
<polyline points="247.118,242.995 252.102,242.995 " />
<polyline points="255.723,242.995 284.386,242.995 " />
<polyline points="267.288,246.616 267.288,288.663 284.386,288.663 " />
<polyline points="270.909,246.616 270.909,285.042 284.386,285.042 " />
</g>
<g stroke-width="1.75" clip-path="url(#clipId0)" fill="rgb(0,0,0)" stroke="none" >
<path d="M266.415,274.928 266.059,274.068 266.415,274.068 z" />
<path d="M266.415,274.928 266.415,274.068 267.276,275.284 z" />
<path d="M267.276,275.284 266.415,274.068 267.276,274.068 z" />
<path d="M267.276,274.068 267.276,272.851 268.136,274.068 z" />
<path d="M268.136,274.068 267.276,272.851 268.136,273.207 z" />
<path d="M268.136,274.068 268.136,273.207 268.492,274.068 z" />
</g>
<g stroke-width="1.75" clip-path="url(#clipId0)" fill="none" stroke="rgb(0,0,0)" >
<polyline points="268.492,274.068 268.299,273.41 267.781,272.961 267.103,272.863 266.479,273.148 266.108,273.725 266.108,274.41 266.479,274.987 267.103,275.272 267.781,275.174 268.299,274.725 268.492,274.068 " />
</g>
<g stroke-width="1.75" clip-path="url(#clipId0)" fill="rgb(0,0,0)" stroke="none" >
<path d="M266.234,263.579 266.071,262.97 266.234,262.97 z" />
<path d="M266.234,263.579 266.234,262.97 266.68,264.024 z" />
<path d="M266.68,264.024 266.234,262.97 266.68,262.97 z" />
<path d="M266.68,264.024 266.68,262.97 267.288,264.187 z" />
<path d="M267.288,264.187 266.68,262.97 267.288,262.97 z" />
<path d="M267.288,262.97 267.288,261.754 267.896,262.97 z" />
<path d="M267.896,262.97 267.288,261.754 267.896,261.917 z" />
<path d="M267.896,262.97 267.896,261.917 268.342,262.97 z" />
<path d="M268.342,262.97 267.896,261.917 268.342,262.362 z" />
<path d="M268.342,262.97 268.342,262.362 268.505,262.97 z" />
</g>
<g stroke-width="1.75" clip-path="url(#clipId0)" fill="none" stroke="rgb(0,0,0)" >
<polyline points="268.505,262.97 268.312,262.313 267.793,261.864 267.115,261.766 266.491,262.051 266.121,262.628 266.121,263.313 266.491,263.89 267.115,264.175 267.793,264.077 268.312,263.628 268.505,262.97 " />
</g>
<g stroke-width="1.75" clip-path="url(#clipId0)" fill="rgb(0,0,0)" stroke="none" >
<path d="M252.438,196.61 252.207,195.751 252.438,195.751 z" />
<path d="M252.438,196.61 252.438,195.751 253.066,197.239 z" />
<path d="M253.066,197.239 252.438,195.751 253.066,195.751 z" />
<path d="M253.066,197.239 253.066,195.751 253.925,197.469 z" />
<path d="M253.925,197.469 253.066,195.751 253.925,195.751 z" />
<path d="M253.925,195.751 253.925,194.033 254.784,195.751 z" />
<path d="M254.784,195.751 253.925,194.033 254.784,194.263 z" />
<path d="M254.784,195.751 254.784,194.263 255.413,195.751 z" />
<path d="M255.413,195.751 254.784,194.263 255.413,194.892 z" />
<path d="M255.413,195.751 255.413,194.892 255.643,195.751 z" />
</g>
<g stroke-width="1.75" clip-path="url(#clipId0)" fill="none" stroke="rgb(0,0,0)" >
<polyline points="255.643,195.751 255.446,194.953 254.901,194.337 254.132,194.045 253.316,194.145 252.639,194.612 252.257,195.34 252.257,196.162 252.639,196.89 253.316,197.357 254.132,197.456 254.901,197.165 255.446,196.549 255.643,195.751 " />
</g>
<g stroke-width="2.1" clip-path="url(#clipId0)" fill="none" stroke="rgb(0,0,0)" >
<polyline points="217.035,222.042 219.932,222.059 " />
<polyline points="218.484,222.051 218.451,227.844 " />
<polyline points="220.558,222.042 223.455,222.059 " />
<polyline points="222.006,222.051 221.974,227.844 " />
</g>
<g stroke-width="1.75" clip-path="url(#clipId0)" fill="rgb(0,0,0)" stroke="none" >
<text transform="matrix(6.03495 0 -0 6.03495 65.2831 240.761)" font-family="SimHei,'sans-serif'" font-size="1.438" >&#29926;&#26031;&#25277;&#25918;</text>
<text transform="matrix(6.03495 0 -0 6.03495 65.5185 251.869)" font-family="SimHei,'sans-serif'" font-size="1.438" >&#32852;&#32476;&#24055;</text>
<text transform="matrix(6.03495 0 -0 6.03495 139.75 180.118)" font-family="SimSun,'sans-serif'" font-size="1.42915" >1383&#24213;&#26495;</text>
<text transform="matrix(6.03495 0 -0 6.03495 140.423 191.214)" font-family="SimSun,'sans-serif'" font-size="1.42915" >&#25277;&#25918;&#24055;</text>
<text transform="matrix(6.03495 0 -0 6.03495 104.934 334.562)" font-family="SimSun,'sans-serif'" font-size="1.42915" >1381&#24213;&#26495;&#25277;&#25918;&#24055;</text>
<text transform="matrix(6.03495 0 -0 6.03495 44.9067 345.89)" font-family="SimSun,'sans-serif'" font-size="1.42915" >1381&#39318;&#37319;&#24037;&#20316;&#38754;</text>
<text transform="matrix(6.03495 0 -0 6.03495 45.5799 356.986)" font-family="SimSun,'sans-serif'" font-size="1.42915" >&#37319;1</text>
<path d="M43.1425,341.134 43.1425,341.134 38.9255,341.898 38.9193,340.404 z" />
</g>
<g stroke-width="1.75" clip-path="url(#clipId0)" fill="none" stroke="rgb(0,0,0)" >
<polyline points="32.7163,343.49 31.4067,344.753 " />
<polyline points="32.7337,342.533 31.0505,344.156 " />
<polyline points="32.7511,341.575 31.0679,343.198 " />
<polyline points="32.7525,340.632 31.0853,342.24 " />
<polyline points="32.7601,339.684 31.1028,341.282 " />
<polyline points="32.7677,338.735 31.1202,340.324 " />
<polyline points="32.7753,337.787 31.1376,339.366 " />
<polyline points="34.1886,345.546 30.1277,345.513 30.1976,336.779 34.2584,336.811 " />
<polyline points="32.6828,341.091 32.7489,341.091 " />
<polyline points="32.6828,341.091 42.0972,341.145 " />
<polyline points="32.72,344.7 32.7771,337.558 " />
</g>
<g stroke-width="1.75" clip-path="url(#clipId0)" fill="rgb(0,0,0)" stroke="none" >
<text transform="matrix(6.03495 0 -0 6.03495 114.043 363.561)" font-family="SimSun,'sans-serif'" font-size="1.42915" >1381&#24037;&#20316;&#38754;&#22238;&#39118;&#24055;</text>
<text transform="matrix(6.03495 0 -0 6.03495 77.4814 292.109)" font-family="SimSun,'sans-serif'" font-size="1.42915" >1381&#24037;&#20316;&#38754;&#36816;&#36755;&#24055;</text>
<text transform="matrix(6.03495 0 -0 6.03495 67.3406 317.338)" font-family="SimSun,'sans-serif'" font-size="1.42915" >1381&#24037;&#20316;&#38754;&#39034;&#27133;</text>
<text transform="matrix(6.03495 0 -0 6.03495 167.617 387.752)" font-family="SimSun,'sans-serif'" font-size="1.42915" >&#19968;&#21306;&#27573;</text>
<text transform="matrix(6.03495 0 -0 6.03495 166.913 398.751)" font-family="SimSun,'sans-serif'" font-size="1.42915" >&#22238;&#39118;&#30707;&#38376;</text>
<text transform="matrix(6.03495 0 -0 6.03495 306.34 402.239)" font-family="SimSun,'sans-serif'" font-size="1.42915" >&#19996;&#32764;&#38598;&#20013;&#22238;&#39118;&#30707;&#38376;</text>
</g>
<g stroke-width="2.1" clip-path="url(#clipId0)" fill="none" stroke="rgb(0,0,0)" >
<polyline points="308.102,404.826 289.876,391.967 " />
</g>
<g stroke-width="1.75" clip-path="url(#clipId0)" fill="rgb(0,0,0)" stroke="none" >
<text transform="matrix(6.03495 0 -0 6.03495 298.069 337.2)" font-family="SimSun,'sans-serif'" font-size="1.42915" >&#19996;&#32764;&#38598;&#20013;</text>
<text transform="matrix(6.03495 0 -0 6.03495 297.535 348.198)" font-family="SimSun,'sans-serif'" font-size="1.42915" >&#22238;&#39118;&#19978;&#23665;</text>
<text transform="matrix(6.03495 0 -0 6.03495 256.256 208.862)" font-family="SimSun,'sans-serif'" font-size="1.42915" >&#30382;&#24102;&#24055;</text>
</g>
<g stroke-width="2.1" clip-path="url(#clipId0)" fill="none" stroke="rgb(0,0,0)" >
<polyline points="259.586,211.255 254.205,213.379 " />
</g>
<g stroke-width="1.75" clip-path="url(#clipId0)" fill="rgb(0,0,0)" stroke="none" >
<text transform="matrix(6.03495 0 -0 6.03495 265.511 189.176)" font-family="SimSun,'sans-serif'" font-size="1.42915" >&#29028;&#20179;</text>
</g>
<g stroke-width="2.1" clip-path="url(#clipId0)" fill="none" stroke="rgb(0,0,0)" >
<polyline points="265.583,190.533 253.925,195.751 " />
</g>
<g stroke-width="1.75" clip-path="url(#clipId0)" fill="rgb(0,0,0)" stroke="none" >
<text transform="matrix(3.62097 0 -0 3.62097 257.248 237.75)" font-family="SimSun,'sans-serif'" font-size="1.42915" >&#28040;&#38450;&#26448;&#26009;&#24211;</text>
</g>
<g stroke-width="2.1" clip-path="url(#clipId0)" fill="none" stroke="rgb(0,0,0)" >
<polyline points="259.647,239.71 258.342,245.267 " />
</g>
<g stroke-width="1.75" clip-path="url(#clipId0)" fill="rgb(0,0,0)" stroke="none" >
<text transform="matrix(6.03495 0 -0 6.03495 307.674 265.434)" font-family="SimHei,'sans-serif'" font-size="1.438" >&#31649;&#23376;&#36947;</text>
</g>
<g stroke-width="2.1" clip-path="url(#clipId0)" fill="none" stroke="rgb(0,0,0)" >
<polyline points="306.638,267.507 274.742,287.138 " />
</g>
<g stroke-width="1.75" clip-path="url(#clipId0)" fill="rgb(0,0,0)" stroke="none" >
<text transform="matrix(6.03495 0 -0 6.03495 308.307 244.63)" font-family="SimHei,'sans-serif'" font-size="1.438" >&#27700;&#27893;&#25151;</text>
</g>
<g stroke-width="2.1" clip-path="url(#clipId0)" fill="none" stroke="rgb(0,0,0)" >
<polyline points="307.754,247.158 268.971,271.106 " />
</g>
<g stroke-width="1.75" clip-path="url(#clipId0)" fill="rgb(0,0,0)" stroke="none" >
<text transform="matrix(6.03495 0 -0 6.03495 302.185 170.297)" font-family="SimSun,'sans-serif'" font-size="1.42915" >&#38598;&#20013;&#36816;&#29028;</text>
<text transform="matrix(6.03495 0 -0 6.03495 302.185 181.393)" font-family="SimSun,'sans-serif'" font-size="1.42915" >&#26448;&#26009;&#36947;</text>
</g>
<g stroke-width="2.1" clip-path="url(#clipId0)" fill="none" stroke="rgb(0,0,0)" >
<polyline points="299.962,173.586 286.441,180.678 " />
</g>
<g stroke-width="1.75" clip-path="url(#clipId0)" fill="rgb(0,0,0)" stroke="none" >
<text transform="matrix(6.03495 0 -0 6.03495 394.277 189.582)" font-family="SimSun,'sans-serif'" font-size="1.42915" >1384&#24213;&#26495;&#25277;&#25918;&#24055;&#25496;&#36827;&#24037;&#20316;&#38754;  &#25496;4</text>
</g>
<g stroke-width="2.1" clip-path="url(#clipId0)" fill="none" stroke="rgb(0,0,0)" >
<polyline points="394.212,190.427 384.692,195.903 " />
</g>
<g stroke-width="1.75" clip-path="url(#clipId0)" fill="rgb(0,0,0)" stroke="none" >
<text transform="matrix(6.03495 0 -0 6.03495 400.24 290.425)" font-family="SimSun,'sans-serif'" font-size="1.42915" >1382&#36816;&#36755;&#24055;&#25496;&#36827;&#24037;&#20316;&#38754; &#25496;3</text>
</g>
<g stroke-width="2.1" clip-path="url(#clipId0)" fill="none" stroke="rgb(0,0,0)" >
<polyline points="397.906,291.618 389.174,296.57 " />
</g>
<g stroke-width="1.75" clip-path="url(#clipId0)" fill="rgb(0,0,0)" stroke="none" >
<text transform="matrix(6.03495 0 -0 6.03495 395.227 362.844)" font-family="SimSun,'sans-serif'" font-size="1.42915" >1382&#22238;&#39118;&#24055;&#25496;&#36827;</text>
<text transform="matrix(6.03495 0 -0 6.03495 395.767 373.976)" font-family="SimSun,'sans-serif'" font-size="1.42915" >&#24037;&#20316;&#38754;</text>
</g>
<g stroke-width="2.1" clip-path="url(#clipId0)" fill="none" stroke="rgb(0,0,0)" >
<polyline points="390.725,363.562 385.827,368.079 " />
</g>
<g stroke-width="1.75" clip-path="url(#clipId0)" fill="rgb(0,0,0)" stroke="none" >
<text transform="matrix(6.03495 0 -0 6.03495 327.868 318.569)" font-family="SimSun,'sans-serif'" font-size="1.42915" >1382&#24213;&#26495;&#25277;&#25918;&#24055;&#25496;&#36827;&#24037;&#20316;&#38754; &#25496;2</text>
<text transform="matrix(4.82796 0 -0 4.82796 209.406 332.194)" font-family="SimSun,'sans-serif'" font-size="1.42915" >&#19977;&#37319;&#21306;</text>
<text transform="matrix(4.82796 0 -0 4.82796 209.406 341.099)" font-family="SimSun,'sans-serif'" font-size="1.42915" >&#21464;&#30005;&#25152;</text>
<text transform="matrix(6.03495 0 -0 6.03495 298.359 425.26)" font-family="SimSun,'sans-serif'" font-size="1.42915" >&#19968;&#21306;&#27573;&#29993;&#36710;&#22330;</text>
</g>
<g stroke-width="2.1" clip-path="url(#clipId0)" fill="none" stroke="rgb(0,0,0)" >
<polyline points="299.308,426.577 292.358,409.919 " />
</g>
<g stroke-width="1.75" clip-path="url(#clipId0)" fill="rgb(0,0,0)" stroke="none" >
<text transform="matrix(6.03495 0 -0 6.03495 303.624 282.155)" font-family="SimSun,'sans-serif'" font-size="1.42915" >&#19968;&#21306;&#27573;&#26448;&#26009;&#19978;&#23665;</text>
</g>
<g stroke-width="2.1" clip-path="url(#clipId0)" fill="none" stroke="rgb(0,0,0)" >
<polyline points="301.692,284.023 264.233,307.57 " />
</g>
<g stroke-width="1.75" clip-path="url(#clipId0)" fill="rgb(0,0,0)" stroke="none" >
<text transform="matrix(3.69534e-016 -6.03495 6.03495 3.69534e-016 217.158 447.204)" font-family="SimSun,'sans-serif'" font-size="1.42915" >&#19977;&#37319;&#21306;&#22238;&#39118;</text>
<text transform="matrix(3.69534e-016 -6.03495 6.03495 3.69534e-016 228.023 447.471)" font-family="SimSun,'sans-serif'" font-size="1.42915" >&#19979;&#23665;</text>
</g>
<g stroke-width="2.1" clip-path="url(#clipId0)" fill="none" stroke="rgb(0,0,0)" >
<polyline points="284.386,455.175 284.386,469.393 " />
<polyline points="288.007,455.175 288.007,469.393 " />
<polyline points="177.21,294.678 177.21,289.26 " />
<polyline points="180.83,294.678 180.83,289.26 " />
<polyline points="177.21,289.26 180.83,289.26 " />
</g>
<g stroke-width="1.75" clip-path="url(#clipId0)" fill="rgb(0,0,0)" stroke="none" >
<text transform="matrix(6.03495 0 -0 6.03495 155.041 280.428)" font-family="SimSun,'sans-serif'" font-size="1.42915" >&#20020;&#26102;&#36991;</text>
<text transform="matrix(6.03495 0 -0 6.03495 155.041 291.493)" font-family="SimSun,'sans-serif'" font-size="1.42915" >&#38505;&#30800;&#23460;</text>
</g>
<g stroke-width="2.1" clip-path="url(#clipId0)" fill="none" stroke="rgb(0,0,0)" >
<polyline points="284.386,451.115 282.242,451.115 282.242,455.175 " />
<polyline points="288.007,451.115 290.15,451.115 290.15,455.175 " />
<polyline points="282.242,455.175 284.386,455.175 " />
<polyline points="288.007,455.175 290.15,455.175 " />
</g>
<g stroke-width="1.75" clip-path="url(#clipId0)" fill="rgb(0,0,0)" stroke="none" >
<text transform="matrix(6.03495 0 -0 6.03495 244.547 474.16)" font-family="SimSun,'sans-serif'" font-size="1.42915" >&#19977;&#37319;&#21306;</text>
<text transform="matrix(6.03495 0 -0 6.03495 244.45 485.256)" font-family="SimSun,'sans-serif'" font-size="1.42915" >&#32478;&#36710;&#25151;</text>
<text transform="matrix(6.03495 0 -0 6.03495 466.379 362.844)" font-family="SimHei,'sans-serif'" font-size="1.438" >&#25496;1</text>
</g>
<g stroke-width="2.1" clip-path="url(#clipId0)" fill="none" stroke="rgb(0,255,255)" >
<polyline points="286.239,478.46 286.239,393.45 " />
<polyline points="286.239,389.829 286.239,360.227 " />
<polyline points="382.515,368.208 304.161,368.208 304.161,392.923 286.239,418.319 " />
<polyline points="245.322,458.343 245.322,393.45 " />
<polyline points="245.322,389.829 245.322,361.936 " />
<polyline points="245.322,358.315 245.322,326.17 " />
<polyline points="245.322,322.549 245.322,310.232 " />
<polyline points="245.322,306.611 245.322,298.299 " />
<polyline points="245.322,294.678 245.322,226.14 252.102,226.14 " />
<polyline points="255.723,226.14 286.239,226.14 " />
<polyline points="286.239,360.227 264.104,360.227 264.104,296.606 381.33,296.606 " />
<polyline points="264.104,296.606 255.723,296.606 " />
<polyline points="252.102,296.606 69.2898,296.606 " />
<polyline points="69.2898,308.505 27.6883,308.505 " />
<polyline points="264.252,391.607 245.322,418.318 " />
<polyline points="264.252,391.607 222.729,391.607 " />
<polyline points="222.729,391.607 222.729,368.232 " />
<polyline points="222.729,368.232 27.9762,368.232 " />
<polyline points="264.104,360.227 236.026,360.227 " />
<polyline points="236.026,360.227 236.026,348.169 " />
<polyline points="236.026,348.169 216.406,348.169 " />
<polyline points="236.026,348.169 236.026,324.498 " />
<polyline points="236.026,324.498 262.238,324.498 " />
<polyline points="265.859,324.498 284.386,324.498 " />
<polyline points="288.007,324.498 293.526,324.498 " />
<polyline points="297.147,324.498 333.707,324.498 " />
<polyline points="69.2898,308.505 69.2898,296.606 " />
</g>
<g stroke-width="2.1" clip-path="url(#clipId0)" fill="none" stroke="rgb(0,0,0)" >
<polyline points="218.892,379.518 192.931,402.234 " />
<polyline points="192.931,402.234 167.242,402.234 " />
<polyline points="284.268,453.745 270.545,486.895 " />
<polyline points="270.545,486.895 250.478,486.895 " />
<polyline points="298.174,445.822 344.033,445.822 " />
<polyline points="299.308,426.577 337.216,426.577 " />
<polyline points="308.102,404.826 358.896,404.826 " />
<polyline points="390.725,363.562 460.426,363.562 " />
<polyline points="295.421,357.416 298.765,350.142 " />
<polyline points="298.765,350.142 321.175,350.142 " />
<polyline points="341.965,324.372 345.016,320.191 " />
<polyline points="345.016,320.191 420.456,320.191 " />
<polyline points="397.906,291.618 480.164,291.618 " />
<polyline points="301.692,284.023 349.1,284.023 " />
<polyline points="306.638,267.507 326.77,267.507 " />
<polyline points="307.754,247.158 326.834,247.158 " />
<polyline points="259.647,239.71 281.992,239.71 " />
<polyline points="259.586,211.255 277.215,211.255 " />
<polyline points="265.583,190.533 277.248,190.533 " />
<polyline points="299.962,173.586 349.303,173.586 " />
<polyline points="394.212,190.427 488.996,190.427 " />
</g>
<g stroke-width="1.75" clip-path="url(#clipId0)" fill="rgb(0,0,0)" stroke="none" >
<text transform="matrix(12.0699 0 -0 12.0699 180.298 152.276)" font-family="SimHei,'sans-serif'" font-size="1.438" >&#27754;&#23478;&#27807;&#29028;&#30719;&#30417;&#25511;&#31995;&#32479;&#31034;&#24847;&#22270;</text>
</g>
<g stroke-width="2.1" clip-path="url(#clipId0)" fill="none" stroke="rgb(255,255,0)" >
<polyline points="208.759,350.128 233.997,350.128 233.997,362.033 208.759,362.033 208.759,350.128 " />
</g>
<g stroke-width="1.75" clip-path="url(#clipId0)" fill="rgb(255,255,0)" stroke="none" >
<text transform="matrix(4.82796 0 -0 4.82796 211.298 358.789)" font-family="SimHei,'sans-serif'" font-size="1.438" >&#20132;&#25442;&#26426;</text>
</g>
<g stroke-width="2.1" clip-path="url(#clipId0)" fill="none" stroke="rgb(255,255,0)" >
<polyline points="215.686,237.985 240.924,237.985 240.924,249.89 215.686,249.89 215.686,237.985 " />
</g>
<g stroke-width="1.75" clip-path="url(#clipId0)" fill="rgb(255,255,0)" stroke="none" >
<text transform="matrix(4.82796 0 -0 4.82796 217.802 246.505)" font-family="SimHei,'sans-serif'" font-size="1.438" >&#20132;&#25442;&#26426;</text>
</g>
<g stroke-width="2.1" clip-path="url(#clipId0)" fill="none" stroke="rgb(0,255,255)" >
<polyline points="245.322,244.642 240.924,244.642 " />
<polyline points="245.322,226.14 233.797,226.14 " />
<polyline points="233.797,226.14 233.797,196.05 " />
<polyline points="383.525,195.903 286.239,195.903 " />
<polyline points="233.797,196.05 62.0594,196.05 " />
<polyline points="286.239,195.903 286.239,226.14 " />
</g>
<g stroke-width="2.1" clip-path="url(#clipId0)" fill="none" stroke="rgb(255,0,255)" >
<polyline points="244.192,455.445 244.192,393.45 " />
<polyline points="244.192,372.309 235.294,372.309 " />
<polyline points="235.294,372.309 235.294,361.715 " />
<polyline points="244.192,389.829 244.192,372.309 " />
<polyline points="235.294,361.715 233.997,361.715 " />
<polyline points="233.899,361.282 236.203,361.282 " />
<polyline points="236.203,361.282 236.203,371.296 " />
<polyline points="236.203,371.296 244.311,371.296 " />
<polyline points="244.311,371.296 244.311,361.936 " />
<polyline points="244.311,248.028 240.924,248.028 " />
<polyline points="244.311,294.678 244.311,248.028 " />
<polyline points="244.311,358.315 244.311,326.17 " />
<polyline points="244.311,322.549 244.311,298.299 " />
<polyline points="240.327,241.619 244.007,241.619 " />
<polyline points="244.007,241.619 244.007,227.026 " />
<polyline points="244.007,227.026 205.133,227.026 " />
<polyline points="205.133,227.026 205.133,294.678 " />
<polyline points="244.192,455.445 244.192,461.112 " />
</g>
<g stroke-width="2.1" clip-path="url(#clipId0)" fill="none" stroke="rgb(255,255,0)" >
<polyline points="87.9691,451.4 113.207,451.4 113.207,463.305 87.9691,463.305 87.9691,451.4 " />
</g>
<g stroke-width="1.75" clip-path="url(#clipId0)" fill="rgb(255,255,0)" stroke="none" >
<text transform="matrix(4.82796 0 -0 4.82796 90.3678 459.638)" font-family="SimHei,'sans-serif'" font-size="1.438" >&#20132;&#25442;&#26426;</text>
</g>
<g stroke-width="2.1" clip-path="url(#clipId0)" fill="none" stroke="rgb(0,0,0)" >
<polyline points="81.1224,446.931 132.974,446.931 132.974,486.084 81.1224,486.084 81.1224,446.931 " />
</g>
<g stroke-width="1.75" clip-path="url(#clipId0)" fill="rgb(0,0,0)" stroke="none" >
<text transform="matrix(4.82796 0 -0 4.82796 85.0318 475.297)" font-family="SimHei,'sans-serif'" font-size="1.438" >&#35843;&#24230;&#23460;</text>
</g>
<g stroke-width="2.1" clip-path="url(#clipId0)" fill="none" stroke="rgb(0,255,0)" >
<polyline points="108.589,462.04 108.589,470.51 " />
<polyline points="108.589,470.51 113.924,470.51 " />
</g>
<g stroke-width="1.75" clip-path="url(#clipId0)" fill="rgb(0,255,0)" stroke="none" >
<text transform="matrix(3.62097 0 -0 3.62097 115.1 470.678)" font-family="SimHei,'sans-serif'" font-size="1.438" >&#26381;&#21153;&#22120;</text>
</g>
<g stroke-width="2.1" clip-path="url(#clipId0)" fill="none" stroke="rgb(0,255,0)" >
<polyline points="113.873,464.208 132.49,464.208 132.49,472.597 113.873,472.597 113.873,464.208 " />
</g>
<g stroke-width="2.1" clip-path="url(#clipId0)" fill="none" stroke="rgb(255,0,255)" >
<polyline points="205.133,458.568 113.207,458.568 " />
<polyline points="244.192,461.112 113.207,461.112 " />
</g>
<g stroke-width="2.1" clip-path="url(#clipId0)" fill="none" stroke="rgb(0,255,255)" >
<polyline points="216.406,348.169 216.406,350.128 " />
</g>
<g stroke-width="2.1" clip-path="url(#clipId0)" fill="none" stroke="rgb(255,0,255)" >
<polyline points="205.133,369.833 205.133,458.568 " />
<polyline points="205.133,298.299 205.133,306.611 " />
<polyline points="205.133,310.232 205.133,322.549 " />
<polyline points="205.133,326.17 205.133,366.212 " />
</g>
</svg>
