<?xml version="1.0" standalone="no"?><!DOCTYPE svg PUBLIC "-//W3C//DTD SVG 1.1//EN" "http://www.w3.org/Graphics/SVG/1.1/DTD/svg11.dtd">
<svg t="1515467283739" class="icon" style="" viewBox="0 0 1024 1024" version="1.1" xmlns="http://www.w3.org/2000/svg" p-id="20472" xmlns:xlink="http://www.w3.org/1999/xlink" width="100" height="100">
	<defs>
		<style type="text/css"></style>
	</defs>
	<path d="M511.952979 1023.896979a505.462446 505.462446 0 0 1-198.72418-40.381232c-60.914463-25.881164-115.693372-62.891387-162.824501-110.022515-47.131128-47.131128-84.141351-101.902162-110.022514-162.8245a505.462446 505.462446 0 0 1-40.381233-198.72418c0-85.708713 24.227164-176.592083 68.223569-255.928957 4.891115-7.923448 14.956887-13.657316 23.998754-13.657316 1.8194 0 5.245543 0.275667 7.679287 2.095067 9.774353 7.332734 15.421582 22.352631 7.954953 34.797013l-0.275667 0.456819-0.252038 0.472571C67.412872 355.019318 47.17106 433.009363 47.17106 511.944552c0 256.283385 208.498533 464.781919 464.781919 464.781918s464.781919-208.498533 464.781919-464.781918-208.498533-464.781919-464.781919-464.781919c-78.943064 0-156.925233 20.241811-231.780554 60.166224l-0.464696 0.252039-0.448943 0.26779c-4.938372 2.961448-10.191791 4.52881-15.208925 4.52881-7.293353 0-13.342268-3.229238-17.532401-9.349039-3.922343-11.192068-3.709686-26.692412 9.498686-34.804889 79.328998-43.996404 170.212368-68.223568 255.928957-68.223568a505.430941 505.430941 0 0 1 198.72418 40.381232c60.906587 25.873288 115.693372 62.891387 162.824501 110.022515 47.123252 47.123252 84.141351 101.902162 110.022515 162.824501 26.794802 63.072539 40.381232 129.933526 40.381232 198.72418s-13.58643 135.659517-40.381232 198.72418c-25.881164 60.914463-62.891387 115.693372-110.022515 162.824501-47.131128 47.131128-101.910038 84.141351-162.824501 110.022514a505.525456 505.525456 0 0 1-198.716304 40.373356z" p-id="20473"></path>
	<path d="M369.299404 661.875727c-14.429182 17.878954-32.056098 26.810555-52.864995 26.810555-17.114963 0-33.009117-6.560867-47.698214-19.682602-14.68122-13.113858-25.503107-32.946108-32.46566-59.473119-6.962553-26.527012-10.44383-57.574958-10.44383-93.128085 0-27.566669 2.937819-54.337843 8.813458-80.297769 5.875639-25.959926 16.059554-46.634928 30.551746-62.040758 14.492192-15.40583 32.52867-23.108745 54.109434-23.108745 18.768964 0 34.34807 6.938924 46.737318 20.824649 12.389249 13.885725 21.832802 36.041451 28.346412 66.459301l36.584908-12.838191c-7.537515-38.601213-20.879783-68.554368-40.03468-89.851589s-42.783471-31.953708-70.869968-31.953708c-24.778498 0-47.469804 8.411772-68.089673 25.251069-20.627745 16.831421-36.521899 41.46027-47.698214 73.878673-11.176315 32.426279-16.760535 70.397397-16.760535 113.952735 0 39.932289 4.946248 77.29694 14.846621 112.093953 9.892496 34.804889 24.321678 61.379158 43.287547 79.730683 18.965868 18.351525 43.578966 27.519412 73.839292 27.519412 29.236422 0 53.983414-11.93243 74.21735-35.797289 20.233935-23.856983 34.253556-58.520101 42.043108-103.965724L398.606712 582.286815c-5.111648 35.190822-14.878125 61.717834-29.307308 79.588912z m296.499218-179.419635h-145.945823V310.739371h-37.15987v418.162743h37.15987V531.80043h145.945823v197.101684h37.15987V310.739371h-37.15987v171.716721z m151.191366 171.228396V515.189542h-14.389801l-65.49053 138.494946v24.061765h62.261291v51.163738h17.61904v-51.163738h19.383307v-24.061765h-19.383307z m-17.61904 0h-44.93367l44.93367-96.357323v96.357323z" p-id="20474"></path>
</svg>