<?xml version="1.0" standalone="no"?><!DOCTYPE svg PUBLIC "-//W3C//DTD SVG 1.1//EN" "http://www.w3.org/Graphics/SVG/1.1/DTD/svg11.dtd">
<svg t="1515571860658" class="icon" style="" viewBox="0 0 1024 1024" version="1.1" xmlns="http://www.w3.org/2000/svg" p-id="1480" xmlns:xlink="http://www.w3.org/1999/xlink" width="100" height="100">
	<defs>
		<style type="text/css"></style>
	</defs>
	<path d="M511.953275 1023.896a505.435719 505.435719 0 0 1-198.722889-40.379977c-60.915966-25.882986-115.693936-62.892965-162.82391-110.022939S66.266523 771.590141 40.383538 710.666174A505.466719 505.466719 0 0 1 0.00156 511.945285c0-85.708952 24.226987-176.592902 68.222962-255.927858 4.889997-7.923996 14.955992-13.657992 23.997987-13.657992 1.818999 0 5.244997 0.276 7.679995 2.094999 9.774995 7.333996 15.420991 22.353988 7.953996 34.796981l-0.276 0.456999-0.252 0.473C67.412522 355.020372 47.170534 433.011329 47.170534 511.947285c0 256.282857 208.498884 464.780741 464.780741 464.780741S976.732016 768.230142 976.732016 511.947285s-208.499884-464.780741-464.779741-464.780741c-78.942956 0-156.926913 20.239989-231.780871 60.165966l-0.465 0.252-0.448999 0.268c-4.939997 2.961998-10.191994 4.527997-15.207992 4.527997-7.294996 0-13.342993-3.229998-17.53299-9.348994-3.921998-11.191994-3.708998-26.690985 9.498994-34.802981C335.346373 24.228557 426.228323 0.00057 511.945275 0.00057a505.443719 505.443719 0 0 1 198.722889 40.379978c60.907966 25.871986 115.695936 62.891965 162.82691 110.022938 47.125974 47.121974 84.141953 101.901943 110.023939 162.82391 26.795985 63.071965 40.382978 129.932928 40.382977 198.722889 0 68.791962-13.586992 135.659924-40.382977 198.723889-25.881986 60.914966-62.891965 115.692936-110.023939 162.82591-47.130974 47.131974-101.909943 84.139953-162.82691 110.023939a505.539719 505.539719 0 0 1-198.714889 40.369977z" p-id="1481"></path>
	<path d="M472.417297 412.38134h-50.399972c-3.224998-68.775962-31.198983-103.199943-83.999953-103.199942-62.399965 0-92.024949 62.399965-88.799951 187.198896-6.411996 134.399925 23.175987 201.599888 88.799951 201.599887 46.386974 1.612999 72.787959-31.197983 79.199956-98.399945v-14.398992c1.574999-6.374996 3.188998-11.998993 4.799997-16.79999h50.399972c-3.225998 6.412996-4.011998 15.224992-2.399999 26.400985-1.611999 6.412996-2.400999 11.999993-2.400998 16.799991-3.225998 36.82298-11.999993 64.011964-26.399986 81.599954-24.000987 32.024982-56.811968 48.000973-98.399945 48.000973-105.601941 3.189998-154.425914-77.587957-146.399918-242.398865-3.225998-156.787913 44.774975-235.199869 143.99992-235.199869 84.787953 4.795997 128.774928 54.40997 131.999926 148.796917z m67.197963 81.599955c-3.222998-153.599915 48.000973-230.399872 153.599914-230.399872 102.375943 0 152.776915 76.799957 151.199916 230.399872 1.576999 167.999906-49.612972 250.389861-153.599915 247.199862-104.021942 3.186998-154.422914-79.199956-151.199915-247.199862z m251.999859 0c0-123.185931-33.598981-184.797897-100.799944-184.797897s-100.011944 61.611966-98.399945 184.798897c-6.411996 143.99992 26.399985 212.022882 98.399945 203.998886 70.389961 9.598995 103.989942-58.388967 100.799944-203.999886z" p-id="1482"></path>
</svg>