<?xml version="1.0" standalone="no"?><!DOCTYPE svg PUBLIC "-//W3C//DTD SVG 1.1//EN" "http://www.w3.org/Graphics/SVG/1.1/DTD/svg11.dtd"><svg t="1523951167613" class="icon" style="" viewBox="0 0 1024 1024" version="1.1" xmlns="http://www.w3.org/2000/svg" p-id="2433" xmlns:xlink="http://www.w3.org/1999/xlink" width="128" height="128"><defs><style type="text/css"></style></defs><path d="M512 0C229.052632 0 0 229.052632 0 512s229.052632 512 512 512 512-229.052632 512-512S794.947368 0 512 0z m0 997.052632C245.221053 997.052632 26.947368 778.778947 26.947368 512S245.221053 26.947368 512 26.947368s485.052632 218.273684 485.052632 485.052632-218.273684 485.052632-485.052632 485.052632z" p-id="2434" fill="#d81e06"></path><path d="M307.2 638.652632c-5.389474 13.473684-16.168421 21.557895-32.336842 21.557894-18.863158 0-32.336842-8.084211-43.11579-21.557894-10.778947-13.473684-13.473684-35.031579-13.473684-64.673685v-129.347368c0-56.589474 18.863158-86.231579 56.589474-86.231579 16.168421 0 26.947368 5.389474 32.336842 18.863158 5.389474 10.778947 8.084211 29.642105 8.084211 53.894737h67.368421c0-43.115789-8.084211-75.452632-26.947369-97.010527-16.168421-21.557895-45.810526-32.336842-86.231579-32.336842-43.115789 0-72.757895 10.778947-91.621052 35.031579-18.863158 24.252632-29.642105 67.368421-29.642106 129.347369v83.536842c0 56.589474 8.084211 99.705263 26.947369 123.957895 18.863158 24.252632 51.2 37.726316 99.705263 37.726315 40.421053 0 70.063158-13.473684 86.231579-37.726315 16.168421-26.947368 24.252632-61.978947 24.252631-105.094737h-70.063157c2.694737 35.031579 0 56.589474-8.084211 70.063158zM576.673684 304.505263c-45.810526 0-78.147368 10.778947-97.010526 35.031579-18.863158 24.252632-29.642105 70.063158-29.642105 134.736842v80.842105c0 61.978947 10.778947 102.4 29.642105 126.652632 18.863158 24.252632 53.894737 35.031579 99.705263 35.031579 48.505263 0 80.842105-13.473684 99.705263-37.726316 18.863158-24.252632 26.947368-67.368421 26.947369-123.957895v-80.842105c0-59.284211-8.084211-102.4-26.947369-129.347368-16.168421-26.947368-51.2-40.421053-102.4-40.421053z m56.589474 272.168421c0 53.894737-18.863158 83.536842-56.589474 83.536842-37.726316 0-53.894737-29.642105-53.894737-86.231579v-129.347368c0-56.589474 18.863158-86.231579 56.589474-86.231579 37.726316 0 56.589474 29.642105 56.589474 91.621053v126.652631zM797.642105 673.684211c0-13.473684 8.084211-26.947368 24.252632-45.810527l35.031579-37.726316c18.863158-21.557895 29.642105-43.115789 29.642105-67.368421 0-16.168421-5.389474-32.336842-16.168421-43.115789-10.778947-10.778947-26.947368-18.863158-51.2-18.863158-43.115789 0-64.673684 24.252632-64.673684 70.063158v8.08421h37.726316c0-16.168421 2.694737-26.947368 5.389473-35.031579 2.694737-8.084211 10.778947-10.778947 24.252632-10.778947 10.778947 0 26.947368 5.389474 26.947368 32.336842 0 10.778947-2.694737 18.863158-5.389473 26.947369-2.694737 5.389474-10.778947 13.473684-18.863158 24.252631l-21.557895 24.252632c-21.557895 24.252632-35.031579 40.421053-40.421053 56.589473-5.389474 13.473684-8.084211 29.642105-8.08421 53.894737h132.042105v-29.642105h-88.926316V673.684211z" p-id="2435" fill="#d81e06"></path></svg>