<?xml version="1.0" standalone="no"?><!DOCTYPE svg PUBLIC "-//W3C//DTD SVG 1.1//EN" "http://www.w3.org/Graphics/SVG/1.1/DTD/svg11.dtd"><svg t="1526955674878" class="icon" style="" viewBox="0 0 1024 1024" version="1.1" xmlns="http://www.w3.org/2000/svg" p-id="1516" xmlns:xlink="http://www.w3.org/1999/xlink" width="128" height="128"><defs><style type="text/css"></style></defs><path d="M848 120v784H176V120h672m0-56H176c-30.9 0-56 25.1-56 56v784c0 30.9 25.1 56 56 56h672c30.9 0 56-25.1 56-56V120c0-30.9-25.1-56-56-56z" p-id="1517" fill="#d81e06"></path><path d="M176 176h672v56H176zM176 792h672v56H176z" p-id="1518" fill="#d81e06"></path><path d="M456 176v616h-56V176zM316 344h-56c-15.5 0-28-12.5-28-28s12.5-28 28-28h56c15.5 0 28 12.5 28 28s-12.5 28-28 28zM316 512h-56c-15.5 0-28-12.5-28-28s12.5-28 28-28h56c15.5 0 28 12.5 28 28s-12.5 28-28 28zM316 680h-56c-15.5 0-28-12.5-28-28s12.5-28 28-28h56c15.5 0 28 12.5 28 28s-12.5 28-28 28zM708 400H596c-15.5 0-28-12.5-28-28s12.5-28 28-28h112c15.5 0 28 12.5 28 28s-12.5 28-28 28zM708 624H596c-15.5 0-28-12.5-28-28s12.5-28 28-28h112c15.5 0 28 12.5 28 28s-12.5 28-28 28z" p-id="1519" fill="#d81e06"></path></svg>