<?xml version="1.0" standalone="no"?><!DOCTYPE svg PUBLIC "-//W3C//DTD SVG 1.1//EN" "http://www.w3.org/Graphics/SVG/1.1/DTD/svg11.dtd"><svg t="1523951529212" class="icon" style="" viewBox="0 0 1024 1024" version="1.1" xmlns="http://www.w3.org/2000/svg" p-id="4862" xmlns:xlink="http://www.w3.org/1999/xlink" width="128" height="128"><defs><style type="text/css"></style></defs><path d="M698.812314 209.18784c0-8.49408-6.8608-15.44704-15.23712-15.44704h-16.22528c-8.38656 0-15.24224 6.95296-15.24224 15.44704v78.78656l46.69952-46.6944v-32.09216zM489.102234 240.89088V326.2976H372.786074V209.18784c0-8.49408-6.85056-15.44704-15.23712-15.44704H341.333914c-8.38656 0-15.23712 6.95296-15.23712 15.44704v117.10464H269.582234c-11.71968 0-21.21728 9.6256-21.21728 21.50912v45.48608c0 11.8784 9.49248 21.51936 21.21728 21.51936 11.75552 0 21.26336 9.69216 21.20704 21.61152-0.01536 4.18816-0.03072 7.22944-0.03072 8.69888 0 61.18912 15.03744 117.66784 41.1648 163.0464l281.87648-281.87648h-78.0032V240.89088c0-8.50432-6.85568-15.45728-15.22176-15.45728h-16.23552c-8.38144 0-15.23712 6.95296-15.23712 15.45728z" p-id="4863" fill="#d81e06"></path><path d="M1014.450074 417.5872C960.178074 138.368 691.234714-44.2624 413.761434 9.67168 136.288154 63.60576-44.657766 333.68576 9.619354 612.91008c24.83712 127.7696 95.55968 238.98112 197.39136 315.1616a32.53248 32.53248 0 0 0 45.71648-6.71232 33.03424 33.03424 0 0 0-6.784-45.99808 448.08704 448.08704 0 0 1-19.8144-15.73888L856.124314 229.61152c46.1056 56.02816 79.34976 124.09344 94.18752 200.43776 47.33952 243.57888-110.49984 479.17568-352.54784 526.22848-1.4848 0.2816-2.92352 0.67072-4.32128 1.152-3.84512-0.2816-8.42752-0.2304-13.8752 0.2816-37.73952 3.52256-35.17952-39.30112-35.17952-39.30112v-204.82048c106.93632-17.6896 184.22784-131.30752 184.22784-268.47744 0-1.4592 0-4.50048-0.02048-8.68864-0.06144-11.92448 9.45664-21.61664 21.20704-21.61664h5.51424c11.71456 0 21.21216-9.63072 21.21216-21.51424v-36.79744l-344.80128 344.79616a176.66048 176.66048 0 0 0 48.128 13.19936l3.2256-0.02048v207.51872s-3.2768 119.83872 121.01632 99.44064c2.04288 0 4.12672-0.19968 6.21056-0.60928 277.4784-53.92896 458.4192-324.00896 404.14208-603.23328zM177.068954 811.648c-51.79904-59.04896-87.79776-131.38944-103.31136-211.21024-47.34976-243.56864 110.4896-479.16544 352.55296-526.21824 142.14144-27.62752 281.69216 15.93344 382.29504 105.90208L177.068954 811.648z" p-id="4864" fill="#d81e06"></path></svg>