<?xml version="1.0" standalone="no"?><!DOCTYPE svg PUBLIC "-//W3C//DTD SVG 1.1//EN" "http://www.w3.org/Graphics/SVG/1.1/DTD/svg11.dtd">
<svg t="1515467222910" class="icon" style="" viewBox="0 0 1024 1024" version="1.1" xmlns="http://www.w3.org/2000/svg" p-id="20251" xmlns:xlink="http://www.w3.org/1999/xlink" width="100" height="100">
	<defs>
		<style type="text/css"></style>
	</defs>
	<path d="M739.110019 852.475462c-11.30344 0-20.466124-9.162684-20.466124-20.466124s9.162684-20.466124 20.466124-20.466124c47.267537 0 85.723384-38.45687 85.723384-85.72543 0-47.267537-38.455847-85.723384-85.723384-85.723384L287.708166 640.0944c-69.845765 0-126.668934-56.822147-126.668934-126.667911 0-69.833485 56.82317-126.646422 126.668934-126.646422l451.401854 0c47.267537 0 85.723384-38.465057 85.723384-85.745896 0-47.26856-38.455847-85.72543-85.723384-85.72543-11.30344 0-20.466124-9.163707-20.466124-20.466124 0-11.30344 9.162684-20.466124 20.466124-20.466124 69.838601 0 126.655631 56.818053 126.655631 126.657678 0 69.850881-56.81703 126.678144-126.655631 126.678144L287.708166 427.712315c-47.275723 0-85.736687 38.451754-85.736687 85.714174 0 47.2747 38.460963 85.735663 85.736687 85.735663l451.401854 0c69.838601 0 126.655631 56.81703 126.655631 126.655631C865.766674 795.656385 808.948621 852.475462 739.110019 852.475462z" p-id="20252"></path>
	<path d="M739.006665 318.885747 181.505355 318.885747c-11.30344 0-20.466124-9.163707-20.466124-20.466124s9.162684-20.466124 20.466124-20.466124l557.50131 0c11.30344 0 20.466124 9.163707 20.466124 20.466124S750.310106 318.885747 739.006665 318.885747z" p-id="20253"></path>
	<path d="M845.30055 533.903869 421.480892 533.903869c-11.30344 0-20.466124-9.163707-20.466124-20.466124s9.162684-20.466124 20.466124-20.466124l423.819658 0c11.30344 0 20.466124 9.162684 20.466124 20.466124S856.60399 533.903869 845.30055 533.903869z" p-id="20254"></path>
	<path d="M739.006665 746.453776 181.505355 746.453776c-11.30344 0-20.466124-9.162684-20.466124-20.466124s9.162684-20.466124 20.466124-20.466124l557.50131 0c11.30344 0 20.466124 9.162684 20.466124 20.466124S750.310106 746.453776 739.006665 746.453776z" p-id="20255"></path>
</svg>