<?xml version="1.0" standalone="no"?><!DOCTYPE svg PUBLIC "-//W3C//DTD SVG 1.1//EN" "http://www.w3.org/Graphics/SVG/1.1/DTD/svg11.dtd">
<svg t="1515466694287" class="icon" style="" viewBox="0 0 1024 1024" version="1.1" xmlns="http://www.w3.org/2000/svg" p-id="17100" xmlns:xlink="http://www.w3.org/1999/xlink" width="100" height="100">
	<defs>
		<style type="text/css"></style>
	</defs>
	<path d="M501.76 1003.52c-276.48 0-501.76-225.28-501.76-501.76 0-175.104 89.088-334.848 238.08-427.008 78.848-49.152 169.984-74.752 263.68-74.752 276.48 0 501.76 225.28 501.76 501.76s-225.28 501.76-501.76 501.76z m0-972.8c-87.552 0-173.056 24.064-247.296 70.144-139.776 86.528-223.744 236.544-223.744 400.896 0 259.584 211.456 471.04 471.04 471.04s471.04-211.456 471.04-471.04-211.456-471.04-471.04-471.04z" p-id="17101"></path>
	<path d="M501.76 798.72c-163.84 0-296.96-133.12-296.96-296.96s133.12-296.96 296.96-296.96 296.96 133.12 296.96 296.96-133.12 296.96-296.96 296.96z m0-552.96c-141.312 0-256 114.688-256 256s114.688 256 256 256 256-114.688 256-256-114.688-256-256-256z" p-id="17102"></path>
	<path d="M454.144 505.344v56.32c0 8.704-7.168 15.872-15.872 15.872h-0.512c-8.704 0-15.872-7.168-15.872-15.872v-56.32c0-8.704 7.168-15.872 15.872-15.872h0.512c8.704 0 15.872 7.168 15.872 15.872zM593.92 683.52h-183.296c-8.704 0-15.872-7.168-15.872-15.872v-0.512c0-8.704 7.168-15.872 15.872-15.872h183.296c8.704 0 15.872 7.168 15.872 15.872v0.512c0.512 8.704-6.656 15.872-15.872 15.872z" p-id="17103"></path>
	<path d="M650.24 611.84h-302.592c-7.168 0-13.312-6.144-13.312-13.312 0-7.168 6.144-13.312 13.312-13.312h302.592c7.168 0 13.312 6.144 13.312 13.312 0 7.168-6.144 13.312-13.312 13.312z m-262.656-33.792c6.656 0 11.776-5.12 11.776-11.776v-64.512c0-19.456 7.68-100.352 101.376-100.352s96.768 80.384 96.768 100.352v64.512c0 6.656 5.12 11.776 11.776 11.776 6.656 0 11.776-5.12 11.776-11.776v-72.192c0-24.576-6.144-114.688-119.808-114.688s-124.416 91.136-124.416 114.688v72.192c-0.512 6.656 4.608 11.776 10.752 11.776z m110.08-230.912c-6.656 0-12.288-5.632-12.288-12.288v-36.352c0-6.656 5.632-12.288 12.288-12.288 6.656 0 12.288 5.632 12.288 12.288v36.352c0 6.656-5.632 12.288-12.288 12.288z m-133.12 116.224c0 6.656-5.632 12.288-12.288 12.288h-36.352c-6.656 0-12.288-5.632-12.288-12.288 0-6.656 5.632-12.288 12.288-12.288h36.352c6.656 0 12.288 5.632 12.288 12.288z m328.704 0c0 6.656-5.632 12.288-12.288 12.288h-36.352c-6.656 0-12.288-5.632-12.288-12.288 0-6.656 5.632-12.288 12.288-12.288h36.352c6.656 0 12.288 5.632 12.288 12.288z m-286.72-87.04c-4.608 4.608-12.8 4.608-17.408 0l-25.6-25.6c-4.608-4.608-4.608-12.8 0-17.408 4.608-4.608 12.8-4.608 17.408 0l25.6 25.6c4.608 4.608 4.608 12.288 0 17.408z m178.176 0c4.608 4.608 12.8 4.608 17.408 0l25.6-25.6c4.608-4.608 4.608-12.8 0-17.408-4.608-4.608-12.8-4.608-17.408 0l-25.6 25.6c-5.12 4.608-5.12 12.288 0 17.408z" p-id="17104"></path>
</svg>