<?xml version="1.0" standalone="no"?><!DOCTYPE svg PUBLIC "-//W3C//DTD SVG 1.1//EN" "http://www.w3.org/Graphics/SVG/1.1/DTD/svg11.dtd">
<svg t="1515812212524" class="icon" style="" viewBox="0 0 1024 1024" version="1.1" xmlns="http://www.w3.org/2000/svg" p-id="5003" xmlns:xlink="http://www.w3.org/1999/xlink" width="100" height="100">
	<defs>
		<style type="text/css"></style>
	</defs>
	<path d="M511.333 142.545c49.917 0 98.3 9.759 143.803 29.005 43.991 18.606 83.515 45.26 117.475 79.22 33.96 33.96 60.613 73.484 79.22 117.475 19.247 45.504 29.005 93.886 29.005 143.804s-9.759 98.299-29.005 143.804c-18.607 43.991-45.26 83.515-79.22 117.475-33.96 33.96-73.485 60.613-117.475 79.22-45.504 19.247-93.886 29.005-143.803 29.005s-98.3-9.759-143.803-29.005c-43.991-18.606-83.515-45.26-117.475-79.22-33.96-33.96-60.613-73.484-79.22-117.475-19.247-45.504-29.005-93.886-29.005-143.804s9.759-98.299 29.005-143.804c18.607-43.991 45.26-83.515 79.22-117.475 33.96-33.96 73.485-60.613 117.475-79.22 45.504-19.246 93.886-29.005 143.803-29.005m0-78.496c-247.423 0-448 200.576-448 448s200.577 448 448 448 448-200.576 448-448-200.576-448-448-448z" p-id="5004"></path>
	<path d="M511.165 568.496c30.138 0 54.527-24.435 54.527-54.527 0-30.154-24.39-54.527-54.527-54.527-30.121 0-54.556 24.376-54.556 54.527-0.004 30.092 24.435 54.527 54.556 54.527zM740.275 615.968c-39.896-29.584-91.839-64.232-140.489-93.309-2.155-1.28-4.656-1.37-6.859-0.328-2.174 0.982-3.707 3.007-4.108 5.447-3.156 19.287-13.423 35.898-28.1 47.652-1.873 1.519-2.978 3.959-2.708 6.311 0.136 2.41 1.578 4.643 3.735 5.865 93.594 51.64 204.228 106.823 235.871 107.626 3.509-0.116 8.168-0.563 11.531-5.297 1.102-2.112 1.445-3.989 1.445-5.534-2.766-17.803-30.137-37.119-70.318-68.433zM483.441 440.292c8.748-3.333 18.033-5.359 27.678-5.359 9.674 0 18.944 2.025 27.727 5.359a7.195 7.195 0 0 0 2.602 0.473c1.49 0 2.964-0.415 4.199-1.338 1.996-1.399 3.127-3.69 3.127-6.13-0.894-58.933-4.588-119.811-10.005-166.123-2.66-23.246-5.832-42.741-9.46-56.851-4.704-13.543-4.513-23.9-18.189-26.89-13.558 2.99-13.451 13.348-18.185 26.89-10.566 42.148-18.021 134.365-19.407 222.973 0 2.44 1.118 4.734 3.156 6.13 1.965 1.43 4.464 1.698 6.757 0.866zM462.085 579.864c0.27-2.41-0.758-4.821-2.589-6.337-14.226-12.118-23.991-29.082-26.638-48.488a7.195 7.195 0 0 0-4.079-5.595c-2.219-1.102-4.883-1.011-6.875 0.298-49.081 29.227-100.395 62.744-139.595 91.139-39.41 30.005-65.974 48.099-68.815 65.9-0.091 1.396 0.298 3.658 1.561 5.534l0.017-0.029c3.483 5.148 8.362 5.359 12.04 5.417 31.861-0.713 138.243-50.895 231.225-102.122 2.08-1.224 3.479-3.365 3.748-5.717z" p-id="5005"></path>
</svg>