<?xml version="1.0" standalone="no"?><!DOCTYPE svg PUBLIC "-//W3C//DTD SVG 1.1//EN" "http://www.w3.org/Graphics/SVG/1.1/DTD/svg11.dtd">
<svg t="1515464166288" class="icon" style="" viewBox="0 0 1024 1024" version="1.1" xmlns="http://www.w3.org/2000/svg" p-id="4297" xmlns:xlink="http://www.w3.org/1999/xlink" width="100" height="100">
	<defs>
		<style type="text/css"></style>
	</defs>
	<path d="M512 57.586854c251.153722 0 454.782657 203.628935 454.782657 454.782657 0 251.153722-203.628935 454.782657-454.782657 454.782657-251.153722 0-454.782657-203.628935-454.782657-454.782657C57.217343 261.215789 260.846278 57.586854 512 57.586854M512 0.739022c-282.135791 0-511.630489 229.494698-511.630489 511.630489s229.494698 511.630489 511.630489 511.630489 511.630489-229.494698 511.630489-511.630489S794.135791 0.739022 512 0.739022L512 0.739022z" p-id="4298"></path>
	<path d="M809.655249 331.7071l-213.17937 0 0 474.679398L473.911952 806.386499l0-474.679398L260.732582 331.7071 260.732582 272.414812l548.922667 0L809.655249 331.7071z" p-id="4299"></path>
</svg>