<?xml version="1.0" standalone="no"?><!DOCTYPE svg PUBLIC "-//W3C//DTD SVG 1.1//EN" "http://www.w3.org/Graphics/SVG/1.1/DTD/svg11.dtd"><svg t="1523951407948" class="icon" style="" viewBox="0 0 1030 1024" version="1.1" xmlns="http://www.w3.org/2000/svg" p-id="3845" xmlns:xlink="http://www.w3.org/1999/xlink" width="128.75" height="128"><defs><style type="text/css"></style></defs><path d="M494.570802 448.813253h33.089939V51.717172h-33.089939c-109.654626 0-198.547394 88.892768-198.547394 198.547394S384.914883 448.813253 494.570802 448.813253z m0-364.004849v330.913616c-91.379071 0-165.457455-74.078384-165.457455-165.456161S403.191731 84.808404 494.570802 84.808404z" fill="#d81e06" p-id="3846"></path><path d="M588.81759 451.029333c-45.689535-79.137616-18.576808-180.328727 60.560808-226.016969 79.137616-45.689535 180.328727-18.575515 226.01697 60.560808L560.158519 467.574949l16.545616 28.657778 343.893334-198.547394-16.545617-28.657777c-54.82796-94.964364-176.257293-127.500929-271.220363-72.67297-94.964364 54.82796-127.500929 176.257293-72.67297 271.221656l28.659071-16.546909z" fill="#d81e06" p-id="3847"></path><path d="M847.925792 461.084444c-94.963071-54.82796-216.392404-22.290101-271.220364 72.67297l-16.545616 28.657778 343.893333 198.546101 16.545616-28.657778-315.235555-182.000485c45.688242-79.13503 146.880646-106.250343 226.01697-60.560808 79.136323 45.689535 106.251636 146.880646 60.560808 226.01697l28.657777 16.545616c54.82796-94.963071 22.291394-216.393697-72.672969-271.220364z" fill="#d81e06" p-id="3848"></path><path d="M527.660741 581.178182h-33.089939v397.096081h33.089939c109.655919 0 198.547394-88.892768 198.547394-198.546101 0.001293-109.655919-88.891475-198.54998-198.547394-198.54998z m0 364.004848V614.269414c91.380364 0 165.458747 74.078384 165.458748 165.458748 0 91.377778-74.078384 165.454869-165.458748 165.454868z" fill="#d81e06" p-id="3849"></path><path d="M445.527408 533.757414L101.632782 732.306101l16.545616 28.657778L433.415246 578.960808c45.689535 79.137616 18.575515 180.328727-60.560808 226.018263-79.137616 45.690828-180.328727 18.575515-226.016969-60.560808l-28.657778 16.545616c54.82796 94.964364 176.257293 127.500929 271.221656 72.672969 94.964364-54.826667 127.500929-176.256 72.67297-271.220363l-16.546909-28.659071z" fill="#d81e06" p-id="3850"></path><path d="M174.305751 568.90699c94.964364 54.82796 216.393697 22.290101 271.221657-72.67297l-28.657778-16.545616c-45.688242 79.13503-146.880646 106.250343-226.01697 60.560808s-106.250343-146.880646-60.560808-226.01697L101.634075 297.686626c-54.829253 94.963071-22.291394 216.392404 72.671676 271.220364zM130.290559 314.230949L445.527408 496.23402l16.545616-28.659071L118.178398 269.027556l-16.545616 28.657777 28.657777 16.545616z" fill="#d81e06" p-id="3851"></path><path d="M513.298883 0C230.27666 0 0.009832 229.536323 0.009832 511.675475c0 282.137859 230.266828 511.675475 513.289051 511.675474 283.018343 0 513.291636-229.537616 513.291636-511.675474C1026.590519 229.536323 796.318519 0 513.298883 0z m0 988.060444c-263.504162 0-477.886061-213.709576-477.886061-476.384969 0-262.676687 214.381899-476.382384 477.886061-476.382384 263.50804 0 477.886061 213.70699 477.88606 476.382384S776.806923 988.060444 513.298883 988.060444z" fill="#d81e06" p-id="3852"></path></svg>