<?xml version="1.0" standalone="no"?><!DOCTYPE svg PUBLIC "-//W3C//DTD SVG 1.1//EN" "http://www.w3.org/Graphics/SVG/1.1/DTD/svg11.dtd"><svg t="1523951539044" class="icon" style="" viewBox="0 0 1024 1024" version="1.1" xmlns="http://www.w3.org/2000/svg" p-id="5035" xmlns:xlink="http://www.w3.org/1999/xlink" width="128" height="128"><defs><style type="text/css"></style></defs><path d="M786.310834 1024h-548.621668A79.292243 79.292243 0 0 1 158.490704 944.801539V79.198461A79.292243 79.292243 0 0 1 237.689166 0h548.621668a79.292243 79.292243 0 0 1 79.198462 79.198461v865.603078a79.292243 79.292243 0 0 1-79.198462 79.198461zM237.689166 62.520988a16.896297 16.896297 0 0 0-16.677474 16.677473v865.603078a16.896297 16.896297 0 0 0 16.677474 16.677473h548.621668a16.896297 16.896297 0 0 0 16.677474-16.677473V79.198461A16.896297 16.896297 0 0 0 786.310834 62.520988z" p-id="5036" fill="#d81e06"></path><path d="M293.410996 88.936105h437.600025v62.520988H293.410996zM809.803096 746.844461H214.071863v-62.520988h595.731233v62.520988zM291.254022 187.406661h62.520988v429.315994h-62.520988zM416.921208 187.406661h62.520988v429.315994h-62.520988zM542.588393 187.406661h62.520988v429.315994h-62.520988zM668.255579 186.67204h62.520988V615.988033h-62.520988z" p-id="5037" fill="#d81e06"></path><path d="M509.48353 962.776323a322.13939 322.13939 0 0 1-311.166956-239.142779l60.426534-16.036633a259.4621 259.4621 0 0 0 498.604879 10.1284q0.65647-2.110083 1.26605-4.220167l60.020148 17.474616q-0.765882 2.625881-1.563025 5.236133a324.593339 324.593339 0 0 1-114.772903 162.554568 319.216534 319.216534 0 0 1-192.814727 64.005862z" p-id="5038" fill="#d81e06"></path><path d="M474.925054 725.352871h62.520988v94.562994h-62.520988z" p-id="5039" fill="#d81e06"></path><path d="M507.107733 850.707452m-49.547883 0a49.547883 49.547883 0 1 0 99.095766 0 49.547883 49.547883 0 1 0-99.095766 0Z" p-id="5040" fill="#d81e06"></path></svg>