<?xml version="1.0" standalone="no"?><!DOCTYPE svg PUBLIC "-//W3C//DTD SVG 1.1//EN" "http://www.w3.org/Graphics/SVG/1.1/DTD/svg11.dtd"><svg t="1523951196031" class="icon" style="" viewBox="0 0 1024 1024" version="1.1" xmlns="http://www.w3.org/2000/svg" p-id="2611" xmlns:xlink="http://www.w3.org/1999/xlink" width="128" height="128"><defs><style type="text/css"></style></defs><path d="M511.952979 1023.896979a505.462446 505.462446 0 0 1-198.72418-40.381232c-60.914463-25.881164-115.693372-62.891387-162.824501-110.022515-47.131128-47.131128-84.141351-101.902162-110.022514-162.8245a505.462446 505.462446 0 0 1-40.381233-198.72418c0-85.708713 24.227164-176.592083 68.223569-255.928957 4.891115-7.923448 14.956887-13.657316 23.998754-13.657316 1.8194 0 5.245543 0.275667 7.679287 2.095067 9.774353 7.332734 15.421582 22.352631 7.954953 34.797013l-0.275667 0.456819-0.252038 0.472571C67.412872 355.019318 47.17106 433.009363 47.17106 511.944552c0 256.283385 208.498533 464.781919 464.781919 464.781918s464.781919-208.498533 464.781919-464.781918-208.498533-464.781919-464.781919-464.781919c-78.943064 0-156.925233 20.241811-231.780554 60.166224l-0.464696 0.252039-0.448943 0.26779c-4.938372 2.961448-10.191791 4.52881-15.208925 4.52881-7.293353 0-13.342268-3.229238-17.532401-9.349039-3.922343-11.192068-3.709686-26.692412 9.498686-34.804889 79.328998-43.996404 170.212368-68.223568 255.928957-68.223568a505.430941 505.430941 0 0 1 198.72418 40.381232c60.906587 25.873288 115.693372 62.891387 162.824501 110.022515 47.123252 47.123252 84.141351 101.902162 110.022515 162.824501 26.794802 63.072539 40.381232 129.933526 40.381232 198.72418s-13.58643 135.659517-40.381232 198.72418c-25.881164 60.914463-62.891387 115.693372-110.022515 162.824501-47.131128 47.131128-101.910038 84.141351-162.824501 110.022514a505.525456 505.525456 0 0 1-198.716304 40.373356z" p-id="2612" fill="#d81e06"></path><path d="M407.105122 487.56774H261.151423V315.851019H223.991553v418.162743h37.15987V536.919954h145.953699v197.093808h37.15987V315.851019h-37.15987v171.716721z m106.746019 207.009933c3.000829-4.709962 9.790106-13.673068 20.359955-26.889317 12.657039-15.941411 21.714659-28.480307 27.164983-37.616689 5.442448-9.128506 9.349039-17.831697 11.696144-26.093821s3.520657-16.666021 3.520657-25.219564c0-16.815668-4.016858-30.91405-12.03482-42.279395-8.033715-11.365344-18.926487-17.05983-32.694069-17.05983-13.641563 0-24.510707 5.269172-32.599556 15.815392s-12.75943 25.873288-13.995992 45.996957l18.107364 2.772419c0.06301-13.413154 2.638524-23.90424 7.73442-31.489013 5.08802-7.584772 11.877296-11.365344 20.359954-11.365343 8.025839 0 14.539449 3.567915 19.525078 10.71162 4.993505 7.135829 7.490258 15.917782 7.490258 26.314354 0 9.916125-2.748791 20.438716-8.23062 31.559899-5.473953 11.129058-16.020173 26.21984-31.615031 45.26447-10.05002 12.255354-17.737183 23.037859-23.053612 32.36327a112.479886 112.479886 0 0 0-11.60163 28.425174 66.923997 66.923997 0 0 0-2.055686 18.21763h94.852971v-25.219564h-70.381645c1.969048-4.749343 4.450048-9.49081 7.450877-14.208649zM816.832464 556.452908c-7.789553-17.209478-19.855878-31.426003-36.198975-42.649575-11.247201-7.600525-31.961584-16.492744-62.1589-26.668784-30.205193-10.168163-48.879643-20.107916-56.023348-29.811383-7.285477-9.695591-10.924277-22.053335-10.924278-37.081108 0-17.303992 5.135277-32.087603 15.421583-44.350833 10.27843-12.271106 26.653031-18.398783 49.123804-18.398783 21.580764 0 37.900232 6.749896 48.942652 20.249688 11.04242 13.499792 17.524525 33.473813 19.43844 59.898434l35.624013-3.993229c-0.637971-24.526459-5.237667-46.493157-13.791211-65.892216s-20.785269-34.088156-36.671546-44.067289c-15.90203-9.98701-34.261432-14.972639-55.070329-14.97264-18.894983 0-36.072956 4.757219-51.526043 14.271659-15.453087 9.514439-27.196488 23.439545-35.245955 41.79107-8.041591 18.359402-12.058449 38.081384-12.058449 59.189577 0 19.21003 3.284372 36.56128 9.860991 52.061624a96.373075 96.373075 0 0 0 29.976784 38.932013c10.341439 8.175486 28.409422 16.878678 54.211824 26.093821 25.78665 9.230896 42.452671 16.020173 49.990186 20.399335 11.743401 6.663258 20.178802 14.886001 25.282573 24.676107 5.103772 9.790106 7.663534 21.249964 7.663534 34.371699 0 12.932706-2.6464 24.857259-7.947077 35.797289s-13.373773 19.532954-24.227164 25.810278c-10.861268 6.277324-23.368659 9.412048-37.545803 9.412049-15.96504 0-30.331212-4.135-43.098518-12.405001-12.775182-8.277877-22.187231-19.115516-28.251898-32.520794-6.072543-13.405277-9.931877-30.567498-11.593754-51.486662l-35.04905 4.560315c0.504076 27.960479 5.655105 53.006767 15.421582 75.162493 9.766477 22.155726 23.234764 38.750861 40.412737 49.777528 17.177973 11.018791 38.467318 16.547878 63.875911 16.547878 20.044907 0 38.081384-5.466077 54.109433-16.406106 16.020173-10.932153 28.314907-26.243469 36.876327-45.926071 8.553544-19.674726 12.830315-40.641147 12.830316-62.891387 0.007876-22.447145-3.898715-42.263642-11.680392-59.480996z" p-id="2613" fill="#d81e06"></path></svg>