<?xml version="1.0" standalone="no"?><!DOCTYPE svg PUBLIC "-//W3C//DTD SVG 1.1//EN" "http://www.w3.org/Graphics/SVG/1.1/DTD/svg11.dtd">
<svg t="1515466413531" class="icon" style="" viewBox="0 0 1024 1024" version="1.1" xmlns="http://www.w3.org/2000/svg" p-id="15785" xmlns:xlink="http://www.w3.org/1999/xlink" width="100" height="100">
	<defs>
		<style type="text/css"></style>
	</defs>
	<path d="M517.12 10.24C240.64 10.24 15.36 235.52 15.36 512s225.28 501.76 501.76 501.76 501.76-225.28 501.76-501.76-225.28-501.76-501.76-501.76z m436.224 501.76c0 240.64-195.584 436.736-436.224 436.736S80.896 753.152 80.896 512c0-240.64 195.584-436.736 436.224-436.736S953.344 271.36 953.344 512z" p-id="15786"></path>
	<path d="M880.128 484.352c-4.096-3.584-10.24-6.144-15.872-6.144h-114.176l-41.984-118.272c-3.584-11.264-15.36-17.408-27.136-15.36l-24.064 0.512c-10.752-2.048-20.992 4.608-24.576 16.384l-56.32 238.592L496.64 256v-0.512c-3.072-10.752-14.848-17.408-26.624-14.848h-31.232c-12.8 0-19.456 9.216-20.992 14.336L358.4 528.384 345.088 491.52c-4.608-14.336-19.968-13.824-26.624-13.312l-148.48 0.512c-12.8 0-23.04 9.728-23.04 21.504v26.624c0 11.776 10.24 21.504 23.04 21.504h113.664l41.984 116.224c3.584 10.752 15.36 17.408 27.648 15.36l22.016-0.512c11.776 2.048 24.064-5.632 27.648-16.384L461.312 419.84l79.872 348.16v0.512c3.072 9.216 11.776 15.36 21.504 15.36 1.536 0 3.072 0 4.608-0.512h24.576c11.264 0 17.408-11.264 18.944-22.016l64-265.728 13.312 37.376c3.584 10.752 14.848 17.408 27.136 15.36h148.48c6.144 0 11.776-2.048 15.872-6.144 4.608-4.096 7.168-9.728 7.168-15.36v-26.624c0.512-6.144-2.048-11.776-6.656-15.872z" p-id="15787"></path>
</svg>