<?xml version="1.0" standalone="no"?><!DOCTYPE svg PUBLIC "-//W3C//DTD SVG 1.1//EN" "http://www.w3.org/Graphics/SVG/1.1/DTD/svg11.dtd">
<svg t="1515634413287" class="icon" style="" viewBox="0 0 1024 1024" version="1.1" xmlns="http://www.w3.org/2000/svg" p-id="8843" xmlns:xlink="http://www.w3.org/1999/xlink" width="100" height="100">
	<defs>
		<style type="text/css"></style>
	</defs>
	<path d="M510.976182 957.065542c-246.831688 0-446.928982-199.951985-446.928982-446.607664s200.097294-446.607664 446.928982-446.607664 446.928982 199.951985 446.928982 446.607664S757.80787 957.065542 510.976182 957.065542zM754.436076 682.329317l-215.211527-424.981111c-7.848759-15.637142-23.091928-25.998117-40.074717-25.998117-17.032932-0.025583-32.258705 10.386558-40.108486 25.978674L352.824209 457.590809 247.801271 457.590809c-4.26821 0-8.443299 1.809205-11.461029 4.993734-3.00852 3.15997-4.742001 7.544837-4.742001 12.019755l0 270.041296c0 4.474918 1.733481 8.856715 4.742001 12.031011 3.01773 3.15997 7.192819 4.982478 11.461029 4.982478l247.471254 0 46.905286 0 173.866886 0 0.130983 0c26.484188-0.214894 45.984311-23.879873 46.028313-51.013861C762.203994 700.246385 759.34283 690.485067 754.436076 682.329317zM716.178751 727.643362l-0.134053 0-157.660786 0L558.383912 474.603275c0-4.474918-1.747807-8.859785-4.751211-12.019755-3.00852-3.168156-7.184633-4.993734-11.455913-4.993734L389.886313 457.589786l97.586572-184.004781c2.947122-5.685489 7.355525-8.234545 11.675924-8.262174 4.250814 0 8.722662 2.596128 11.480472 7.960299l215.547171 425.687192 0.753153 1.314948c1.783623 2.869351 2.883677 6.402827 2.883677 10.358929C729.724255 721.058386 722.62865 727.632105 716.178751 727.643362zM525.978874 557.384653 263.993045 557.384653l0-65.793472 261.98583 0L525.978874 557.384653zM525.978874 666.089447l0 61.542658L263.993045 727.632105l0-61.542658L525.978874 666.089447zM525.978874 645.687792 263.993045 645.687792l0-67.903529 261.98583 0L525.978874 645.687792z" p-id="8844"></path>
</svg>