<?xml version="1.0" standalone="no"?><!DOCTYPE svg PUBLIC "-//W3C//DTD SVG 1.1//EN" "http://www.w3.org/Graphics/SVG/1.1/DTD/svg11.dtd">
<svg t="1515464611747" class="icon" style="" viewBox="0 0 1024 1024" version="1.1" xmlns="http://www.w3.org/2000/svg" p-id="11423" xmlns:xlink="http://www.w3.org/1999/xlink" width="100" height="100">
	<defs>
		<style type="text/css"></style>
	</defs>
	<path d="M883.75808 472.0384c3.75808 40.48896-196.10112 92.51328-246.91712 208.04608-39.22432 89.01632 10.39872 165.16096 61.71136 202.05568-100.16768 144.36864-103.93088 113.72544-111.19104 122.31168l55.7824 11.58656s95.86688-160.19968 105.59488-176.95232c-0.35328-0.35328-25.81504-23.39328-47.10912-50.23232-5.31456-6.77376-10.39872-13.68576-14.71488-20.56704-4.25984-6.84032-7.936-13.51168-10.15296-19.61472-1.21344-3.02592-2.28864-5.77024-2.67776-8.40192-0.47616-2.58048-1.26464-4.75648-1.12128-6.69696 0.03072-3.69664 0.01024-5.83168 0.01024-5.83168l0.7424 5.76c-0.01536 1.85856 1.08544 3.91168 1.82272 6.37952 0.66048 2.44736 2.04288 4.98688 3.52768 7.73632 2.85184 5.6064 7.12192 11.5968 12.05248 17.71008 4.87936 6.12352 10.65984 12.2624 16.55296 18.2016 11.93472 11.82208 24.81664 22.62528 34.67776 30.45888a443.8528 443.8528 0 0 0 14.47936 11.02848 2004.91008 2004.91008 0 0 0 29.79328-54.25664l-0.24064 0.31232s-19.69664-17.81248-36.11136-38.45632c-4.03968-5.25312-7.99232-10.51136-11.25888-15.78496-3.3024-5.27872-6.09792-10.35776-7.79264-15.01696-0.91648-2.33472-1.70496-4.43392-2.03776-6.44608-0.384-1.95072-0.98304-3.61984-0.86016-5.09952 0.01024-2.85184 0-4.50048 0-4.50048l0.54784 4.48c-0.01536 1.41824 0.84992 2.97472 1.38752 4.84864 0.49152 1.88928 1.55136 3.79392 2.69312 5.9648 2.176 4.26496 5.46816 8.84224 9.20064 13.50656 3.76832 4.6848 8.17664 9.37472 12.67712 13.94688 9.15968 9.03168 19.01056 17.28512 26.55232 23.30112 3.51744 2.80576 7.09632 5.5296 10.73664 8.17664a1702.83008 1702.83008 0 0 0 31.7184-64.4352l-1.07008 1.39264s-15.79008-14.24896-28.91264-30.79168a146.91328 146.91328 0 0 1-8.9856-12.60032c-2.62656-4.17792-4.89472-8.29952-6.23104-11.99104-0.72192-1.85856-1.37728-3.54304-1.61792-5.17632-0.31232-1.58208-0.80384-2.90816-0.68608-4.09088 0.02048-2.27328-0.01536-3.59424-0.01536-3.59424s0.1536 1.35168 0.44544 3.57376c-0.01536 1.10592 0.66048 2.40128 1.11104 3.86048 0.44032 1.50016 1.27488 3.05664 2.18112 4.75136 1.7152 3.46624 4.3776 7.10656 7.37792 10.84416a149.504 149.504 0 0 0 10.12736 11.16672c7.31648 7.22944 15.18592 13.81888 21.21216 18.60096 2.83136 2.24768 5.69856 4.43904 8.61184 6.56896a1.26976 1.26976 0 0 1 0.18944-0.41472s7.17312-15.54944 10.42944-23.00416c33.3312-75.61728 20.82304-43.65824-5.64736 21.73952 3.08736-0.1536 6.1696-0.36352 9.24672-0.61952 8.46848-0.6656 19.81952-1.89952 30.9248-4.06016 5.5296-1.14688 11.07968-2.4064 16.12288-4.01408 5.04832-1.6128 9.7024-3.34336 13.45536-5.39648 1.8432-1.00864 3.57888-1.92 4.88448-3.06688 1.32096-1.09568 2.7136-1.84832 3.42016-2.8672 1.64864-1.89952 2.56-2.97472 2.56-2.97472l-2.21696 3.28192c-0.59392 1.16736-1.8688 2.07872-3.11808 3.34336-1.19808 1.34144-2.86208 2.48832-4.66432 3.73248-3.54816 2.57536-8.08448 4.95104-13.07648 7.18336-4.98176 2.28864-10.45504 4.23424-16.00512 6.10304-22.21568 7.10144-45.39392 10.51136-45.39392 10.51136l-0.11776-1.3056a16643.10784 16643.10784 0 0 1-23.5264 57.78944c3.07712-0.1536 6.15424-0.3584 9.23136-0.60928 10.92096-0.91648 25.53344-2.47296 39.86944-5.23264 7.17824-1.4848 14.34112-3.13856 20.864-5.1968 6.5024-2.06336 12.5184-4.29568 17.28-6.96832 2.42176-1.26976 4.6592-2.4576 6.33344-3.92704 1.72544-1.42848 3.50208-2.38592 4.4032-3.70688 2.0992-2.46272 3.34336-3.83488 3.34336-3.83488l-2.86208 4.23936c-0.7936 1.49504-2.41152 2.64704-4.02432 4.32128-1.58208 1.72544-3.67616 3.18976-6.01088 4.8128-4.54144 3.34336-10.45504 6.35392-16.86528 9.27744-6.44608 2.91328-13.4656 5.42208-20.62848 7.8336-24.51968 7.84384-49.81248 12.16-56.63744 13.24032-7.68 18.85696-18.70336 38.016-26.24 56.61696 2.98496-0.15872 9.5744-0.3584 13.5424-0.68096 12.54912-1.01376 29.28128-2.82624 45.75744-6.03648 8.18688-1.67936 16.4096-3.57376 23.87456-5.91872 7.45984-2.35008 14.36672-4.9408 19.84-8.0128 2.77504-1.47968 5.34016-2.85184 7.26528-4.52608 1.95072-1.54112 3.99872-2.688 5.04832-4.23424 2.44736-2.78016 3.82464-4.39808 3.82464-4.39808s-1.20832 1.73568-3.29728 4.84864c-0.90112 1.68448-2.7904 3.0464-4.62336 4.93056-1.77664 1.98144-4.19328 3.6608-6.87616 5.51936-5.248 3.8144-12.00128 7.33696-19.35872 10.624-7.3984 3.3792-15.5136 6.2464-23.68 8.96512-27.81184 8.92416-60.60032 12.18048-68.80768 13.5424-8.67328 21.48352-23.96672 43.31008-30.82752 60.65664 66.35008 24.43264 180.8384 30.24896 227.87584-76.67712 50.816-115.58912-82.41664-391.95136-78.70464-351.4624z" p-id="11424"></path>
	<path d="M69.94432 687.88736V76.8h885.45792v442.30656c26.72128 5.66784 50.19648 16.19456 58.94656 21.13024V58.01984c0-24.8576-18.4576-44.93312-41.37472-44.93312H52.21376c-22.912 0-41.37472 20.08064-41.37472 44.93312v663.62368s0 35.45088 67.01056 29.68064l512.18944 0.96768-31.52384-64.4608-488.57088 0.05632z" p-id="11425"></path>
	<path d="M566.33856 365.09696c0 16.86528-1.93536 32.128-5.79584 45.78304-3.8656 13.65504-9.65632 25.29792-17.3824 34.92864-7.7312 9.63072-17.46432 17.05984-29.21984 22.28224s-25.46176 7.8336-41.13408 7.8336-29.1328-2.47808-40.3968-7.42912-20.51072-12.02176-27.74528-21.21728c-7.23968-9.19552-12.5696-20.4288-16-33.70496-3.42528-13.27104-5.14048-28.2368-5.14048-44.88704 0-16.5376 1.90464-31.55456 5.71392-45.05088 3.80928-13.4912 9.6-24.99584 17.3824-34.52416 7.7824-9.51808 17.52064-16.89088 29.21984-22.11328 11.69408-5.22752 25.43616-7.8336 41.216-7.8336 15.34464 0 28.61568 2.44736 39.82336 7.3472 11.20256 4.89472 20.48512 11.91424 27.83232 21.05344s12.78464 20.23936 16.32256 33.29536 5.30432 27.80672 5.30432 44.2368z m-21.21728 1.792c0-12.51328-1.17248-24.23808-3.51232-35.1744-2.33984-10.93632-6.20032-20.45952-11.58656-28.56448-5.39136-8.10496-12.544-14.46912-21.46304-19.0976-8.92416-4.62336-19.968-6.93248-33.13152-6.93248-13.056 0-24.07424 2.42176-33.05472 7.26016-8.97536 4.84352-16.27136 11.34592-21.87264 19.5072-5.6064 8.16128-9.63072 17.68448-12.07808 28.56448-2.44736 10.88-3.67104 22.35904-3.67104 34.44224 0 12.84096 1.11616 24.7808 3.34848 35.82976 2.2272 11.04384 6.01088 20.64896 11.3408 28.80512 5.33504 8.16128 12.46208 14.55616 21.38112 19.17952s20.07552 6.9376 33.46432 6.9376c13.27104 0 24.42752-2.47296 33.4592-7.42912 9.03168-4.95104 16.32256-11.59168 21.86752-19.91168 5.55008-8.32512 9.51808-17.95584 11.91424-28.89216 2.39616-10.93632 3.59424-22.44608 3.59424-34.52416zM638.53568 471.88992c0 0.6144-0.06656 1.19296-0.18944 1.73568-0.128 0.5376-0.31232 1.00352-0.5376 1.38752s-0.53248 0.68096-0.88576 0.88576a2.45248 2.45248 0 0 1-1.23392 0.3072h-53.90848a3.71712 3.71712 0 0 1-1.31072-0.2304 2.83648 2.83648 0 0 1-1.77152-2.07872 7.68 7.68 0 0 1-0.23552-2.00704c0-0.67072 0.0256-1.25952 0.08192-1.77664a5.5808 5.5808 0 0 1 0.92672-2.62144c0.256-0.4096 0.5888-0.84992 0.9984-1.31072l20.43904-21.59616c5.08928-5.34528 9.13408-10.12736 12.14464-14.34112 3.00544-4.21376 5.30432-8.01792 6.90176-11.41248 1.59744-3.39456 2.6368-6.4768 3.1232-9.25184 0.49152-2.77504 0.73728-5.4016 0.73728-7.86944s-0.39936-4.81792-1.19808-7.05536a16.88576 16.88576 0 0 0-3.5072-5.8624 17.0752 17.0752 0 0 0-5.74464-4.00896c-2.28864-1.00352-4.92544-1.50528-7.90528-1.50528-3.24096 0-6.144 0.45056-8.71424 1.35168a40.86272 40.86272 0 0 0-6.74816 3.00544c-1.92512 1.10592-3.5328 2.10944-4.81792 3.00544-1.28512 0.90112-2.23744 1.35168-2.85696 1.35168a1.6128 1.6128 0 0 1-0.8448-0.2304c-0.26112-0.1536-0.47616-0.39936-0.65536-0.73216s-0.31232-0.75776-0.384-1.27488a11.4688 11.4688 0 0 1-0.11776-1.77664c0-0.61952 0.0256-1.13152 0.08192-1.54112 0.0512-0.4096 0.12288-0.78336 0.2304-1.11616s0.24576-0.65536 0.42496-0.96256 0.5632-0.7168 1.15712-1.23392 1.59744-1.20832 3.01056-2.08384 3.2-1.76128 5.36064-2.6624 4.55168-1.66912 7.168-2.31424a34.4064 34.4064 0 0 1 8.17664-0.96256c4.67968 0 8.7552 0.6912 12.22656 2.07872 3.47136 1.38752 6.35904 3.26656 8.67328 5.632 2.31424 2.36544 4.03456 5.10464 5.16608 8.21248s1.69984 6.38976 1.69984 9.8304c0 3.18976-0.27136 6.36416-0.80896 9.5232-0.5376 3.16416-1.69984 6.60992-3.47136 10.33728-1.77664 3.72736-4.34688 7.85408-7.71584 12.37504-3.36384 4.52608-7.84896 9.74336-13.45536 15.65696l-18.2016 19.05152h45.65504a2.48832 2.48832 0 0 1 2.08384 1.08032 3.7888 3.7888 0 0 1 0.57856 1.31072c0.10752 0.51712 0.17408 1.08032 0.17408 1.69984z" p-id="11426"></path>
</svg>