<?xml version="1.0" standalone="no"?><!DOCTYPE svg PUBLIC "-//W3C//DTD SVG 1.1//EN" "http://www.w3.org/Graphics/SVG/1.1/DTD/svg11.dtd">
<svg t="1515463992644" class="icon" style="" viewBox="0 0 1024 1024" version="1.1" xmlns="http://www.w3.org/2000/svg" p-id="1741" xmlns:xlink="http://www.w3.org/1999/xlink" width="100" height="100">
	<defs>
		<style type="text/css"></style>
	</defs>
	<path d="M511.653099 63.715137c-161.265894 0-294.961872 117.962645-319.556013 272.302803h639.112026C806.614971 181.677782 672.91797 63.715137 511.653099 63.715137z m114.730021 62.268182c146.96519 60.676941 160.596651 177.355337 160.596652 177.355337h-39.101553C728.327954 197.204407 626.38312 125.983319 626.38312 125.983319zM328.391239 736.950332h92.169189v64.936964h-92.169189zM328.391239 643.152039h92.169189v64.936965h-92.169189zM328.391239 549.353746h92.169189v64.936965h-92.169189zM328.391239 380.14495h92.169189v46.550199h-92.169189zM328.391239 455.556477h92.169189v64.936964h-92.169189z" p-id="1742"></path>
	<path d="M831.209112 891.26286V380.14495H449.421756v503.670287h-28.861328v-53.067636h-92.169189v53.067636h-28.860305V380.14495H192.097086v511.11791h-82.635045v60.049654h804.382117v-60.049654z" p-id="1743"></path>
</svg>