<?xml version="1.0" standalone="no"?><!DOCTYPE svg PUBLIC "-//W3C//DTD SVG 1.1//EN" "http://www.w3.org/Graphics/SVG/1.1/DTD/svg11.dtd">
<svg t="1515463952124" class="icon" style="" viewBox="0 0 1024 1024" version="1.1" xmlns="http://www.w3.org/2000/svg" p-id="1516" data-spm-anchor-id="a313x.7781069.0.i0" xmlns:xlink="http://www.w3.org/1999/xlink" width="100" height="100">
	<defs>
		<style type="text/css"></style>
	</defs>
	<path d="M904.296357 567.744175 39.312655 567.744175C17.582238 567.744175 0 535.368444 0 513.389248 0 491.410053 17.582238 459.034322 39.312655 459.034322L778.953725 459.034322C774.572608 446.533882 771.739137 433.302944 771.739137 419.283742 771.739137 353.435603 839.178715 300.01616 904.296357 300.01616 969.417725 300.01616 1022.248298 368.039949 1022.248298 433.887156 1022.248298 499.720386 969.417725 567.743243 904.296357 567.743243L904.296357 567.744175 904.296357 567.744175ZM525.728495 408.726013 39.312655 408.726013C17.582238 408.726013 0 376.350282 0 354.371086 0 332.392823 17.582238 300.01616 39.312655 300.01616L400.384932 300.01616C396.004746 287.51572 393.157299 288.87422 393.157299 274.868994 393.172207 209.020855 446.007439 155.601412 511.124149 155.601412 576.240859 155.601412 643.681369 209.020855 643.681369 274.868994 643.681369 340.7162 590.845205 408.725081 525.728495 408.725081L525.728495 408.726013 525.728495 408.726013ZM50.571996 618.054348 657.189037 618.054348C658.722708 618.054348 660.036484 618.667443 661.570155 618.755028 663.878115 618.593834 666.096626 618.054348 668.404586 618.054348 733.521296 618.054348 800.961805 686.077205 800.961805 751.925343 800.961805 817.77255 733.522227 871.191993 668.404586 871.191993 603.302784 871.191993 550.451712 832.375964 550.451712 766.527825 550.451712 752.552415 553.285183 739.277685 557.665369 726.777245L50.571996 726.777245C22.621176 726.762337 0 694.386606 0 672.408342 0 650.430078 22.621176 618.053416 50.571996 618.053416L50.571996 618.054348 50.571996 618.054348Z" p-id="1517"></path>
</svg>