<?xml version="1.0" standalone="no"?><!DOCTYPE svg PUBLIC "-//W3C//DTD SVG 1.1//EN" "http://www.w3.org/Graphics/SVG/1.1/DTD/svg11.dtd">
<svg t="1515464010628" class="icon" style="" viewBox="0 0 1024 1024" version="1.1" xmlns="http://www.w3.org/2000/svg" p-id="1960" xmlns:xlink="http://www.w3.org/1999/xlink" width="100" height="100">
	<defs>
		<style type="text/css"></style>
	</defs>
	<path d="M513.04448 574.03392c2.47808-4.1472 4.97664-7.87456 7.05024-12.02176 9.94304-17.00352 25.28256-24.45824 39.79264-22.8096a252.9792 252.9792 0 0 0-37.31968-47.2576c-76.27776-76.28288-76.27776-199.00416 0-273.62816 11.20256-11.19744 11.20256-29.44 0-41.87136-11.19232-11.19232-29.43488-11.19232-41.87136 0-48.09216 48.09216-73.79456 110.6944-73.79456 177.85856 0 67.57888 25.70752 130.176 73.79456 177.85856a185.37984 185.37984 0 0 1 32.34816 41.87136zM239.82592 218.73152c11.19232-11.19744 11.19232-29.43488 0-41.87136-11.20256-11.19744-29.44-11.19744-41.87648 0-48.09728 48.09216-73.79968 110.68928-73.79968 177.85856 0 67.16416 25.70752 130.18624 73.79968 177.86368 37.31456 35.23584 56.79616 84.57728 56.79616 135.9872s-19.4816 100.74112-56.38144 137.64096c-11.19744 11.19744-11.19744 29.44 0 41.87136 6.21568 6.22592 13.68064 8.71424 20.73088 8.71424 7.04512 0 14.91968-2.48832 20.73088-8.71424 48.09216-48.09216 73.79456-110.68928 73.79456-177.85344s-25.70752-130.18112-73.79456-177.85856c-76.29312-76.29312-76.29312-199.0144 0-273.6384z m586.24 272.384c-36.90496-36.89984-56.39168-84.57728-56.39168-137.64096 0-51.41504 19.48672-100.75136 56.39168-137.64608 11.19232-11.19744 11.19232-29.44 0-41.87648-11.20256-11.19232-29.44512-11.19232-41.88672 0-48.08704 48.1024-73.78944 110.69952-73.78944 177.86368 0 67.15904 25.70752 130.18112 73.78944 177.85856 76.70272 77.53216 76.70272 200.24832 0.41984 275.28704-11.19744 11.20256-11.19744 29.43488 0 41.87648 6.2208 6.2208 13.68064 8.70912 20.73088 8.70912 7.46496 0 14.91968-2.48832 20.736-8.70912 48.09216-48.09216 73.78432-110.68928 73.78432-177.85856s-25.69728-130.18624-73.78432-177.86368z m-97.024 319.12448c-44.35456-76.8-89.54368-154.79296-134.74304-231.49056-16.16384-27.37152-47.26272-27.85792-63.42656-0.49152-46.848 77.53216-92.87168 155.21792-139.31008 232.7552-6.21568 10.77248-11.19232 20.7872-4.56192 33.21856 7.05024 12.85632 19.49184 12.0832 31.9232 12.0832h296.43776c12.4416 0 21.9648-7.08096 21.13536-19.52256-0.40448-9.52832-2.47296-21.44256-7.4496-26.56256h-0.00512z m-169.14944 5.91872c-12.43648 0-21.97504-9.53344-21.97504-21.97504 0-12.02176 9.53856-21.56032 21.97504-21.56032 12.84608-0.41472 21.96992 9.11872 21.96992 21.56032s-9.53344 21.97504-21.96992 21.97504z m25.06752-129.35168v42.7008c0 13.27104-10.59328 22.8096-23.03488 22.8096-12.02176 0-23.04512-9.94816-23.04512-23.2192v-87.0656c0-12.85632 10.5984-22.38464 22.62528-22.38464 12.032 0 18.33472 9.94816 23.45472 22.79424v44.3648z" fill="#333333" p-id="1961"></path>
</svg>