<?xml version="1.0" standalone="no"?><!DOCTYPE svg PUBLIC "-//W3C//DTD SVG 1.1//EN" "http://www.w3.org/Graphics/SVG/1.1/DTD/svg11.dtd">
<svg t="1515465000754" class="icon" style="" viewBox="0 0 1024 1024" version="1.1" xmlns="http://www.w3.org/2000/svg" p-id="12863" xmlns:xlink="http://www.w3.org/1999/xlink" width="100" height="100">
	<defs>
		<style type="text/css"></style>
	</defs>
	<path d="M918.9275875555555 975.9170559999999L102.50012444444445 975.9170559999999c-34.127871999999996 0-61.893290666666665-27.765418666666665-61.893290666666665-61.893290666666665L40.60683377777775 97.5963022222222c0-34.127871999999996 27.765418666666665-61.893290666666665 61.893290666666665-61.893290666666665l816.4292835555556 0c34.127871999999996 0 61.893290666666665 27.763598222222218 61.893290666666665 61.893290666666665l0 816.4292835555556C980.8208782222223 948.1516373333334 953.05728 975.9170559999999 918.9275875555555 975.9170559999999zM102.50012444444445 72.1119004444444c-14.052010666666666 0-25.484401777777773 11.43239111111111-25.484401777777773 25.484401777777773l0 816.4292835555556c0 14.052010666666666 11.43239111111111 25.484401777777773 25.484401777777773 25.484401777777773l816.4292835555556 0c14.052010666666666 0 25.484401777777773-11.43239111111111 25.484401777777773-25.484401777777773L944.4138097777778 97.5963022222222c0-14.052010666666666-11.43239111111111-25.484401777777773-25.484401777777773-25.484401777777773L102.50012444444445 72.1119004444444z" p-id="12864"></path>
	<path d="M451.0588017777777 691.9987199999999" p-id="12865"></path>
	<path d="M511.0915982222222 619.8836337777778c-62.58870044444444 0-75.72684799999999-31.178751999999996-75.72684799999999-57.334897777777776L435.3647502222222 515.6613688888888c0-41.757354666666664 33.97131377777778-75.72684799999999 75.72684799999999-75.72684799999999s75.72684799999999 33.96949333333333 75.72684799999999 75.72684799999999l0 46.88736711111111C586.8184462222222 588.7048817777777 573.6802986666665 619.8836337777778 511.0915982222222 619.8836337777778zM511.0915982222222 461.77985422222224c-29.709653333333332 0-53.88151466666667 24.170040888888888-53.88151466666667 53.88151466666667l0 46.88736711111111c0 9.706609777777777 0 35.48956444444445 53.88151466666667 35.48956444444445s53.88151466666667-25.782954666666665 53.88151466666667-35.48956444444445L564.9731128888889 515.6613688888888C564.9731128888889 485.95171555555555 540.8012515555555 461.77985422222224 511.0915982222222 461.77985422222224z" p-id="12866"></path>
	<path d="M789.0425173333334 509.93060977777776c0-153.47074844444444-124.85700266666666-278.32775111111107-278.32775111111107-278.32775111111107-153.47074844444444 0-278.32775111111107 124.85700266666666-278.32775111111107 278.32775111111107 0 108.43295288888889 62.33747911111111 202.57177599999997 153.05022577777774 248.49066666666667l0 31.06588444444444c0 6.031132444444443 4.891534222222222 10.922666666666666 10.922666666666666 10.922666666666666s10.922666666666666-4.891534222222222 10.922666666666666-10.922666666666666L407.2825742222222 517.9096177777777c0-59.748807111111105 48.60950755555555-108.35831466666667 108.35831466666667-108.35831466666667s108.35831466666667 48.60950755555555 108.35831466666667 108.35831466666667l0 271.5793635555555c0 6.031132444444443 4.891534222222222 10.922666666666666 10.922666666666666 10.922666666666666s10.922666666666666-4.891534222222222 10.922666666666666-10.922666666666666l0-36.32878933333333C731.1833315555556 705.5628515555555 789.0425173333334 614.387712 789.0425173333334 509.93060977777776zM515.640888888889 387.70414933333336c-71.794688 0-130.20364800000002 58.40895999999999-130.20364800000002 130.20364800000002l0 118.77489777777778c-31.266133333333332-32.30560711111111-48.787911111111114-75.17525333333333-48.787911111111114-121.02132622222221 0-96.18682311111111 78.2536248888889-174.44226844444444 174.44226844444444-174.44226844444444s174.44226844444444 78.25544533333333 174.44226844444444 174.44226844444444c0 40.70331733333333-14.212209777777778 79.757312-39.68750933333333 110.75219911111111l0-108.50395022222222C645.8445368888888 446.11310933333334 587.4355768888888 387.70414933333336 515.640888888889 387.70414933333336zM645.8445368888888 729.3414968888889l0-61.11778133333333c43.74892088888888-38.66988088888889 68.81462044444444-94.16066844444443 68.81462044444444-152.56234666666666 0-112.24860444444445-91.3207751111111-203.56937955555554-203.56937955555554-203.56937955555554S307.52221866666673 403.41276444444446 307.52221866666673 515.6613688888888c0 63.03106844444445 28.371626666666664 121.23067733333332 77.91502222222222 160.1262933333333l0 59.35012977777778c-78.97452088888889-44.10390755555555-132.513792-128.50699377777778-132.513792-225.2071822222222 0-142.14576355555556 115.64373333333333-257.7913173333333 257.7913173333333-257.7913173333333 142.14576355555556 0 257.7894968888889 115.64373333333333 257.7894968888889 257.7913173333333C768.5042631111112 602.5511822222222 719.3832106666666 683.8868195555556 645.8445368888888 729.3414968888889z" p-id="12867"></path>
</svg>