<?xml version="1.0" standalone="no"?><!DOCTYPE svg PUBLIC "-//W3C//DTD SVG 1.1//EN" "http://www.w3.org/Graphics/SVG/1.1/DTD/svg11.dtd"><svg t="1535531983530" class="icon" style="" viewBox="0 0 1024 1024" version="1.1" xmlns="http://www.w3.org/2000/svg" p-id="2933" xmlns:xlink="http://www.w3.org/1999/xlink" width="64" height="64"><defs><style type="text/css"></style></defs><path d="M957.217391 1024 66.782609 1024C42.184348 1024 22.26087 1004.054261 22.26087 979.478261L22.26087 756.869565C22.26087 732.271304 42.184348 712.347826 66.782609 712.347826L957.217391 712.347826C981.815652 712.347826 1001.73913 732.271304 1001.73913 756.869565L1001.73913 979.478261C1001.73913 1004.054261 981.815652 1024 957.217391 1024ZM912.695652 845.913043C912.695652 821.314783 892.772174 801.391304 868.173913 801.391304L155.826087 801.391304C131.227826 801.391304 111.304348 821.314783 111.304348 845.913043L111.304348 890.434783C111.304348 915.033043 131.227826 934.956522 155.826087 934.956522L868.173913 934.956522C892.772174 934.956522 912.695652 915.033043 912.695652 890.434783L912.695652 845.913043ZM823.652174 912.695652 601.043478 912.695652C576.445217 912.695652 556.521739 892.772174 556.521739 868.173913 556.521739 843.575652 576.445217 823.652174 601.043478 823.652174L823.652174 823.652174C848.250435 823.652174 868.173913 843.575652 868.173913 868.173913 868.173913 892.772174 848.250435 912.695652 823.652174 912.695652ZM378.434783 912.695652C353.836522 912.695652 333.913043 892.772174 333.913043 868.173913 333.913043 843.575652 353.836522 823.652174 378.434783 823.652174 403.033043 823.652174 422.956522 843.575652 422.956522 868.173913 422.956522 892.772174 403.033043 912.695652 378.434783 912.695652ZM244.869565 912.695652C220.271304 912.695652 200.347826 892.772174 200.347826 868.173913 200.347826 843.575652 220.271304 823.652174 244.869565 823.652174 269.467826 823.652174 289.391304 843.575652 289.391304 868.173913 289.391304 892.772174 269.467826 912.695652 244.869565 912.695652ZM957.217391 667.826087 66.782609 667.826087C42.184348 667.826087 22.26087 647.880348 22.26087 623.304348L22.26087 400.695652C22.26087 376.097391 42.184348 356.173913 66.782609 356.173913L957.217391 356.173913C981.815652 356.173913 1001.73913 376.097391 1001.73913 400.695652L1001.73913 623.304348C1001.73913 647.880348 981.815652 667.826087 957.217391 667.826087ZM912.695652 489.73913C912.695652 465.14087 892.772174 445.217391 868.173913 445.217391L155.826087 445.217391C131.227826 445.217391 111.304348 465.14087 111.304348 489.73913L111.304348 534.26087C111.304348 558.85913 131.227826 578.782609 155.826087 578.782609L868.173913 578.782609C892.772174 578.782609 912.695652 558.85913 912.695652 534.26087L912.695652 489.73913ZM823.652174 556.521739 601.043478 556.521739C576.445217 556.521739 556.521739 536.598261 556.521739 512 556.521739 487.401739 576.445217 467.478261 601.043478 467.478261L823.652174 467.478261C848.250435 467.478261 868.173913 487.401739 868.173913 512 868.173913 536.598261 848.250435 556.521739 823.652174 556.521739ZM378.434783 556.521739C353.836522 556.521739 333.913043 536.598261 333.913043 512 333.913043 487.401739 353.836522 467.478261 378.434783 467.478261 403.033043 467.478261 422.956522 487.401739 422.956522 512 422.956522 536.598261 403.033043 556.521739 378.434783 556.521739ZM244.869565 556.521739C220.271304 556.521739 200.347826 536.598261 200.347826 512 200.347826 487.401739 220.271304 467.478261 244.869565 467.478261 269.467826 467.478261 289.391304 487.401739 289.391304 512 289.391304 536.598261 269.467826 556.521739 244.869565 556.521739ZM957.217391 311.652174 66.782609 311.652174C42.184348 311.652174 22.26087 291.706435 22.26087 267.130435L22.26087 44.521739C22.26087 19.923478 42.184348 0 66.782609 0L957.217391 0C981.815652 0 1001.73913 19.923478 1001.73913 44.521739L1001.73913 267.130435C1001.73913 291.706435 981.815652 311.652174 957.217391 311.652174ZM912.695652 133.565217C912.695652 108.966957 892.772174 89.043478 868.173913 89.043478L155.826087 89.043478C131.227826 89.043478 111.304348 108.966957 111.304348 133.565217L111.304348 178.086957C111.304348 202.662957 131.227826 222.608696 155.826087 222.608696L868.173913 222.608696C892.772174 222.608696 912.695652 202.662957 912.695652 178.086957L912.695652 133.565217ZM823.652174 200.347826 601.043478 200.347826C576.445217 200.347826 556.521739 180.424348 556.521739 155.826087 556.521739 131.227826 576.445217 111.304348 601.043478 111.304348L823.652174 111.304348C848.250435 111.304348 868.173913 131.227826 868.173913 155.826087 868.173913 180.424348 848.250435 200.347826 823.652174 200.347826ZM378.434783 200.347826C353.836522 200.347826 333.913043 180.424348 333.913043 155.826087 333.913043 131.227826 353.836522 111.304348 378.434783 111.304348 403.033043 111.304348 422.956522 131.227826 422.956522 155.826087 422.956522 180.424348 403.033043 200.347826 378.434783 200.347826ZM244.869565 200.347826C220.271304 200.347826 200.347826 180.424348 200.347826 155.826087 200.347826 131.227826 220.271304 111.304348 244.869565 111.304348 269.467826 111.304348 289.391304 131.227826 289.391304 155.826087 289.391304 180.424348 269.467826 200.347826 244.869565 200.347826Z" p-id="2934"></path></svg>