<?xml version="1.0" standalone="no"?><!DOCTYPE svg PUBLIC "-//W3C//DTD SVG 1.1//EN" "http://www.w3.org/Graphics/SVG/1.1/DTD/svg11.dtd"><svg t="1527678262600" class="icon" style="" viewBox="0 0 1024 1024" version="1.1" xmlns="http://www.w3.org/2000/svg" p-id="1491" xmlns:xlink="http://www.w3.org/1999/xlink" width="128" height="128"><defs><style type="text/css"></style></defs><path d="M640 736v-192a128 128 0 0 0-256 0v192h32a32 32 0 0 1 0 64H256a32 32 0 0 1 0-64h64v-192a192 192 0 1 1 384 0v192h64a32 32 0 0 1 0 64h-160a32 32 0 0 1 0-64h32z m-128-96a32 32 0 0 1-32-32v-96a32 32 0 0 1 64 0v96a32 32 0 0 1-32 32z m0 96a32.32 32.32 0 0 1-12.16-2.56 28.864 28.864 0 0 1-17.28-17.28A27.072 27.072 0 0 1 480 704a32 32 0 0 1 61.44-12.16A32 32 0 0 1 512 736z m-192-352a31.968 31.968 0 0 1-22.72-9.28l-32-32A32 32 0 0 1 310.4 297.6l32 32A32.032 32.032 0 0 1 320 384z m192-64a32 32 0 0 1-32-32V256a32 32 0 0 1 64 0v32a32 32 0 0 1-32 32z m192 64a31.968 31.968 0 0 1-22.72-54.72l32-32a32 32 0 0 1 45.12 45.12l-32 32a32.096 32.096 0 0 1-22.4 9.6z" p-id="1492" fill="#d81e06"></path></svg>