<?xml version="1.0" standalone="no"?><!DOCTYPE svg PUBLIC "-//W3C//DTD SVG 1.1//EN" "http://www.w3.org/Graphics/SVG/1.1/DTD/svg11.dtd">
<svg t="1515466305328" class="icon" style="" viewBox="0 0 1024 1024" version="1.1" xmlns="http://www.w3.org/2000/svg" p-id="15066" xmlns:xlink="http://www.w3.org/1999/xlink" width="100" height="100">
	<defs>
		<style type="text/css"></style>
	</defs>
	<path d="M945.835268 505.558287c0 238.629889-193.44478 432.076716-432.074669 432.076716S81.683882 744.188176 81.683882 505.558287c0-238.627842 193.445804-432.073646 432.075693-432.073646S945.835268 266.929422 945.835268 505.558287zM512.600169 108.175745c-219.981157 0-398.308635 178.327478-398.308635 398.306588 0 219.98218 178.327478 398.308635 398.308635 398.308635 219.980133 0 398.306588-178.327478 398.306588-398.308635C910.906757 286.503223 732.580303 108.175745 512.600169 108.175745z" p-id="15067"></path>
	<path d="M591.594291 649.841392c0 84.930321-69.713758 153.761989-155.710364 153.761989-85.995583 0-155.710364-68.831668-155.710364-153.761989 0-84.905762 155.710364-341.67887 155.710364-341.67887S591.594291 564.936653 591.594291 649.841392z" p-id="15068"></path>
	<path d="M749.183446 414.392962c0 40.326451-33.101909 73.008804-73.933873 73.008804-40.830941 0-73.93285-32.682353-73.93285-73.008804 0-40.314171 73.93285-162.233941 73.93285-162.233941S749.183446 374.079814 749.183446 414.392962z" p-id="15069"></path>
</svg>