<?xml version="1.0" standalone="no"?><!DOCTYPE svg PUBLIC "-//W3C//DTD SVG 1.1//EN" "http://www.w3.org/Graphics/SVG/1.1/DTD/svg11.dtd"><svg t="1524125174968" class="icon" style="" viewBox="0 0 1024 1024" version="1.1" xmlns="http://www.w3.org/2000/svg" p-id="1487" xmlns:xlink="http://www.w3.org/1999/xlink" width="128" height="128"><defs><style type="text/css"></style></defs><path d="M847.36 851.2c-32.02048 0-60.27264-16.41472-76.8-41.2672-16.52736 24.85248-44.77952 41.2672-76.8 41.2672s-60.27264-16.41472-76.8-41.2672c-16.52736 24.85248-44.77952 41.2672-76.8 41.2672-32.01536 0-60.27264-16.41472-76.8-41.2672-16.52736 24.85248-44.78464 41.2672-76.8 41.2672s-60.27264-16.41472-76.8-41.2672c-16.52736 24.85248-44.78464 41.2672-76.8 41.2672-50.816 0-92.16-41.344-92.16-92.16 0-8.48384 6.87616-15.36 15.36-15.36s15.36 6.87616 15.36 15.36c0 33.87904 27.56096 61.44 61.44 61.44s61.44-27.56096 61.44-61.44c0-8.48384 6.87616-15.36 15.36-15.36s15.36 6.87616 15.36 15.36c0 33.87904 27.56096 61.44 61.44 61.44s61.44-27.56096 61.44-61.44c0-8.48384 6.87616-15.36 15.36-15.36s15.36 6.87616 15.36 15.36c0 33.87904 27.56096 61.44 61.44 61.44 33.87904 0 61.44-27.56096 61.44-61.44 0-8.48384 6.87616-15.36 15.36-15.36s15.36 6.87616 15.36 15.36c0 33.87904 27.56096 61.44 61.44 61.44s61.44-27.56096 61.44-61.44c0-8.48384 6.87616-15.36 15.36-15.36s15.36 6.87616 15.36 15.36c0 33.87904 27.56096 61.44 61.44 61.44s61.44-27.56096 61.44-61.44c0-8.48384 6.87616-15.36 15.36-15.36s15.36 6.87616 15.36 15.36C939.52 809.856 898.176 851.2 847.36 851.2z" p-id="1488"></path><path d="M847.36 697.6c-32.02048 0-60.27264-16.41472-76.8-41.2672-16.52736 24.85248-44.77952 41.2672-76.8 41.2672s-60.27264-16.41472-76.8-41.2672c-16.52736 24.85248-44.77952 41.2672-76.8 41.2672-32.01536 0-60.27264-16.41472-76.8-41.2672-16.52736 24.85248-44.78464 41.2672-76.8 41.2672s-60.27264-16.41472-76.8-41.2672c-16.52736 24.85248-44.78464 41.2672-76.8 41.2672-50.816 0-92.16-41.344-92.16-92.16 0-8.48384 6.87616-15.36 15.36-15.36s15.36 6.87616 15.36 15.36c0 33.87904 27.56096 61.44 61.44 61.44s61.44-27.56096 61.44-61.44c0-8.48384 6.87616-15.36 15.36-15.36s15.36 6.87616 15.36 15.36c0 33.87904 27.56096 61.44 61.44 61.44s61.44-27.56096 61.44-61.44c0-8.48384 6.87616-15.36 15.36-15.36s15.36 6.87616 15.36 15.36c0 33.87904 27.56096 61.44 61.44 61.44 33.87904 0 61.44-27.56096 61.44-61.44 0-8.48384 6.87616-15.36 15.36-15.36s15.36 6.87616 15.36 15.36c0 33.87904 27.56096 61.44 61.44 61.44s61.44-27.56096 61.44-61.44c0-8.48384 6.87616-15.36 15.36-15.36s15.36 6.87616 15.36 15.36c0 33.87904 27.56096 61.44 61.44 61.44s61.44-27.56096 61.44-61.44c0-8.48384 6.87616-15.36 15.36-15.36s15.36 6.87616 15.36 15.36C939.52 656.256 898.176 697.6 847.36 697.6z" p-id="1489"></path><path d="M693.76 568.32c-8.48384 0-15.36-6.87616-15.36-15.36 0-33.87904-27.56096-61.44-61.44-61.44s-61.44 27.56096-61.44 61.44c0 8.48384-6.87616 15.36-15.36 15.36s-15.36-6.87616-15.36-15.36c0-33.87904-27.56096-61.44-61.44-61.44s-61.44 27.56096-61.44 61.44c0 8.48384-6.87616 15.36-15.36 15.36s-15.36-6.87616-15.36-15.36c0-33.87904-27.56096-61.44-61.44-61.44s-61.44 27.56096-61.44 61.44c0 8.48384-6.87616 15.36-15.36 15.36s-15.36-6.87616-15.36-15.36c0-33.87904-27.56096-61.44-61.44-61.44s-61.44 27.56096-61.44 61.44c0 8.48384-6.87616 15.36-15.36 15.36s-15.36-6.87616-15.36-15.36c0-50.816 41.344-92.16 92.16-92.16 32.01536 0 60.27264 16.41472 76.8 41.2672 16.52736-24.85248 44.78464-41.2672 76.8-41.2672s60.27264 16.41472 76.8 41.2672c16.52736-24.85248 44.78464-41.2672 76.8-41.2672s60.27264 16.41472 76.8 41.2672c16.52736-24.85248 44.77952-41.2672 76.8-41.2672 50.816 0 92.16 41.344 92.16 92.16C709.12 561.44384 702.24384 568.32 693.76 568.32z" p-id="1490"></path><path d="M732.16 614.0928c-5.48352 0-9.9328-4.44928-9.9328-9.9328L722.2272 112.64c0-5.48864 4.44928-9.9328 9.9328-9.9328s9.9328 4.44928 9.9328 9.9328l0 491.52C742.0928 609.64352 737.64352 614.0928 732.16 614.0928z" p-id="1491"></path><path d="M844.8 614.0928c-5.48352 0-9.9328-4.44928-9.9328-9.9328L834.8672 112.64c0-5.48864 4.44928-9.9328 9.9328-9.9328s9.9328 4.44928 9.9328 9.9328l0 491.52C854.7328 609.64352 850.28352 614.0928 844.8 614.0928z" p-id="1492"></path><path d="M793.6 168.96l-51.2 0c-5.65248 0-10.24-4.58752-10.24-10.24s4.58752-10.24 10.24-10.24l51.2 0c5.65248 0 10.24 4.58752 10.24 10.24S799.25248 168.96 793.6 168.96z" p-id="1493"></path><path d="M793.6 250.88l-51.2 0c-5.65248 0-10.24-4.58752-10.24-10.24s4.58752-10.24 10.24-10.24l51.2 0c5.65248 0 10.24 4.58752 10.24 10.24S799.25248 250.88 793.6 250.88z" p-id="1494"></path><path d="M793.6 332.8l-51.2 0c-5.65248 0-10.24-4.58752-10.24-10.24s4.58752-10.24 10.24-10.24l51.2 0c5.65248 0 10.24 4.58752 10.24 10.24S799.25248 332.8 793.6 332.8z" p-id="1495"></path><path d="M793.6 414.72l-51.2 0c-5.65248 0-10.24-4.58752-10.24-10.24s4.58752-10.24 10.24-10.24l51.2 0c5.65248 0 10.24 4.58752 10.24 10.24S799.25248 414.72 793.6 414.72z" p-id="1496"></path><path d="M793.6 496.64l-51.2 0c-5.65248 0-10.24-4.58752-10.24-10.24s4.58752-10.24 10.24-10.24l51.2 0c5.65248 0 10.24 4.58752 10.24 10.24S799.25248 496.64 793.6 496.64z" p-id="1497"></path><path d="M793.6 578.56l-51.2 0c-5.65248 0-10.24-4.58752-10.24-10.24s4.58752-10.24 10.24-10.24l51.2 0c5.65248 0 10.24 4.58752 10.24 10.24S799.25248 578.56 793.6 578.56z" p-id="1498"></path></svg>