<?xml version="1.0" standalone="no"?><!DOCTYPE svg PUBLIC "-//W3C//DTD SVG 1.1//EN" "http://www.w3.org/Graphics/SVG/1.1/DTD/svg11.dtd">
<svg t="1515812225317" class="icon" style="" viewBox="0 0 1025 1024" version="1.1" xmlns="http://www.w3.org/2000/svg" p-id="5768" xmlns:xlink="http://www.w3.org/1999/xlink" width="100" height="100">
	<defs>
		<style type="text/css"></style>
	</defs>
	<path d="M704.954165 341.612886c-23.552985 0-42.609946 19.08969-42.609946 42.641652 0 23.522302 19.056962 42.642675 42.609946 42.642675 23.55503 0 42.610969-19.118327 42.610969-42.642675C747.56718 360.701553 728.511241 341.612886 704.954165 341.612886z" p-id="5769"></path>
	<path d="M513.023265 0.356941C230.340399 0.356941 1.200712 229.495605 1.200712 512.179493c0 282.65116 229.139687 511.82153 511.823575 511.82153 282.649115 0 511.82153-229.168324 511.82153-511.82153C1024.844794 229.495605 795.674425 0.356941 513.023265 0.356941zM299.940804 468.078372l-85.690359 0c-11.651205 0-21.116787-9.655814-21.116787-21.122923 0-11.808709 9.21603-21.091218 21.116787-21.091218l85.721042 0c11.651205 0 21.117809 9.657859 21.117809 21.091218C321.089296 458.73143 311.873266 468.078372 299.940804 468.078372zM299.940804 384.680003l-85.690359 0c-11.651205 0-21.116787-10.719477-21.116787-22.153858 0-11.807686 9.21603-22.120108 21.116787-22.120108l85.721042 0c11.651205 0 21.117809 10.657089 21.117809 22.120108C321.089296 374.305194 311.873266 384.680003 299.940804 384.680003zM748.286175 503.057557l-40.761831 9.121936 0 170.564562c0 42.737791 40.042836 92.157228-2.567111 92.157228l-127.956661 0c0 0 63.979353-88.735096 63.979353-131.347088 0-26.362488-8.119638-86.947323-14.369683-128.121324-18.181485-0.217846-35.488515-1.503447-49.60967-2.407561-57.66692-3.62566-170.595244-21.730439-170.595244-21.730439-27.209328-1.717203-63.979353-21.533047-63.979353-106.814305 0-85.345692 36.769003-105.04801 63.979353-106.733508 0 0 112.928324-16.174843 170.595244-19.800503 57.669988-3.653275 170.566607-0.02966 170.566607-0.02966s75.364643 21.744757 75.364643 126.332529C822.932845 455.291911 773.528748 488.812649 748.286175 503.057557z" p-id="5770"></path>
</svg>