<?xml version="1.0" standalone="no"?><!DOCTYPE svg PUBLIC "-//W3C//DTD SVG 1.1//EN" "http://www.w3.org/Graphics/SVG/1.1/DTD/svg11.dtd">
<svg t="1515571951809" class="icon" style="" viewBox="0 0 1024 1024" version="1.1" xmlns="http://www.w3.org/2000/svg" p-id="5139" xmlns:xlink="http://www.w3.org/1999/xlink" width="100" height="100">
	<defs>
		<style type="text/css"></style>
	</defs>
	<path d="M511.953275 1023.896a505.435719 505.435719 0 0 1-198.722889-40.379977c-60.915966-25.882986-115.693936-62.892965-162.82391-110.022939S66.266523 771.590141 40.383538 710.666174A505.466719 505.466719 0 0 1 0.00156 511.945285c0-85.708952 24.226987-176.592902 68.222962-255.927858 4.889997-7.923996 14.955992-13.657992 23.997987-13.657992 1.818999 0 5.244997 0.276 7.679995 2.094999 9.774995 7.333996 15.420991 22.353988 7.953996 34.796981l-0.276 0.456999-0.252 0.473C67.412522 355.020372 47.170534 433.011329 47.170534 511.947285c0 256.282857 208.498884 464.780741 464.780741 464.780741S976.732016 768.230142 976.732016 511.947285s-208.499884-464.780741-464.779741-464.780741c-78.942956 0-156.926913 20.239989-231.780871 60.165966l-0.465 0.252-0.448999 0.268c-4.939997 2.961998-10.191994 4.527997-15.207992 4.527997-7.294996 0-13.342993-3.229998-17.53299-9.348994-3.921998-11.191994-3.708998-26.690985 9.498994-34.802981C335.346373 24.228557 426.228323 0.00057 511.945275 0.00057a505.443719 505.443719 0 0 1 198.722889 40.379978c60.907966 25.871986 115.695936 62.891965 162.82691 110.022938 47.125974 47.121974 84.141953 101.901943 110.023939 162.82391 26.795985 63.071965 40.382978 129.932928 40.382977 198.722889 0 68.791962-13.586992 135.659924-40.382977 198.723889-25.881986 60.914966-62.891965 115.692936-110.023939 162.82591-47.130974 47.131974-101.909943 84.139953-162.82691 110.023939a505.539719 505.539719 0 0 1-198.714889 40.369977z" p-id="5140"></path>
	<path d="M262.816414 486.870299c-3.224998-153.599915 48.000973-230.399872 153.599914-230.399872 102.374943 0 152.774915 76.799957 151.199916 230.399872 1.574999 167.999906-49.612972 250.388861-153.599914 247.199862-104.023942 3.186998-154.424914-79.199956-151.199916-247.199862z m251.999859 0c0-123.185931-33.599981-184.797897-100.799943-184.797897s-100.011944 61.611966-98.399946 184.798897c-6.412996 143.99992 26.399985 212.022882 98.399946 203.998886 70.387961 9.598995 103.988942-58.388967 100.799943-203.999886z m217.599879 113.599937l-55.999969 51.198971c-13.872992 11.749993-21.348988 26.674985-22.400987 44.799975h129.599928v30.399983H618.813216c1.051999-28.799984 5.326997-50.648972 12.799992-65.598963 3.199998-8.523995 11.199994-19.199989 23.999987-31.999982l59.199967-55.999969c22.399988-18.12499 33.051982-41.049977 31.999982-68.799962-1.073999-35.20198-16.547991-53.32497-46.399974-54.40197-31.999982 0-46.947974 24.549986-44.799975 73.60096h-33.599981v-17.599991c-1.071999-25.599986 5.327997-46.399974 19.199989-62.399965 14.926992-16.001991 35.20198-24.000987 60.801966-24.000987 51.199972 2.149999 77.851957 30.948983 79.999956 86.399952 1.050999 34.150981-15.473991 65.601963-49.599973 94.400948z" p-id="5141"></path>
</svg>