<?xml version="1.0" standalone="no"?><!DOCTYPE svg PUBLIC "-//W3C//DTD SVG 1.1//EN" "http://www.w3.org/Graphics/SVG/1.1/DTD/svg11.dtd"><svg t="1523951592998" class="icon" style="" viewBox="0 0 1024 1024" version="1.1" xmlns="http://www.w3.org/2000/svg" p-id="5391" xmlns:xlink="http://www.w3.org/1999/xlink" width="128" height="128"><defs><style type="text/css"></style></defs><path d="M967.111111 938.666667h-28.444444V449.422222v-2.844444C932.977778 216.177778 745.244444 28.444444 512 28.444444 275.911111 28.444444 85.333333 221.866667 85.333333 455.111111v483.555556H56.888889c-17.066667 0-28.444444 11.377778-28.444445 28.444444s11.377778 28.444444 28.444445 28.444445h910.222222c17.066667 0 28.444444-11.377778 28.444445-28.444445s-11.377778-28.444444-28.444445-28.444444zM142.222222 463.644444v-5.688888C142.222222 253.155556 307.2 85.333333 512 85.333333s369.777778 164.977778 369.777778 369.777778v483.555556H142.222222V469.333333v-5.688889z" p-id="5392" fill="#d81e06"></path><path d="M256 659.911111c45.511111 45.511111 45.511111 122.311111 0 167.822222-11.377778 11.377778-11.377778 28.444444 0 39.822223 5.688889 5.688889 14.222222 8.533333 19.911111 8.533333s14.222222-2.844444 19.911111-8.533333c68.266667-68.266667 68.266667-179.2 0-247.466667-31.288889-31.288889-51.2-73.955556-51.2-119.466667s17.066667-88.177778 51.2-119.466666c11.377778-11.377778 11.377778-28.444444 0-39.822223s-28.444444-11.377778-39.822222 0c-42.666667 42.666667-65.422222 99.555556-65.422222 162.133334-2.844444 56.888889 22.755556 113.777778 65.422222 156.444444zM500.622222 827.733333c-11.377778 11.377778-11.377778 28.444444 0 39.822223 5.688889 5.688889 14.222222 8.533333 19.911111 8.533333s14.222222-2.844444 19.911111-8.533333c68.266667-68.266667 68.266667-179.2 0-247.466667-31.288889-31.288889-51.2-73.955556-51.2-119.466667s17.066667-88.177778 51.2-119.466666c11.377778-11.377778 11.377778-28.444444 0-39.822223s-28.444444-11.377778-39.822222 0c-42.666667 42.666667-65.422222 99.555556-65.422222 162.133334s22.755556 116.622222 65.422222 162.133333c45.511111 39.822222 45.511111 116.622222 0 162.133333zM742.4 827.733333c-11.377778 11.377778-11.377778 28.444444 0 39.822223 5.688889 5.688889 14.222222 8.533333 19.911111 8.533333s14.222222-2.844444 19.911111-8.533333c68.266667-68.266667 68.266667-179.2 0-247.466667-31.288889-31.288889-51.2-73.955556-51.2-119.466667s17.066667-88.177778 51.2-119.466666c11.377778-11.377778 11.377778-28.444444 0-39.822223s-28.444444-11.377778-39.822222 0c-42.666667 42.666667-65.422222 99.555556-65.422222 162.133334s22.755556 116.622222 65.422222 162.133333c48.355556 39.822222 48.355556 116.622222 0 162.133333z" p-id="5393" fill="#d81e06"></path></svg>