<?xml version="1.0" standalone="no"?>
<svg viewBox="0 0 1024 768" version="1.1" xmlns="http://www.w3.org/2000/svg" xmlns:xlink="http://www.w3.org/1999/xlink" stroke-linecap="round" stroke-linejoin="round" fill-rule="evenodd" xml:space="preserve" >
<defs >
<clipPath id="clipId0" >
<path d="M0,768 1024,768 1024,0 0,0 z" />
</clipPath>
</defs>
<g stroke-width="1" clip-path="url(#clipId0)" fill="none" stroke="rgb(0,0,0)" />
<g stroke-width="2.5" clip-path="url(#clipId0)" fill="none" stroke="rgb(0,255,255)" >
<polyline points="650.012,533.325 332.871,533.325 " />
<polyline points="649.422,538.123 332.274,538.52 " />
<polyline points="332.871,533.325 332.871,533.325 " />
<polyline points="332.871,533.325 323.444,533.325 " />
<polyline points="323.444,533.325 323.444,565.489 " />
<polyline points="323.444,597.654 647.32,597.654 " />
<polyline points="332.274,538.52 332.274,592.088 " />
<polyline points="332.274,592.088 647.37,592.269 " />
<polyline points="323.444,575.312 113.061,575.312 " />
<polyline points="323.444,565.489 120.457,565.044 " />
<polyline points="323.444,575.312 323.444,597.654 " />
</g>
<g stroke-width="2.5" clip-path="url(#clipId0)" fill="none" stroke="rgb(0,0,0)" >
<polyline points="79.7248,458.716 87.4902,450.95 " />
<polyline points="105.851,458.716 113.634,450.933 " />
<polyline points="131.977,458.716 139.778,450.915 " />
<polyline points="158.103,458.716 165.921,450.897 " />
<polyline points="184.229,458.716 192.065,450.879 " />
<polyline points="210.355,458.716 218.209,450.862 " />
<polyline points="236.481,458.716 244.352,450.844 " />
<polyline points="262.606,458.716 270.496,450.826 " />
<polyline points="288.732,458.716 296.64,450.808 " />
<polyline points="314.858,458.716 322.783,450.791 " />
<polyline points="340.984,458.716 348.927,450.773 " />
<polyline points="367.11,458.716 375.071,450.755 " />
<polyline points="393.236,458.716 401.215,450.737 " />
<polyline points="419.362,458.716 427.358,450.72 " />
<polyline points="445.488,458.716 453.502,450.702 " />
<polyline points="471.614,458.716 479.646,450.684 " />
<polyline points="497.74,458.716 505.789,450.666 " />
<polyline points="523.866,458.716 531.933,450.649 " />
<polyline points="549.992,458.716 558.077,450.631 " />
<polyline points="576.118,458.716 584.22,450.613 " />
<polyline points="602.244,458.716 610.364,450.595 " />
<polyline points="628.37,458.716 636.508,450.578 " />
<polyline points="654.496,458.716 662.651,450.56 " />
<polyline points="680.622,458.716 688.795,450.542 " />
<polyline points="84.0791,458.716 91.8475,450.947 " />
<polyline points="110.205,458.716 117.991,450.93 " />
<polyline points="136.331,458.716 144.135,450.912 " />
<polyline points="162.457,458.716 170.279,450.894 " />
<polyline points="188.583,458.716 196.422,450.876 " />
<polyline points="214.709,458.716 222.566,450.859 " />
<polyline points="240.835,458.716 248.71,450.841 " />
<polyline points="266.961,458.716 274.853,450.823 " />
<polyline points="293.087,458.716 300.997,450.805 " />
<polyline points="319.213,458.716 327.141,450.788 " />
<polyline points="345.339,458.716 353.284,450.77 " />
<polyline points="371.465,458.716 379.428,450.752 " />
<polyline points="397.591,458.716 405.572,450.734 " />
<polyline points="423.717,458.716 431.716,450.717 " />
<polyline points="449.842,458.716 457.859,450.699 " />
<polyline points="475.968,458.716 484.003,450.681 " />
<polyline points="502.094,458.716 510.147,450.663 " />
<polyline points="528.22,458.716 536.29,450.646 " />
<polyline points="554.346,458.716 562.434,450.628 " />
<polyline points="580.472,458.716 588.578,450.61 " />
<polyline points="606.598,458.716 614.721,450.593 " />
<polyline points="632.724,458.716 640.865,450.575 " />
<polyline points="658.85,458.716 667.009,450.557 " />
<polyline points="684.976,458.716 693.152,450.539 " />
<polyline points="88.4334,458.716 96.2048,450.944 " />
<polyline points="114.559,458.716 122.348,450.927 " />
<polyline points="140.685,458.716 148.492,450.909 " />
<polyline points="166.811,458.716 174.636,450.891 " />
<polyline points="192.937,458.716 200.78,450.873 " />
<polyline points="219.063,458.716 226.923,450.856 " />
<polyline points="245.189,458.716 253.067,450.838 " />
<polyline points="271.315,458.716 279.211,450.82 " />
<polyline points="297.441,458.716 305.354,450.802 " />
<polyline points="323.567,458.716 331.498,450.785 " />
<polyline points="349.693,458.716 357.642,450.767 " />
<polyline points="375.819,458.716 383.785,450.749 " />
<polyline points="401.945,458.716 409.929,450.731 " />
<polyline points="428.071,458.716 436.073,450.714 " />
<polyline points="454.197,458.716 462.216,450.696 " />
<polyline points="480.323,458.716 488.36,450.678 " />
<polyline points="506.449,458.716 514.504,450.661 " />
<polyline points="532.575,458.716 540.648,450.643 " />
<polyline points="558.701,458.716 566.791,450.625 " />
<polyline points="584.827,458.716 592.935,450.607 " />
<polyline points="610.953,458.716 619.079,450.59 " />
<polyline points="637.078,458.716 645.222,450.572 " />
<polyline points="663.204,458.716 671.366,450.554 " />
<polyline points="689.33,458.716 697.51,450.536 " />
<polyline points="92.7878,458.716 100.562,450.941 " />
<polyline points="118.914,458.716 126.706,450.924 " />
<polyline points="145.04,458.716 152.849,450.906 " />
<polyline points="171.166,458.716 178.993,450.888 " />
<polyline points="197.292,458.716 205.137,450.87 " />
<polyline points="223.418,458.716 231.281,450.853 " />
<polyline points="249.544,458.716 257.424,450.835 " />
<polyline points="275.669,458.716 283.568,450.817 " />
<polyline points="301.795,458.716 309.712,450.799 " />
<polyline points="327.921,458.716 335.855,450.782 " />
<polyline points="354.047,458.716 361.999,450.764 " />
<polyline points="380.173,458.716 388.143,450.746 " />
<polyline points="406.299,458.716 414.286,450.729 " />
<polyline points="432.425,458.716 440.43,450.711 " />
<polyline points="458.551,458.716 466.574,450.693 " />
<polyline points="484.677,458.716 492.717,450.675 " />
<polyline points="510.803,458.716 518.861,450.658 " />
<polyline points="536.929,458.716 545.005,450.64 " />
<polyline points="563.055,458.716 571.149,450.622 " />
<polyline points="589.181,458.716 597.292,450.604 " />
<polyline points="615.307,458.716 623.436,450.587 " />
<polyline points="641.433,458.716 649.58,450.569 " />
<polyline points="667.559,458.716 675.723,450.551 " />
<polyline points="693.685,458.716 700.844,451.556 " />
<polyline points="75.4602,450.958 700.844,450.534 700.844,458.716 75.4602,458.716 75.4602,450.958 " />
</g>
<g stroke-width="2.5" clip-path="url(#clipId0)" fill="rgb(0,0,0)" stroke="none" >
<text transform="matrix(8.08129 0 -0 8.08129 85.457 446.776)" font-family="SimSun,'sans-serif'" font-size="1.43" >&#22320;&#38754;</text>
<text transform="matrix(8.08129 0 -0 8.08129 86.0475 473.014)" font-family="SimSun,'sans-serif'" font-size="1.43" >&#20117;&#19979;</text>
</g>
<g stroke-width="2.5" clip-path="url(#clipId0)" fill="none" stroke="rgb(0,255,255)" >
<polyline points="113.061,575.312 113.061,356.39 " />
<polyline points="120.457,565.044 120.504,364.805 " />
<polyline points="120.504,364.805 180.345,364.805 " />
<polyline points="113.061,356.39 180.345,356.39 " />
<polyline points="180.345,356.39 180.345,324.377 " />
<polyline points="180.345,364.805 180.345,390.191 " />
<polyline points="180.345,390.191 251.49,390.191 " />
<polyline points="180.345,324.377 247.566,324.377 " />
<polyline points="183.293,365.024 183.293,386.902 " />
<polyline points="183.293,386.902 351.408,386.902 " />
<polyline points="251.49,390.191 351.643,390.191 " />
<polyline points="183.293,365.024 183.293,327.944 " />
<polyline points="183.293,327.944 364.238,327.944 " />
<polyline points="247.566,324.377 392.624,324.377 " />
</g>
<g stroke-width="2.5" clip-path="url(#clipId0)" fill="none" stroke="rgb(0,127,255)" >
<polyline points="332.573,409.138 332.896,409.138 " />
<polyline points="334.835,409.138 335.159,409.138 " />
<polyline points="337.098,409.138 337.421,409.138 " />
<polyline points="339.361,409.138 339.684,409.138 " />
<polyline points="341.624,409.138 341.947,409.138 " />
<polyline points="343.886,409.138 344.21,409.138 " />
<polyline points="346.149,409.138 346.472,409.138 " />
<polyline points="348.412,409.138 348.735,409.138 " />
<polyline points="350.675,409.138 350.998,409.138 " />
<polyline points="352.937,409.138 353.261,409.138 " />
<polyline points="355.2,409.138 355.523,409.138 " />
<polyline points="357.463,409.138 357.786,409.138 " />
<polyline points="359.726,409.138 360.049,409.138 " />
<polyline points="361.989,409.138 362.312,409.138 " />
<polyline points="364.251,409.138 364.575,409.138 " />
<polyline points="366.514,409.138 366.837,409.138 " />
<polyline points="368.777,409.138 369.1,409.138 " />
<polyline points="371.04,409.138 371.363,409.138 " />
<polyline points="373.302,409.138 373.626,409.138 " />
<polyline points="375.565,409.138 375.888,409.138 " />
<polyline points="377.828,409.138 378.151,409.138 " />
<polyline points="380.091,409.138 380.414,409.138 " />
<polyline points="382.353,409.138 382.677,409.138 " />
<polyline points="384.616,409.138 384.939,409.138 " />
<polyline points="386.879,409.138 387.202,409.138 " />
<polyline points="389.142,409.138 389.465,409.138 " />
<polyline points="391.404,409.138 391.728,409.138 " />
<polyline points="393.667,409.138 393.99,409.138 " />
<polyline points="395.93,409.138 396.253,409.138 " />
<polyline points="398.193,409.138 398.516,409.138 " />
<polyline points="400.455,409.138 400.779,409.138 " />
<polyline points="402.718,409.138 403.041,409.138 " />
<polyline points="404.981,409.138 405.304,409.138 " />
<polyline points="407.244,409.138 407.567,409.138 " />
<polyline points="409.507,409.138 409.83,409.138 " />
<polyline points="411.769,409.138 412.093,409.138 " />
<polyline points="414.032,409.138 414.355,409.138 " />
<polyline points="416.295,409.138 416.618,409.138 " />
<polyline points="418.558,409.138 418.881,409.138 " />
<polyline points="420.82,409.138 421.144,409.138 " />
<polyline points="423.083,409.138 423.406,409.138 " />
<polyline points="425.346,409.138 425.669,409.138 " />
<polyline points="427.609,409.138 427.932,409.138 " />
<polyline points="429.871,409.138 430.195,409.138 " />
<polyline points="432.134,409.138 432.457,409.138 " />
<polyline points="434.397,409.138 434.72,409.138 " />
<polyline points="436.66,409.138 436.983,409.138 " />
<polyline points="438.922,409.138 439.246,409.138 " />
<polyline points="441.185,409.138 441.508,409.138 " />
<polyline points="443.448,409.138 443.771,409.138 " />
<polyline points="445.711,409.138 446.034,409.138 " />
<polyline points="447.973,409.138 448.297,409.138 " />
<polyline points="450.236,409.138 450.56,409.138 " />
<polyline points="452.499,409.138 452.822,409.138 " />
<polyline points="454.762,409.138 455.085,409.138 " />
<polyline points="457.025,409.138 457.348,409.138 " />
<polyline points="459.287,409.138 459.611,409.138 " />
<polyline points="461.55,409.138 461.873,409.138 " />
<polyline points="463.813,409.138 464.136,409.138 " />
<polyline points="466.076,409.138 466.399,409.138 " />
<polyline points="468.338,409.138 468.662,409.138 " />
<polyline points="470.601,409.138 470.924,409.138 " />
<polyline points="472.864,409.138 473.187,409.138 " />
<polyline points="475.127,409.138 475.45,409.138 " />
<polyline points="477.389,409.138 477.713,409.138 " />
<polyline points="479.652,409.138 479.975,409.138 " />
<polyline points="481.915,409.138 482.238,409.138 " />
<polyline points="484.178,409.138 484.501,409.138 " />
<polyline points="486.44,409.138 486.764,409.138 " />
<polyline points="488.703,409.138 489.026,409.138 " />
<polyline points="490.966,409.138 491.289,409.138 " />
<polyline points="493.229,409.138 493.552,409.138 " />
<polyline points="495.492,409.138 495.815,409.138 " />
<polyline points="497.754,409.138 498.078,409.138 " />
<polyline points="500.017,409.138 500.34,409.138 " />
<polyline points="502.28,409.138 502.603,409.138 " />
<polyline points="504.543,409.138 504.866,409.138 " />
<polyline points="506.805,409.138 507.129,409.138 " />
<polyline points="509.068,409.138 509.391,409.138 " />
<polyline points="511.331,409.138 511.654,409.138 " />
<polyline points="513.594,409.138 513.917,409.138 " />
<polyline points="332.573,412.37 332.896,412.37 " />
<polyline points="334.835,412.37 335.159,412.37 " />
<polyline points="337.098,412.37 337.421,412.37 " />
<polyline points="339.361,412.37 339.684,412.37 " />
<polyline points="341.624,412.37 341.947,412.37 " />
<polyline points="343.886,412.37 344.21,412.37 " />
<polyline points="346.149,412.37 346.472,412.37 " />
<polyline points="348.412,412.37 348.735,412.37 " />
<polyline points="350.675,412.37 350.998,412.37 " />
<polyline points="352.937,412.37 353.261,412.37 " />
<polyline points="355.2,412.37 355.523,412.37 " />
<polyline points="357.463,412.37 357.786,412.37 " />
<polyline points="359.726,412.37 360.049,412.37 " />
<polyline points="361.989,412.37 362.312,412.37 " />
<polyline points="364.251,412.37 364.575,412.37 " />
<polyline points="366.514,412.37 366.837,412.37 " />
<polyline points="368.777,412.37 369.1,412.37 " />
<polyline points="371.04,412.37 371.363,412.37 " />
<polyline points="373.302,412.37 373.626,412.37 " />
<polyline points="375.565,412.37 375.888,412.37 " />
<polyline points="377.828,412.37 378.151,412.37 " />
<polyline points="380.091,412.37 380.414,412.37 " />
<polyline points="382.353,412.37 382.677,412.37 " />
<polyline points="384.616,412.37 384.939,412.37 " />
<polyline points="386.879,412.37 387.202,412.37 " />
<polyline points="389.142,412.37 389.465,412.37 " />
<polyline points="391.404,412.37 391.728,412.37 " />
<polyline points="393.667,412.37 393.99,412.37 " />
<polyline points="395.93,412.37 396.253,412.37 " />
<polyline points="398.193,412.37 398.516,412.37 " />
<polyline points="400.455,412.37 400.779,412.37 " />
<polyline points="402.718,412.37 403.041,412.37 " />
<polyline points="404.981,412.37 405.304,412.37 " />
<polyline points="407.244,412.37 407.567,412.37 " />
<polyline points="409.507,412.37 409.83,412.37 " />
<polyline points="411.769,412.37 412.093,412.37 " />
<polyline points="414.032,412.37 414.355,412.37 " />
<polyline points="416.295,412.37 416.618,412.37 " />
<polyline points="418.558,412.37 418.881,412.37 " />
<polyline points="420.82,412.37 421.144,412.37 " />
<polyline points="423.083,412.37 423.406,412.37 " />
<polyline points="425.346,412.37 425.669,412.37 " />
<polyline points="427.609,412.37 427.932,412.37 " />
<polyline points="429.871,412.37 430.195,412.37 " />
<polyline points="432.134,412.37 432.457,412.37 " />
<polyline points="434.397,412.37 434.72,412.37 " />
<polyline points="436.66,412.37 436.983,412.37 " />
<polyline points="438.922,412.37 439.246,412.37 " />
<polyline points="441.185,412.37 441.508,412.37 " />
<polyline points="443.448,412.37 443.771,412.37 " />
<polyline points="445.711,412.37 446.034,412.37 " />
<polyline points="447.973,412.37 448.297,412.37 " />
<polyline points="450.236,412.37 450.56,412.37 " />
<polyline points="452.499,412.37 452.822,412.37 " />
<polyline points="454.762,412.37 455.085,412.37 " />
<polyline points="457.025,412.37 457.348,412.37 " />
<polyline points="459.287,412.37 459.611,412.37 " />
<polyline points="461.55,412.37 461.873,412.37 " />
<polyline points="463.813,412.37 464.136,412.37 " />
<polyline points="466.076,412.37 466.399,412.37 " />
<polyline points="468.338,412.37 468.662,412.37 " />
<polyline points="470.601,412.37 470.924,412.37 " />
<polyline points="472.864,412.37 473.187,412.37 " />
<polyline points="475.127,412.37 475.45,412.37 " />
<polyline points="477.389,412.37 477.713,412.37 " />
<polyline points="479.652,412.37 479.975,412.37 " />
<polyline points="481.915,412.37 482.238,412.37 " />
<polyline points="484.178,412.37 484.501,412.37 " />
<polyline points="486.44,412.37 486.764,412.37 " />
<polyline points="488.703,412.37 489.026,412.37 " />
<polyline points="490.966,412.37 491.289,412.37 " />
<polyline points="493.229,412.37 493.552,412.37 " />
<polyline points="495.492,412.37 495.815,412.37 " />
<polyline points="497.754,412.37 498.078,412.37 " />
<polyline points="500.017,412.37 500.34,412.37 " />
<polyline points="502.28,412.37 502.603,412.37 " />
<polyline points="504.543,412.37 504.866,412.37 " />
<polyline points="506.805,412.37 507.129,412.37 " />
<polyline points="509.068,412.37 509.391,412.37 " />
<polyline points="511.331,412.37 511.654,412.37 " />
<polyline points="513.594,412.37 513.917,412.37 " />
<polyline points="332.573,415.603 332.896,415.603 " />
<polyline points="334.835,415.603 335.159,415.603 " />
<polyline points="337.098,415.603 337.421,415.603 " />
<polyline points="339.361,415.603 339.684,415.603 " />
<polyline points="341.624,415.603 341.947,415.603 " />
<polyline points="343.886,415.603 344.21,415.603 " />
<polyline points="346.149,415.603 346.472,415.603 " />
<polyline points="348.412,415.603 348.735,415.603 " />
<polyline points="350.675,415.603 350.998,415.603 " />
<polyline points="352.937,415.603 353.261,415.603 " />
<polyline points="355.2,415.603 355.523,415.603 " />
<polyline points="357.463,415.603 357.786,415.603 " />
<polyline points="359.726,415.603 360.049,415.603 " />
<polyline points="361.989,415.603 362.312,415.603 " />
<polyline points="364.251,415.603 364.575,415.603 " />
<polyline points="366.514,415.603 366.837,415.603 " />
<polyline points="368.777,415.603 369.1,415.603 " />
<polyline points="371.04,415.603 371.363,415.603 " />
<polyline points="373.302,415.603 373.626,415.603 " />
<polyline points="375.565,415.603 375.888,415.603 " />
<polyline points="377.828,415.603 378.151,415.603 " />
<polyline points="380.091,415.603 380.414,415.603 " />
<polyline points="382.353,415.603 382.677,415.603 " />
<polyline points="384.616,415.603 384.939,415.603 " />
<polyline points="386.879,415.603 387.202,415.603 " />
<polyline points="389.142,415.603 389.465,415.603 " />
<polyline points="391.404,415.603 391.728,415.603 " />
<polyline points="393.667,415.603 393.99,415.603 " />
<polyline points="395.93,415.603 396.253,415.603 " />
<polyline points="398.193,415.603 398.516,415.603 " />
<polyline points="400.455,415.603 400.779,415.603 " />
<polyline points="402.718,415.603 403.041,415.603 " />
<polyline points="404.981,415.603 405.304,415.603 " />
<polyline points="407.244,415.603 407.567,415.603 " />
<polyline points="409.507,415.603 409.83,415.603 " />
<polyline points="411.769,415.603 412.093,415.603 " />
<polyline points="414.032,415.603 414.355,415.603 " />
<polyline points="416.295,415.603 416.618,415.603 " />
<polyline points="418.558,415.603 418.881,415.603 " />
<polyline points="420.82,415.603 421.144,415.603 " />
<polyline points="423.083,415.603 423.406,415.603 " />
<polyline points="425.346,415.603 425.669,415.603 " />
<polyline points="427.609,415.603 427.932,415.603 " />
<polyline points="429.871,415.603 430.195,415.603 " />
<polyline points="432.134,415.603 432.457,415.603 " />
<polyline points="434.397,415.603 434.72,415.603 " />
<polyline points="436.66,415.603 436.983,415.603 " />
<polyline points="438.922,415.603 439.246,415.603 " />
<polyline points="441.185,415.603 441.508,415.603 " />
<polyline points="443.448,415.603 443.771,415.603 " />
<polyline points="445.711,415.603 446.034,415.603 " />
<polyline points="447.973,415.603 448.297,415.603 " />
<polyline points="450.236,415.603 450.56,415.603 " />
<polyline points="452.499,415.603 452.822,415.603 " />
<polyline points="454.762,415.603 455.085,415.603 " />
<polyline points="457.025,415.603 457.348,415.603 " />
<polyline points="459.287,415.603 459.611,415.603 " />
<polyline points="461.55,415.603 461.873,415.603 " />
<polyline points="463.813,415.603 464.136,415.603 " />
<polyline points="466.076,415.603 466.399,415.603 " />
<polyline points="468.338,415.603 468.662,415.603 " />
<polyline points="470.601,415.603 470.924,415.603 " />
<polyline points="472.864,415.603 473.187,415.603 " />
<polyline points="475.127,415.603 475.45,415.603 " />
<polyline points="477.389,415.603 477.713,415.603 " />
<polyline points="479.652,415.603 479.975,415.603 " />
<polyline points="481.915,415.603 482.238,415.603 " />
<polyline points="484.178,415.603 484.501,415.603 " />
<polyline points="486.44,415.603 486.764,415.603 " />
<polyline points="488.703,415.603 489.026,415.603 " />
<polyline points="490.966,415.603 491.289,415.603 " />
<polyline points="493.229,415.603 493.552,415.603 " />
<polyline points="495.492,415.603 495.815,415.603 " />
<polyline points="497.754,415.603 498.078,415.603 " />
<polyline points="500.017,415.603 500.34,415.603 " />
<polyline points="502.28,415.603 502.603,415.603 " />
<polyline points="504.543,415.603 504.866,415.603 " />
<polyline points="506.805,415.603 507.129,415.603 " />
<polyline points="509.068,415.603 509.391,415.603 " />
<polyline points="511.331,415.603 511.654,415.603 " />
<polyline points="513.594,415.603 513.917,415.603 " />
<polyline points="332.573,418.835 332.896,418.835 " />
<polyline points="334.835,418.835 335.159,418.835 " />
<polyline points="337.098,418.835 337.421,418.835 " />
<polyline points="339.361,418.835 339.684,418.835 " />
<polyline points="341.624,418.835 341.947,418.835 " />
<polyline points="343.886,418.835 344.21,418.835 " />
<polyline points="346.149,418.835 346.472,418.835 " />
<polyline points="348.412,418.835 348.735,418.835 " />
<polyline points="350.675,418.835 350.998,418.835 " />
<polyline points="352.937,418.835 353.261,418.835 " />
<polyline points="355.2,418.835 355.523,418.835 " />
<polyline points="357.463,418.835 357.786,418.835 " />
<polyline points="359.726,418.835 360.049,418.835 " />
<polyline points="361.989,418.835 362.312,418.835 " />
<polyline points="364.251,418.835 364.575,418.835 " />
<polyline points="366.514,418.835 366.837,418.835 " />
<polyline points="368.777,418.835 369.1,418.835 " />
<polyline points="371.04,418.835 371.363,418.835 " />
<polyline points="373.302,418.835 373.626,418.835 " />
<polyline points="375.565,418.835 375.888,418.835 " />
<polyline points="377.828,418.835 378.151,418.835 " />
<polyline points="380.091,418.835 380.414,418.835 " />
<polyline points="382.353,418.835 382.677,418.835 " />
<polyline points="384.616,418.835 384.939,418.835 " />
<polyline points="386.879,418.835 387.202,418.835 " />
<polyline points="389.142,418.835 389.465,418.835 " />
<polyline points="391.404,418.835 391.728,418.835 " />
<polyline points="393.667,418.835 393.99,418.835 " />
<polyline points="395.93,418.835 396.253,418.835 " />
<polyline points="398.193,418.835 398.516,418.835 " />
<polyline points="400.455,418.835 400.779,418.835 " />
<polyline points="402.718,418.835 403.041,418.835 " />
<polyline points="404.981,418.835 405.304,418.835 " />
<polyline points="407.244,418.835 407.567,418.835 " />
<polyline points="409.507,418.835 409.83,418.835 " />
<polyline points="411.769,418.835 412.093,418.835 " />
<polyline points="414.032,418.835 414.355,418.835 " />
<polyline points="416.295,418.835 416.618,418.835 " />
<polyline points="418.558,418.835 418.881,418.835 " />
<polyline points="420.82,418.835 421.144,418.835 " />
<polyline points="423.083,418.835 423.406,418.835 " />
<polyline points="425.346,418.835 425.669,418.835 " />
<polyline points="427.609,418.835 427.932,418.835 " />
<polyline points="429.871,418.835 430.195,418.835 " />
<polyline points="432.134,418.835 432.457,418.835 " />
<polyline points="434.397,418.835 434.72,418.835 " />
<polyline points="436.66,418.835 436.983,418.835 " />
<polyline points="438.922,418.835 439.246,418.835 " />
<polyline points="441.185,418.835 441.508,418.835 " />
<polyline points="443.448,418.835 443.771,418.835 " />
<polyline points="445.711,418.835 446.034,418.835 " />
<polyline points="447.973,418.835 448.297,418.835 " />
<polyline points="450.236,418.835 450.56,418.835 " />
<polyline points="452.499,418.835 452.822,418.835 " />
<polyline points="454.762,418.835 455.085,418.835 " />
<polyline points="457.025,418.835 457.348,418.835 " />
<polyline points="459.287,418.835 459.611,418.835 " />
<polyline points="461.55,418.835 461.873,418.835 " />
<polyline points="463.813,418.835 464.136,418.835 " />
<polyline points="466.076,418.835 466.399,418.835 " />
<polyline points="468.338,418.835 468.662,418.835 " />
<polyline points="470.601,418.835 470.924,418.835 " />
<polyline points="472.864,418.835 473.187,418.835 " />
<polyline points="475.127,418.835 475.45,418.835 " />
<polyline points="477.389,418.835 477.713,418.835 " />
<polyline points="479.652,418.835 479.975,418.835 " />
<polyline points="481.915,418.835 482.238,418.835 " />
<polyline points="484.178,418.835 484.501,418.835 " />
<polyline points="486.44,418.835 486.764,418.835 " />
<polyline points="488.703,418.835 489.026,418.835 " />
<polyline points="490.966,418.835 491.289,418.835 " />
<polyline points="493.229,418.835 493.552,418.835 " />
<polyline points="495.492,418.835 495.815,418.835 " />
<polyline points="497.754,418.835 498.078,418.835 " />
<polyline points="500.017,418.835 500.34,418.835 " />
<polyline points="502.28,418.835 502.603,418.835 " />
<polyline points="504.543,418.835 504.866,418.835 " />
<polyline points="506.805,418.835 507.129,418.835 " />
<polyline points="509.068,418.835 509.391,418.835 " />
<polyline points="511.331,418.835 511.654,418.835 " />
<polyline points="513.594,418.835 513.917,418.835 " />
<polyline points="332.573,422.068 332.896,422.068 " />
<polyline points="334.835,422.068 335.159,422.068 " />
<polyline points="337.098,422.068 337.421,422.068 " />
<polyline points="339.361,422.068 339.684,422.068 " />
<polyline points="341.624,422.068 341.947,422.068 " />
<polyline points="343.886,422.068 344.21,422.068 " />
<polyline points="346.149,422.068 346.472,422.068 " />
<polyline points="348.412,422.068 348.735,422.068 " />
<polyline points="350.675,422.068 350.998,422.068 " />
<polyline points="352.937,422.068 353.261,422.068 " />
<polyline points="355.2,422.068 355.523,422.068 " />
<polyline points="357.463,422.068 357.786,422.068 " />
<polyline points="359.726,422.068 360.049,422.068 " />
<polyline points="361.989,422.068 362.312,422.068 " />
<polyline points="364.251,422.068 364.575,422.068 " />
<polyline points="366.514,422.068 366.837,422.068 " />
<polyline points="368.777,422.068 369.1,422.068 " />
<polyline points="371.04,422.068 371.363,422.068 " />
<polyline points="373.302,422.068 373.626,422.068 " />
<polyline points="375.565,422.068 375.888,422.068 " />
<polyline points="377.828,422.068 378.151,422.068 " />
<polyline points="380.091,422.068 380.414,422.068 " />
<polyline points="382.353,422.068 382.677,422.068 " />
<polyline points="384.616,422.068 384.939,422.068 " />
<polyline points="386.879,422.068 387.202,422.068 " />
<polyline points="389.142,422.068 389.465,422.068 " />
<polyline points="391.404,422.068 391.728,422.068 " />
<polyline points="393.667,422.068 393.99,422.068 " />
<polyline points="395.93,422.068 396.253,422.068 " />
<polyline points="398.193,422.068 398.516,422.068 " />
<polyline points="400.455,422.068 400.779,422.068 " />
<polyline points="402.718,422.068 403.041,422.068 " />
<polyline points="404.981,422.068 405.304,422.068 " />
<polyline points="407.244,422.068 407.567,422.068 " />
<polyline points="409.507,422.068 409.83,422.068 " />
<polyline points="411.769,422.068 412.093,422.068 " />
<polyline points="414.032,422.068 414.355,422.068 " />
<polyline points="416.295,422.068 416.618,422.068 " />
<polyline points="418.558,422.068 418.881,422.068 " />
<polyline points="420.82,422.068 421.144,422.068 " />
<polyline points="423.083,422.068 423.406,422.068 " />
<polyline points="425.346,422.068 425.669,422.068 " />
<polyline points="427.609,422.068 427.932,422.068 " />
<polyline points="429.871,422.068 430.195,422.068 " />
<polyline points="432.134,422.068 432.457,422.068 " />
<polyline points="434.397,422.068 434.72,422.068 " />
<polyline points="436.66,422.068 436.983,422.068 " />
<polyline points="438.922,422.068 439.246,422.068 " />
<polyline points="441.185,422.068 441.508,422.068 " />
<polyline points="443.448,422.068 443.771,422.068 " />
<polyline points="445.711,422.068 446.034,422.068 " />
<polyline points="447.973,422.068 448.297,422.068 " />
<polyline points="450.236,422.068 450.56,422.068 " />
<polyline points="452.499,422.068 452.822,422.068 " />
<polyline points="454.762,422.068 455.085,422.068 " />
<polyline points="457.025,422.068 457.348,422.068 " />
<polyline points="459.287,422.068 459.611,422.068 " />
<polyline points="461.55,422.068 461.873,422.068 " />
<polyline points="463.813,422.068 464.136,422.068 " />
<polyline points="466.076,422.068 466.399,422.068 " />
<polyline points="468.338,422.068 468.662,422.068 " />
<polyline points="470.601,422.068 470.924,422.068 " />
<polyline points="472.864,422.068 473.187,422.068 " />
<polyline points="475.127,422.068 475.45,422.068 " />
<polyline points="477.389,422.068 477.713,422.068 " />
<polyline points="479.652,422.068 479.975,422.068 " />
<polyline points="481.915,422.068 482.238,422.068 " />
<polyline points="484.178,422.068 484.501,422.068 " />
<polyline points="486.44,422.068 486.764,422.068 " />
<polyline points="488.703,422.068 489.026,422.068 " />
<polyline points="490.966,422.068 491.289,422.068 " />
<polyline points="493.229,422.068 493.552,422.068 " />
<polyline points="495.492,422.068 495.815,422.068 " />
<polyline points="497.754,422.068 498.078,422.068 " />
<polyline points="500.017,422.068 500.34,422.068 " />
<polyline points="502.28,422.068 502.603,422.068 " />
<polyline points="504.543,422.068 504.866,422.068 " />
<polyline points="506.805,422.068 507.129,422.068 " />
<polyline points="509.068,422.068 509.391,422.068 " />
<polyline points="511.331,422.068 511.654,422.068 " />
<polyline points="513.594,422.068 513.917,422.068 " />
<polyline points="332.573,425.3 332.896,425.3 " />
<polyline points="334.835,425.3 335.159,425.3 " />
<polyline points="337.098,425.3 337.421,425.3 " />
<polyline points="339.361,425.3 339.684,425.3 " />
<polyline points="341.624,425.3 341.947,425.3 " />
<polyline points="343.886,425.3 344.21,425.3 " />
<polyline points="346.149,425.3 346.472,425.3 " />
<polyline points="348.412,425.3 348.735,425.3 " />
<polyline points="350.675,425.3 350.998,425.3 " />
<polyline points="352.937,425.3 353.261,425.3 " />
<polyline points="355.2,425.3 355.523,425.3 " />
<polyline points="357.463,425.3 357.786,425.3 " />
<polyline points="359.726,425.3 360.049,425.3 " />
<polyline points="361.989,425.3 362.312,425.3 " />
<polyline points="364.251,425.3 364.575,425.3 " />
<polyline points="366.514,425.3 366.837,425.3 " />
<polyline points="368.777,425.3 369.1,425.3 " />
<polyline points="371.04,425.3 371.363,425.3 " />
<polyline points="373.302,425.3 373.626,425.3 " />
<polyline points="375.565,425.3 375.888,425.3 " />
<polyline points="377.828,425.3 378.151,425.3 " />
<polyline points="380.091,425.3 380.414,425.3 " />
<polyline points="382.353,425.3 382.677,425.3 " />
<polyline points="384.616,425.3 384.939,425.3 " />
<polyline points="386.879,425.3 387.202,425.3 " />
<polyline points="389.142,425.3 389.465,425.3 " />
<polyline points="391.404,425.3 391.728,425.3 " />
<polyline points="393.667,425.3 393.99,425.3 " />
<polyline points="395.93,425.3 396.253,425.3 " />
<polyline points="398.193,425.3 398.516,425.3 " />
<polyline points="400.455,425.3 400.779,425.3 " />
<polyline points="402.718,425.3 403.041,425.3 " />
<polyline points="404.981,425.3 405.304,425.3 " />
<polyline points="407.244,425.3 407.567,425.3 " />
<polyline points="409.507,425.3 409.83,425.3 " />
<polyline points="411.769,425.3 412.093,425.3 " />
<polyline points="414.032,425.3 414.355,425.3 " />
<polyline points="416.295,425.3 416.618,425.3 " />
<polyline points="418.558,425.3 418.881,425.3 " />
<polyline points="420.82,425.3 421.144,425.3 " />
<polyline points="423.083,425.3 423.406,425.3 " />
<polyline points="425.346,425.3 425.669,425.3 " />
<polyline points="427.609,425.3 427.932,425.3 " />
<polyline points="429.871,425.3 430.195,425.3 " />
<polyline points="432.134,425.3 432.457,425.3 " />
<polyline points="434.397,425.3 434.72,425.3 " />
<polyline points="436.66,425.3 436.983,425.3 " />
<polyline points="438.922,425.3 439.246,425.3 " />
<polyline points="441.185,425.3 441.508,425.3 " />
<polyline points="443.448,425.3 443.771,425.3 " />
<polyline points="445.711,425.3 446.034,425.3 " />
<polyline points="447.973,425.3 448.297,425.3 " />
<polyline points="450.236,425.3 450.56,425.3 " />
<polyline points="452.499,425.3 452.822,425.3 " />
<polyline points="454.762,425.3 455.085,425.3 " />
<polyline points="457.025,425.3 457.348,425.3 " />
<polyline points="459.287,425.3 459.611,425.3 " />
<polyline points="461.55,425.3 461.873,425.3 " />
<polyline points="463.813,425.3 464.136,425.3 " />
<polyline points="466.076,425.3 466.399,425.3 " />
<polyline points="468.338,425.3 468.662,425.3 " />
<polyline points="470.601,425.3 470.924,425.3 " />
<polyline points="472.864,425.3 473.187,425.3 " />
<polyline points="475.127,425.3 475.45,425.3 " />
<polyline points="477.389,425.3 477.713,425.3 " />
<polyline points="479.652,425.3 479.975,425.3 " />
<polyline points="481.915,425.3 482.238,425.3 " />
<polyline points="484.178,425.3 484.501,425.3 " />
<polyline points="486.44,425.3 486.764,425.3 " />
<polyline points="488.703,425.3 489.026,425.3 " />
<polyline points="490.966,425.3 491.289,425.3 " />
<polyline points="493.229,425.3 493.552,425.3 " />
<polyline points="495.492,425.3 495.815,425.3 " />
<polyline points="497.754,425.3 498.078,425.3 " />
<polyline points="500.017,425.3 500.34,425.3 " />
<polyline points="502.28,425.3 502.603,425.3 " />
<polyline points="504.543,425.3 504.866,425.3 " />
<polyline points="506.805,425.3 507.129,425.3 " />
<polyline points="509.068,425.3 509.391,425.3 " />
<polyline points="511.331,425.3 511.654,425.3 " />
<polyline points="513.594,425.3 513.917,425.3 " />
<polyline points="332.573,428.533 332.896,428.533 " />
<polyline points="334.835,428.533 335.159,428.533 " />
<polyline points="337.098,428.533 337.421,428.533 " />
<polyline points="339.361,428.533 339.684,428.533 " />
<polyline points="341.624,428.533 341.947,428.533 " />
<polyline points="343.886,428.533 344.21,428.533 " />
<polyline points="346.149,428.533 346.472,428.533 " />
<polyline points="348.412,428.533 348.735,428.533 " />
<polyline points="350.675,428.533 350.998,428.533 " />
<polyline points="352.937,428.533 353.261,428.533 " />
<polyline points="355.2,428.533 355.523,428.533 " />
<polyline points="357.463,428.533 357.786,428.533 " />
<polyline points="359.726,428.533 360.049,428.533 " />
<polyline points="361.989,428.533 362.312,428.533 " />
<polyline points="364.251,428.533 364.575,428.533 " />
<polyline points="366.514,428.533 366.837,428.533 " />
<polyline points="368.777,428.533 369.1,428.533 " />
<polyline points="371.04,428.533 371.363,428.533 " />
<polyline points="373.302,428.533 373.626,428.533 " />
<polyline points="375.565,428.533 375.888,428.533 " />
<polyline points="377.828,428.533 378.151,428.533 " />
<polyline points="380.091,428.533 380.414,428.533 " />
<polyline points="382.353,428.533 382.677,428.533 " />
<polyline points="384.616,428.533 384.939,428.533 " />
<polyline points="386.879,428.533 387.202,428.533 " />
<polyline points="389.142,428.533 389.465,428.533 " />
<polyline points="391.404,428.533 391.728,428.533 " />
<polyline points="393.667,428.533 393.99,428.533 " />
<polyline points="395.93,428.533 396.253,428.533 " />
<polyline points="398.193,428.533 398.516,428.533 " />
<polyline points="400.455,428.533 400.779,428.533 " />
<polyline points="402.718,428.533 403.041,428.533 " />
<polyline points="404.981,428.533 405.304,428.533 " />
<polyline points="407.244,428.533 407.567,428.533 " />
<polyline points="409.507,428.533 409.83,428.533 " />
<polyline points="411.769,428.533 412.093,428.533 " />
<polyline points="414.032,428.533 414.355,428.533 " />
<polyline points="416.295,428.533 416.618,428.533 " />
<polyline points="418.558,428.533 418.881,428.533 " />
<polyline points="420.82,428.533 421.144,428.533 " />
<polyline points="423.083,428.533 423.406,428.533 " />
<polyline points="425.346,428.533 425.669,428.533 " />
<polyline points="427.609,428.533 427.932,428.533 " />
<polyline points="429.871,428.533 430.195,428.533 " />
<polyline points="432.134,428.533 432.457,428.533 " />
<polyline points="434.397,428.533 434.72,428.533 " />
<polyline points="436.66,428.533 436.983,428.533 " />
<polyline points="438.922,428.533 439.246,428.533 " />
<polyline points="441.185,428.533 441.508,428.533 " />
<polyline points="443.448,428.533 443.771,428.533 " />
<polyline points="445.711,428.533 446.034,428.533 " />
<polyline points="447.973,428.533 448.297,428.533 " />
<polyline points="450.236,428.533 450.56,428.533 " />
<polyline points="452.499,428.533 452.822,428.533 " />
<polyline points="454.762,428.533 455.085,428.533 " />
<polyline points="457.025,428.533 457.348,428.533 " />
<polyline points="459.287,428.533 459.611,428.533 " />
<polyline points="461.55,428.533 461.873,428.533 " />
<polyline points="463.813,428.533 464.136,428.533 " />
<polyline points="466.076,428.533 466.399,428.533 " />
<polyline points="468.338,428.533 468.662,428.533 " />
<polyline points="470.601,428.533 470.924,428.533 " />
<polyline points="472.864,428.533 473.187,428.533 " />
<polyline points="475.127,428.533 475.45,428.533 " />
<polyline points="477.389,428.533 477.713,428.533 " />
<polyline points="479.652,428.533 479.975,428.533 " />
<polyline points="481.915,428.533 482.238,428.533 " />
<polyline points="484.178,428.533 484.501,428.533 " />
<polyline points="486.44,428.533 486.764,428.533 " />
<polyline points="488.703,428.533 489.026,428.533 " />
<polyline points="490.966,428.533 491.289,428.533 " />
<polyline points="493.229,428.533 493.552,428.533 " />
<polyline points="495.492,428.533 495.815,428.533 " />
<polyline points="497.754,428.533 498.078,428.533 " />
<polyline points="500.017,428.533 500.34,428.533 " />
<polyline points="502.28,428.533 502.603,428.533 " />
<polyline points="504.543,428.533 504.866,428.533 " />
<polyline points="506.805,428.533 507.129,428.533 " />
<polyline points="509.068,428.533 509.391,428.533 " />
<polyline points="511.331,428.533 511.654,428.533 " />
<polyline points="513.594,428.533 513.917,428.533 " />
<polyline points="332.573,431.765 332.896,431.765 " />
<polyline points="334.835,431.765 335.159,431.765 " />
<polyline points="337.098,431.765 337.421,431.765 " />
<polyline points="339.361,431.765 339.684,431.765 " />
<polyline points="341.624,431.765 341.947,431.765 " />
<polyline points="343.886,431.765 344.21,431.765 " />
<polyline points="346.149,431.765 346.472,431.765 " />
<polyline points="348.412,431.765 348.735,431.765 " />
<polyline points="350.675,431.765 350.998,431.765 " />
<polyline points="352.937,431.765 353.261,431.765 " />
<polyline points="355.2,431.765 355.523,431.765 " />
<polyline points="357.463,431.765 357.786,431.765 " />
<polyline points="359.726,431.765 360.049,431.765 " />
<polyline points="361.989,431.765 362.312,431.765 " />
<polyline points="364.251,431.765 364.575,431.765 " />
<polyline points="366.514,431.765 366.837,431.765 " />
<polyline points="368.777,431.765 369.1,431.765 " />
<polyline points="371.04,431.765 371.363,431.765 " />
<polyline points="373.302,431.765 373.626,431.765 " />
<polyline points="375.565,431.765 375.888,431.765 " />
<polyline points="377.828,431.765 378.151,431.765 " />
<polyline points="380.091,431.765 380.414,431.765 " />
<polyline points="382.353,431.765 382.677,431.765 " />
<polyline points="384.616,431.765 384.939,431.765 " />
<polyline points="386.879,431.765 387.202,431.765 " />
<polyline points="389.142,431.765 389.465,431.765 " />
<polyline points="391.404,431.765 391.728,431.765 " />
<polyline points="393.667,431.765 393.99,431.765 " />
<polyline points="395.93,431.765 396.253,431.765 " />
<polyline points="398.193,431.765 398.516,431.765 " />
<polyline points="400.455,431.765 400.779,431.765 " />
<polyline points="402.718,431.765 403.041,431.765 " />
<polyline points="404.981,431.765 405.304,431.765 " />
<polyline points="407.244,431.765 407.567,431.765 " />
<polyline points="409.507,431.765 409.83,431.765 " />
<polyline points="411.769,431.765 412.093,431.765 " />
<polyline points="414.032,431.765 414.355,431.765 " />
<polyline points="416.295,431.765 416.618,431.765 " />
<polyline points="418.558,431.765 418.881,431.765 " />
<polyline points="420.82,431.765 421.144,431.765 " />
<polyline points="423.083,431.765 423.406,431.765 " />
<polyline points="425.346,431.765 425.669,431.765 " />
<polyline points="427.609,431.765 427.932,431.765 " />
<polyline points="429.871,431.765 430.195,431.765 " />
<polyline points="432.134,431.765 432.457,431.765 " />
<polyline points="434.397,431.765 434.72,431.765 " />
<polyline points="436.66,431.765 436.983,431.765 " />
<polyline points="438.922,431.765 439.246,431.765 " />
<polyline points="441.185,431.765 441.508,431.765 " />
<polyline points="443.448,431.765 443.771,431.765 " />
<polyline points="445.711,431.765 446.034,431.765 " />
<polyline points="447.973,431.765 448.297,431.765 " />
<polyline points="450.236,431.765 450.56,431.765 " />
<polyline points="452.499,431.765 452.822,431.765 " />
<polyline points="454.762,431.765 455.085,431.765 " />
<polyline points="457.025,431.765 457.348,431.765 " />
<polyline points="459.287,431.765 459.611,431.765 " />
<polyline points="461.55,431.765 461.873,431.765 " />
<polyline points="463.813,431.765 464.136,431.765 " />
<polyline points="466.076,431.765 466.399,431.765 " />
<polyline points="468.338,431.765 468.662,431.765 " />
<polyline points="470.601,431.765 470.924,431.765 " />
<polyline points="472.864,431.765 473.187,431.765 " />
<polyline points="475.127,431.765 475.45,431.765 " />
<polyline points="477.389,431.765 477.713,431.765 " />
<polyline points="479.652,431.765 479.975,431.765 " />
<polyline points="481.915,431.765 482.238,431.765 " />
<polyline points="484.178,431.765 484.501,431.765 " />
<polyline points="486.44,431.765 486.764,431.765 " />
<polyline points="488.703,431.765 489.026,431.765 " />
<polyline points="490.966,431.765 491.289,431.765 " />
<polyline points="493.229,431.765 493.552,431.765 " />
<polyline points="495.492,431.765 495.815,431.765 " />
<polyline points="497.754,431.765 498.078,431.765 " />
<polyline points="500.017,431.765 500.34,431.765 " />
<polyline points="502.28,431.765 502.603,431.765 " />
<polyline points="504.543,431.765 504.866,431.765 " />
<polyline points="506.805,431.765 507.129,431.765 " />
<polyline points="509.068,431.765 509.391,431.765 " />
<polyline points="511.331,431.765 511.654,431.765 " />
<polyline points="513.594,431.765 513.917,431.765 " />
<polyline points="332.573,434.998 332.896,434.998 " />
<polyline points="334.835,434.998 335.159,434.998 " />
<polyline points="337.098,434.998 337.421,434.998 " />
<polyline points="339.361,434.998 339.684,434.998 " />
<polyline points="341.624,434.998 341.947,434.998 " />
<polyline points="343.886,434.998 344.21,434.998 " />
<polyline points="346.149,434.998 346.472,434.998 " />
<polyline points="348.412,434.998 348.735,434.998 " />
<polyline points="350.675,434.998 350.998,434.998 " />
<polyline points="352.937,434.998 353.261,434.998 " />
<polyline points="355.2,434.998 355.523,434.998 " />
<polyline points="357.463,434.998 357.786,434.998 " />
<polyline points="359.726,434.998 360.049,434.998 " />
<polyline points="361.989,434.998 362.312,434.998 " />
<polyline points="364.251,434.998 364.575,434.998 " />
<polyline points="366.514,434.998 366.837,434.998 " />
<polyline points="368.777,434.998 369.1,434.998 " />
<polyline points="371.04,434.998 371.363,434.998 " />
<polyline points="373.302,434.998 373.626,434.998 " />
<polyline points="375.565,434.998 375.888,434.998 " />
<polyline points="377.828,434.998 378.151,434.998 " />
<polyline points="380.091,434.998 380.414,434.998 " />
<polyline points="382.353,434.998 382.677,434.998 " />
<polyline points="384.616,434.998 384.939,434.998 " />
<polyline points="386.879,434.998 387.202,434.998 " />
<polyline points="389.142,434.998 389.465,434.998 " />
<polyline points="391.404,434.998 391.728,434.998 " />
<polyline points="393.667,434.998 393.99,434.998 " />
<polyline points="395.93,434.998 396.253,434.998 " />
<polyline points="398.193,434.998 398.516,434.998 " />
<polyline points="400.455,434.998 400.779,434.998 " />
<polyline points="402.718,434.998 403.041,434.998 " />
<polyline points="404.981,434.998 405.304,434.998 " />
<polyline points="407.244,434.998 407.567,434.998 " />
<polyline points="409.507,434.998 409.83,434.998 " />
<polyline points="411.769,434.998 412.093,434.998 " />
<polyline points="414.032,434.998 414.355,434.998 " />
<polyline points="416.295,434.998 416.618,434.998 " />
<polyline points="418.558,434.998 418.881,434.998 " />
<polyline points="420.82,434.998 421.144,434.998 " />
<polyline points="423.083,434.998 423.406,434.998 " />
<polyline points="425.346,434.998 425.669,434.998 " />
<polyline points="427.609,434.998 427.932,434.998 " />
<polyline points="429.871,434.998 430.195,434.998 " />
<polyline points="432.134,434.998 432.457,434.998 " />
<polyline points="434.397,434.998 434.72,434.998 " />
<polyline points="436.66,434.998 436.983,434.998 " />
<polyline points="438.922,434.998 439.246,434.998 " />
<polyline points="441.185,434.998 441.508,434.998 " />
<polyline points="443.448,434.998 443.771,434.998 " />
<polyline points="445.711,434.998 446.034,434.998 " />
<polyline points="447.973,434.998 448.297,434.998 " />
<polyline points="450.236,434.998 450.56,434.998 " />
<polyline points="452.499,434.998 452.822,434.998 " />
<polyline points="454.762,434.998 455.085,434.998 " />
<polyline points="457.025,434.998 457.348,434.998 " />
<polyline points="459.287,434.998 459.611,434.998 " />
<polyline points="461.55,434.998 461.873,434.998 " />
<polyline points="463.813,434.998 464.136,434.998 " />
<polyline points="466.076,434.998 466.399,434.998 " />
<polyline points="468.338,434.998 468.662,434.998 " />
<polyline points="470.601,434.998 470.924,434.998 " />
<polyline points="472.864,434.998 473.187,434.998 " />
<polyline points="475.127,434.998 475.45,434.998 " />
<polyline points="477.389,434.998 477.713,434.998 " />
<polyline points="479.652,434.998 479.975,434.998 " />
<polyline points="481.915,434.998 482.238,434.998 " />
<polyline points="484.178,434.998 484.501,434.998 " />
<polyline points="486.44,434.998 486.764,434.998 " />
<polyline points="488.703,434.998 489.026,434.998 " />
<polyline points="490.966,434.998 491.289,434.998 " />
<polyline points="493.229,434.998 493.552,434.998 " />
<polyline points="495.492,434.998 495.815,434.998 " />
<polyline points="497.754,434.998 498.078,434.998 " />
<polyline points="500.017,434.998 500.34,434.998 " />
<polyline points="502.28,434.998 502.603,434.998 " />
<polyline points="504.543,434.998 504.866,434.998 " />
<polyline points="506.805,434.998 507.129,434.998 " />
<polyline points="509.068,434.998 509.391,434.998 " />
<polyline points="511.331,434.998 511.654,434.998 " />
<polyline points="513.594,434.998 513.917,434.998 " />
<polyline points="332.573,438.23 332.896,438.23 " />
<polyline points="334.835,438.23 335.159,438.23 " />
<polyline points="337.098,438.23 337.421,438.23 " />
<polyline points="339.361,438.23 339.684,438.23 " />
<polyline points="341.624,438.23 341.947,438.23 " />
<polyline points="343.886,438.23 344.21,438.23 " />
<polyline points="346.149,438.23 346.472,438.23 " />
<polyline points="348.412,438.23 348.735,438.23 " />
<polyline points="350.675,438.23 350.998,438.23 " />
<polyline points="352.937,438.23 353.261,438.23 " />
<polyline points="355.2,438.23 355.523,438.23 " />
<polyline points="357.463,438.23 357.786,438.23 " />
<polyline points="359.726,438.23 360.049,438.23 " />
<polyline points="361.989,438.23 362.312,438.23 " />
<polyline points="364.251,438.23 364.575,438.23 " />
<polyline points="366.514,438.23 366.837,438.23 " />
<polyline points="368.777,438.23 369.1,438.23 " />
<polyline points="371.04,438.23 371.363,438.23 " />
<polyline points="373.302,438.23 373.626,438.23 " />
<polyline points="375.565,438.23 375.888,438.23 " />
<polyline points="377.828,438.23 378.151,438.23 " />
<polyline points="380.091,438.23 380.414,438.23 " />
<polyline points="382.353,438.23 382.677,438.23 " />
<polyline points="384.616,438.23 384.939,438.23 " />
<polyline points="386.879,438.23 387.202,438.23 " />
<polyline points="389.142,438.23 389.465,438.23 " />
<polyline points="391.404,438.23 391.728,438.23 " />
<polyline points="393.667,438.23 393.99,438.23 " />
<polyline points="395.93,438.23 396.253,438.23 " />
<polyline points="398.193,438.23 398.516,438.23 " />
<polyline points="400.455,438.23 400.779,438.23 " />
<polyline points="402.718,438.23 403.041,438.23 " />
<polyline points="404.981,438.23 405.304,438.23 " />
<polyline points="407.244,438.23 407.567,438.23 " />
<polyline points="409.507,438.23 409.83,438.23 " />
<polyline points="411.769,438.23 412.093,438.23 " />
<polyline points="414.032,438.23 414.355,438.23 " />
<polyline points="416.295,438.23 416.618,438.23 " />
<polyline points="418.558,438.23 418.881,438.23 " />
<polyline points="420.82,438.23 421.144,438.23 " />
<polyline points="423.083,438.23 423.406,438.23 " />
<polyline points="425.346,438.23 425.669,438.23 " />
<polyline points="427.609,438.23 427.932,438.23 " />
<polyline points="429.871,438.23 430.195,438.23 " />
<polyline points="432.134,438.23 432.457,438.23 " />
<polyline points="434.397,438.23 434.72,438.23 " />
<polyline points="436.66,438.23 436.983,438.23 " />
<polyline points="438.922,438.23 439.246,438.23 " />
<polyline points="441.185,438.23 441.508,438.23 " />
<polyline points="443.448,438.23 443.771,438.23 " />
<polyline points="445.711,438.23 446.034,438.23 " />
<polyline points="447.973,438.23 448.297,438.23 " />
<polyline points="450.236,438.23 450.56,438.23 " />
<polyline points="452.499,438.23 452.822,438.23 " />
<polyline points="454.762,438.23 455.085,438.23 " />
<polyline points="457.025,438.23 457.348,438.23 " />
<polyline points="459.287,438.23 459.611,438.23 " />
<polyline points="461.55,438.23 461.873,438.23 " />
<polyline points="463.813,438.23 464.136,438.23 " />
<polyline points="466.076,438.23 466.399,438.23 " />
<polyline points="468.338,438.23 468.662,438.23 " />
<polyline points="470.601,438.23 470.924,438.23 " />
<polyline points="472.864,438.23 473.187,438.23 " />
<polyline points="475.127,438.23 475.45,438.23 " />
<polyline points="477.389,438.23 477.713,438.23 " />
<polyline points="479.652,438.23 479.975,438.23 " />
<polyline points="481.915,438.23 482.238,438.23 " />
<polyline points="484.178,438.23 484.501,438.23 " />
<polyline points="486.44,438.23 486.764,438.23 " />
<polyline points="488.703,438.23 489.026,438.23 " />
<polyline points="490.966,438.23 491.289,438.23 " />
<polyline points="493.229,438.23 493.552,438.23 " />
<polyline points="495.492,438.23 495.815,438.23 " />
<polyline points="497.754,438.23 498.078,438.23 " />
<polyline points="500.017,438.23 500.34,438.23 " />
<polyline points="502.28,438.23 502.603,438.23 " />
<polyline points="504.543,438.23 504.866,438.23 " />
<polyline points="506.805,438.23 507.129,438.23 " />
<polyline points="509.068,438.23 509.391,438.23 " />
<polyline points="511.331,438.23 511.654,438.23 " />
<polyline points="513.594,438.23 513.917,438.23 " />
</g>
<g stroke-width="2.5" clip-path="url(#clipId0)" fill="none" stroke="rgb(0,0,0)" >
<polyline points="330.719,409.065 514.192,409.065 " />
</g>
<g stroke-width="2.5" clip-path="url(#clipId0)" fill="none" stroke="rgb(127,0,255)" >
<polyline points="330.719,409.065 330.719,440.207 " />
<polyline points="330.719,440.207 514.192,440.207 " />
<polyline points="514.192,440.207 514.192,405.222 " />
</g>
<g stroke-width="2.5" clip-path="url(#clipId0)" fill="none" stroke="rgb(255,127,0)" >
<polyline points="368.019,426.962 368.019,345.49 " />
<polyline points="373.946,426.787 373.946,350.693 " />
</g>
<g stroke-width="2.5" clip-path="url(#clipId0)" fill="none" stroke="rgb(0,191,255)" >
<polyline points="364.238,327.944 392.624,327.944 " />
</g>
<g stroke-width="2.5" clip-path="url(#clipId0)" fill="none" stroke="rgb(255,127,0)" >
<polyline points="398.256,428.619 398.256,383.415 " />
<polyline points="404.183,428.444 404.183,383.415 " />
<polyline points="432.114,429.8 432.114,383.415 " />
<polyline points="438.041,429.625 438.041,383.415 " />
<polyline points="468.334,430.193 468.334,340.39 " />
<polyline points="474.261,430.018 474.261,340.287 " />
<polyline points="392.624,307.713 491.441,307.713 491.441,340.39 392.624,340.39 392.624,307.713 " />
<polyline points="368.019,345.49 422.958,345.49 " />
<polyline points="422.958,345.49 422.958,340.39 " />
<polyline points="373.946,350.693 427.924,350.693 " />
<polyline points="427.924,350.693 427.924,340.39 " />
<polyline points="386.156,364.987 453.617,364.987 453.617,383.415 386.156,383.415 386.156,364.987 " />
</g>
<g stroke-width="2.5" clip-path="url(#clipId0)" fill="none" stroke="rgb(0,255,255)" >
<polyline points="351.408,386.902 351.408,373.215 " />
<polyline points="351.408,373.215 386.156,373.215 " />
<polyline points="351.643,390.191 356.021,390.191 " />
<polyline points="356.021,390.191 356.021,377.175 " />
<polyline points="356.021,377.175 386.156,377.175 " />
<polyline points="444.867,364.987 444.867,362.999 " />
<polyline points="444.867,362.999 444.867,360.468 " />
<polyline points="444.867,360.468 444.867,354.99 " />
<polyline points="444.867,354.99 524.647,354.972 " />
<polyline points="446.397,364.987 446.397,360.329 " />
<polyline points="446.397,360.329 529.631,360.329 " />
<polyline points="479.846,307.713 479.846,281.919 " />
<polyline points="479.846,281.919 529.631,281.919 " />
<polyline points="484.901,307.713 484.901,289.782 " />
<polyline points="484.901,289.782 484.901,287.439 " />
<polyline points="484.901,287.439 524.647,287.439 " />
<polyline points="529.631,281.919 529.631,331.978 " />
<polyline points="524.647,287.439 524.647,354.972 " />
<polyline points="529.631,331.978 606.693,331.978 " />
<polyline points="529.631,336.339 640.409,336.339 " />
<polyline points="529.631,336.339 529.631,360.329 " />
<polyline points="640.409,316.784 682.86,316.784 682.86,353.311 640.409,353.311 640.409,316.784 " />
<path d="M682.86,316.784  A43.842,43.842 0 0,0 640.409,316.784 " />
<polyline points="611.558,331.978 611.558,290.512 " />
<polyline points="606.693,331.978 606.693,290.507 " />
<polyline points="611.558,331.978 640.409,331.978 " />
</g>
<g stroke-width="2.5" clip-path="url(#clipId0)" fill="none" stroke="rgb(255,0,255)" >
<polyline points="606.194,305.237 607.781,303.651 " />
<polyline points="606.89,306.283 609.522,303.651 " />
<polyline points="608.631,306.283 611.264,303.651 " />
<polyline points="610.373,306.283 613.006,303.651 " />
<polyline points="612.115,306.283 614.747,303.651 " />
<polyline points="615.662,302.737 616.479,301.919 " />
<polyline points="613.857,306.283 617.514,302.626 " />
<polyline points="615.598,306.283 617.514,304.368 " />
<polyline points="615.854,307.77 617.514,306.109 " />
<polyline points="606.194,303.786 606.329,303.651 " />
<polyline points="606.194,305.527 608.071,303.651 " />
<polyline points="607.18,306.283 609.813,303.651 " />
<polyline points="608.922,306.283 611.554,303.651 " />
<polyline points="610.663,306.283 613.296,303.651 " />
<polyline points="612.405,306.283 615.038,303.651 " />
<polyline points="615.662,303.027 616.769,301.919 " />
<polyline points="614.147,306.283 617.514,302.916 " />
<polyline points="615.662,306.51 617.514,304.658 " />
<polyline points="616.144,307.77 617.514,306.4 " />
<polyline points="606.194,304.076 606.619,303.651 " />
<polyline points="606.194,305.818 608.361,303.651 " />
<polyline points="607.47,306.283 610.103,303.651 " />
<polyline points="609.212,306.283 611.845,303.651 " />
<polyline points="610.954,306.283 613.586,303.651 " />
<polyline points="612.695,306.283 615.328,303.651 " />
<polyline points="615.662,303.317 617.059,301.919 " />
<polyline points="614.437,306.283 617.514,303.206 " />
<polyline points="615.662,306.801 617.514,304.948 " />
<polyline points="616.434,307.77 617.514,306.69 " />
<polyline points="606.194,304.366 606.91,303.651 " />
<polyline points="606.194,306.108 608.651,303.651 " />
<polyline points="607.761,306.283 610.393,303.651 " />
<polyline points="609.502,306.283 612.135,303.651 " />
<polyline points="611.244,306.283 613.877,303.651 " />
<polyline points="612.986,306.283 615.618,303.651 " />
<polyline points="615.662,303.607 617.35,301.919 " />
<polyline points="614.727,306.283 617.514,303.497 " />
<polyline points="615.662,307.091 617.514,305.238 " />
<polyline points="616.725,307.77 617.514,306.98 " />
<polyline points="615.662,306.283 606.194,306.283 606.194,303.651 615.662,303.651 " />
<polyline points="615.662,303.651 615.662,301.919 617.514,301.919 617.514,307.77 615.662,307.77 615.662,306.283 " />
<polyline points="625.055,336.868 623.468,335.282 " />
<polyline points="626.101,336.173 623.468,333.54 " />
<polyline points="626.101,334.431 623.468,331.799 " />
<polyline points="626.101,332.689 623.468,330.057 " />
<polyline points="626.101,330.948 623.468,328.315 " />
<polyline points="622.554,327.401 621.737,326.584 " />
<polyline points="626.101,329.206 622.443,325.548 " />
<polyline points="626.101,327.464 624.185,325.548 " />
<polyline points="627.587,327.209 625.927,325.548 " />
<polyline points="623.603,336.868 623.468,336.733 " />
<polyline points="625.345,336.868 623.468,334.992 " />
<polyline points="626.101,335.883 623.468,333.25 " />
<polyline points="626.101,334.141 623.468,331.508 " />
<polyline points="626.101,332.399 623.468,329.767 " />
<polyline points="626.101,330.657 623.468,328.025 " />
<polyline points="622.844,327.401 621.737,326.293 " />
<polyline points="626.101,328.916 622.734,325.548 " />
<polyline points="626.328,327.401 624.475,325.548 " />
<polyline points="627.587,326.918 626.217,325.548 " />
<polyline points="623.893,336.868 623.468,336.443 " />
<polyline points="625.635,336.868 623.468,334.701 " />
<polyline points="626.101,335.592 623.468,332.96 " />
<polyline points="626.101,333.851 623.468,331.218 " />
<polyline points="626.101,332.109 623.468,329.476 " />
<polyline points="626.101,330.367 623.468,327.734 " />
<polyline points="623.135,327.401 621.737,326.003 " />
<polyline points="626.101,328.625 623.024,325.548 " />
<polyline points="626.618,327.401 624.766,325.548 " />
<polyline points="627.587,326.628 626.507,325.548 " />
<polyline points="624.184,336.868 623.468,336.153 " />
<polyline points="625.925,336.868 623.468,334.411 " />
<polyline points="626.101,335.302 623.468,332.669 " />
<polyline points="626.101,333.56 623.468,330.928 " />
<polyline points="626.101,331.819 623.468,329.186 " />
<polyline points="626.101,330.077 623.468,327.444 " />
<polyline points="623.425,327.401 621.737,325.713 " />
<polyline points="626.101,328.335 623.314,325.548 " />
<polyline points="626.908,327.401 625.056,325.548 " />
<polyline points="627.587,326.338 626.798,325.548 " />
<polyline points="626.101,327.401 626.101,336.868 623.468,336.868 623.468,327.401 " />
<polyline points="623.468,327.401 621.737,327.401 621.737,325.548 627.587,325.548 627.587,327.401 626.101,327.401 " />
<polyline points="498.824,361.488 497.237,359.902 " />
<polyline points="499.87,360.793 497.237,358.16 " />
<polyline points="499.87,359.051 497.237,356.418 " />
<polyline points="499.87,357.309 497.237,354.676 " />
<polyline points="499.87,355.567 497.237,352.935 " />
<polyline points="496.323,352.021 495.506,351.203 " />
<polyline points="499.87,353.826 496.212,350.168 " />
<polyline points="499.87,352.084 497.954,350.168 " />
<polyline points="501.356,351.828 499.696,350.168 " />
<polyline points="497.372,361.488 497.237,361.353 " />
<polyline points="499.114,361.488 497.237,359.611 " />
<polyline points="499.87,360.502 497.237,357.87 " />
<polyline points="499.87,358.761 497.237,356.128 " />
<polyline points="499.87,357.019 497.237,354.386 " />
<polyline points="499.87,355.277 497.237,352.644 " />
<polyline points="496.614,352.021 495.506,350.913 " />
<polyline points="499.87,353.535 496.503,350.168 " />
<polyline points="500.097,352.021 498.244,350.168 " />
<polyline points="501.356,351.538 499.986,350.168 " />
<polyline points="497.663,361.488 497.237,361.063 " />
<polyline points="499.404,361.488 497.237,359.321 " />
<polyline points="499.87,360.212 497.237,357.579 " />
<polyline points="499.87,358.47 497.237,355.838 " />
<polyline points="499.87,356.729 497.237,354.096 " />
<polyline points="499.87,354.987 497.237,352.354 " />
<polyline points="496.904,352.021 495.506,350.623 " />
<polyline points="499.87,353.245 496.793,350.168 " />
<polyline points="500.387,352.021 498.535,350.168 " />
<polyline points="501.356,351.248 500.276,350.168 " />
<polyline points="497.953,361.488 497.237,360.773 " />
<polyline points="499.695,361.488 497.237,359.031 " />
<polyline points="499.87,359.922 497.237,357.289 " />
<polyline points="499.87,358.18 497.237,355.547 " />
<polyline points="499.87,356.438 497.237,353.806 " />
<polyline points="499.87,354.697 497.237,352.064 " />
<polyline points="497.194,352.021 495.506,350.333 " />
<polyline points="499.87,352.955 497.083,350.168 " />
<polyline points="500.678,352.021 498.825,350.168 " />
<polyline points="501.356,350.958 500.567,350.168 " />
<polyline points="499.87,352.021 499.87,361.488 497.237,361.488 497.237,352.021 " />
<polyline points="497.237,352.021 495.506,352.021 495.506,350.168 501.356,350.168 501.356,352.021 499.87,352.021 " />
<polyline points="504.692,288.708 503.106,287.121 " />
<polyline points="505.738,288.012 503.106,285.379 " />
<polyline points="505.738,286.27 503.106,283.638 " />
<polyline points="505.738,284.529 503.106,281.896 " />
<polyline points="505.738,282.787 503.106,280.154 " />
<polyline points="502.192,279.24 501.375,278.423 " />
<polyline points="505.738,281.045 502.081,277.388 " />
<polyline points="505.738,279.303 503.823,277.388 " />
<polyline points="507.225,279.048 505.564,277.388 " />
<polyline points="503.241,288.708 503.106,288.573 " />
<polyline points="504.983,288.708 503.106,286.831 " />
<polyline points="505.738,287.722 503.106,285.089 " />
<polyline points="505.738,285.98 503.106,283.347 " />
<polyline points="505.738,284.238 503.106,281.606 " />
<polyline points="505.738,282.497 503.106,279.864 " />
<polyline points="502.482,279.24 501.375,278.133 " />
<polyline points="505.738,280.755 502.371,277.388 " />
<polyline points="505.966,279.24 504.113,277.388 " />
<polyline points="507.225,278.758 505.855,277.388 " />
<polyline points="503.531,288.708 503.106,288.282 " />
<polyline points="505.273,288.708 503.106,286.541 " />
<polyline points="505.738,287.431 503.106,284.799 " />
<polyline points="505.738,285.69 503.106,283.057 " />
<polyline points="505.738,283.948 503.106,281.315 " />
<polyline points="505.738,282.206 503.106,279.574 " />
<polyline points="502.772,279.24 501.375,277.842 " />
<polyline points="505.738,280.465 502.662,277.388 " />
<polyline points="506.256,279.24 504.403,277.388 " />
<polyline points="507.225,278.467 506.145,277.388 " />
<polyline points="503.821,288.708 503.106,287.992 " />
<polyline points="505.563,288.708 503.106,286.25 " />
<polyline points="505.738,287.141 503.106,284.509 " />
<polyline points="505.738,285.399 503.106,282.767 " />
<polyline points="505.738,283.658 503.106,281.025 " />
<polyline points="505.738,281.916 503.106,279.283 " />
<polyline points="503.063,279.24 501.375,277.552 " />
<polyline points="505.738,280.174 502.952,277.388 " />
<polyline points="506.546,279.24 504.694,277.388 " />
<polyline points="507.225,278.177 506.435,277.388 " />
<polyline points="505.738,279.24 505.738,288.708 503.106,288.708 503.106,279.24 " />
<polyline points="503.106,279.24 501.375,279.24 501.375,277.388 507.225,277.388 507.225,279.24 505.738,279.24 " />
<polyline points="334.382,329.28 332.796,327.693 " />
<polyline points="335.428,328.584 332.796,325.952 " />
<polyline points="335.428,326.843 332.796,324.21 " />
<polyline points="335.428,325.101 332.796,322.468 " />
<polyline points="335.428,323.359 332.796,320.727 " />
<polyline points="331.882,319.812 331.064,318.995 " />
<polyline points="335.428,321.617 331.771,317.96 " />
<polyline points="335.428,319.876 333.513,317.96 " />
<polyline points="336.915,319.62 335.254,317.96 " />
<polyline points="332.931,329.28 332.796,329.145 " />
<polyline points="334.672,329.28 332.796,327.403 " />
<polyline points="335.428,328.294 332.796,325.661 " />
<polyline points="335.428,326.552 332.796,323.92 " />
<polyline points="335.428,324.811 332.796,322.178 " />
<polyline points="335.428,323.069 332.796,320.436 " />
<polyline points="332.172,319.812 331.064,318.705 " />
<polyline points="335.428,321.327 332.061,317.96 " />
<polyline points="335.655,319.812 333.803,317.96 " />
<polyline points="336.915,319.33 335.545,317.96 " />
<polyline points="333.221,329.28 332.796,328.855 " />
<polyline points="334.963,329.28 332.796,327.113 " />
<polyline points="335.428,328.004 332.796,325.371 " />
<polyline points="335.428,326.262 332.796,323.629 " />
<polyline points="335.428,324.52 332.796,321.888 " />
<polyline points="335.428,322.779 332.796,320.146 " />
<polyline points="332.462,319.812 331.064,318.415 " />
<polyline points="335.428,321.037 332.351,317.96 " />
<polyline points="335.946,319.812 334.093,317.96 " />
<polyline points="336.915,319.04 335.835,317.96 " />
<polyline points="333.511,329.28 332.796,328.564 " />
<polyline points="335.253,329.28 332.796,326.823 " />
<polyline points="335.428,327.713 332.796,325.081 " />
<polyline points="335.428,325.972 332.796,323.339 " />
<polyline points="335.428,324.23 332.796,321.597 " />
<polyline points="335.428,322.488 332.796,319.856 " />
<polyline points="332.752,319.812 331.064,318.124 " />
<polyline points="335.428,320.747 332.642,317.96 " />
<polyline points="336.236,319.812 334.383,317.96 " />
<polyline points="336.915,318.749 336.125,317.96 " />
<polyline points="335.428,319.812 335.428,329.28 332.796,329.28 332.796,319.812 " />
<polyline points="332.796,319.812 331.064,319.812 331.064,317.96 336.915,317.96 336.915,319.812 335.428,319.812 " />
<polyline points="334.382,391.146 332.796,389.56 " />
<polyline points="335.428,390.45 332.796,387.818 " />
<polyline points="335.428,388.709 332.796,386.076 " />
<polyline points="335.428,386.967 332.796,384.334 " />
<polyline points="335.428,385.225 332.796,382.593 " />
<polyline points="331.882,381.679 331.064,380.861 " />
<polyline points="335.428,383.484 331.771,379.826 " />
<polyline points="335.428,381.742 333.513,379.826 " />
<polyline points="336.915,381.486 335.254,379.826 " />
<polyline points="332.931,391.146 332.796,391.011 " />
<polyline points="334.672,391.146 332.796,389.269 " />
<polyline points="335.428,390.16 332.796,387.528 " />
<polyline points="335.428,388.418 332.796,385.786 " />
<polyline points="335.428,386.677 332.796,384.044 " />
<polyline points="335.428,384.935 332.796,382.302 " />
<polyline points="332.172,381.679 331.064,380.571 " />
<polyline points="335.428,383.193 332.061,379.826 " />
<polyline points="335.655,381.679 333.803,379.826 " />
<polyline points="336.915,381.196 335.545,379.826 " />
<polyline points="333.221,391.146 332.796,390.721 " />
<polyline points="334.963,391.146 332.796,388.979 " />
<polyline points="335.428,389.87 332.796,387.237 " />
<polyline points="335.428,388.128 332.796,385.496 " />
<polyline points="335.428,386.386 332.796,383.754 " />
<polyline points="335.428,384.645 332.796,382.012 " />
<polyline points="332.462,381.679 331.064,380.281 " />
<polyline points="335.428,382.903 332.351,379.826 " />
<polyline points="335.946,381.679 334.093,379.826 " />
<polyline points="336.915,380.906 335.835,379.826 " />
<polyline points="333.511,391.146 332.796,390.43 " />
<polyline points="335.253,391.146 332.796,388.689 " />
<polyline points="335.428,389.58 332.796,386.947 " />
<polyline points="335.428,387.838 332.796,385.205 " />
<polyline points="335.428,386.096 332.796,383.464 " />
<polyline points="335.428,384.354 332.796,381.722 " />
<polyline points="332.752,381.679 331.064,379.99 " />
<polyline points="335.428,382.613 332.642,379.826 " />
<polyline points="336.236,381.679 334.383,379.826 " />
<polyline points="336.915,380.615 336.125,379.826 " />
<polyline points="335.428,381.679 335.428,391.146 332.796,391.146 332.796,381.679 " />
<polyline points="332.796,381.679 331.064,381.679 331.064,379.826 336.915,379.826 336.915,381.679 335.428,381.679 " />
<polyline points="354.065,540.532 352.479,538.945 " />
<polyline points="355.111,539.836 352.479,537.204 " />
<polyline points="355.111,538.094 352.479,535.462 " />
<polyline points="355.111,536.353 352.479,533.72 " />
<polyline points="355.111,534.611 352.479,531.978 " />
<polyline points="351.564,531.064 350.747,530.247 " />
<polyline points="355.111,532.869 351.454,529.212 " />
<polyline points="355.111,531.128 353.195,529.212 " />
<polyline points="356.597,530.872 354.937,529.212 " />
<polyline points="352.613,540.532 352.479,540.397 " />
<polyline points="354.355,540.532 352.479,538.655 " />
<polyline points="355.111,539.546 352.479,536.913 " />
<polyline points="355.111,537.804 352.479,535.172 " />
<polyline points="355.111,536.062 352.479,533.43 " />
<polyline points="355.111,534.321 352.479,531.688 " />
<polyline points="351.855,531.064 350.747,529.957 " />
<polyline points="355.111,532.579 351.744,529.212 " />
<polyline points="355.338,531.064 353.486,529.212 " />
<polyline points="356.597,530.582 355.227,529.212 " />
<polyline points="352.904,540.532 352.479,540.106 " />
<polyline points="354.646,540.532 352.479,538.365 " />
<polyline points="355.111,539.256 352.479,536.623 " />
<polyline points="355.111,537.514 352.479,534.881 " />
<polyline points="355.111,535.772 352.479,533.14 " />
<polyline points="355.111,534.03 352.479,531.398 " />
<polyline points="352.145,531.064 350.747,529.666 " />
<polyline points="355.111,532.289 352.034,529.212 " />
<polyline points="355.628,531.064 353.776,529.212 " />
<polyline points="356.597,530.291 355.518,529.212 " />
<polyline points="353.194,540.532 352.479,539.816 " />
<polyline points="354.936,540.532 352.479,538.074 " />
<polyline points="355.111,538.965 352.479,536.333 " />
<polyline points="355.111,537.224 352.479,534.591 " />
<polyline points="355.111,535.482 352.479,532.849 " />
<polyline points="355.111,533.74 352.479,531.108 " />
<polyline points="352.435,531.064 350.747,529.376 " />
<polyline points="355.111,531.998 352.324,529.212 " />
<polyline points="355.919,531.064 354.066,529.212 " />
<polyline points="356.597,530.001 355.808,529.212 " />
<polyline points="355.111,531.064 355.111,540.532 352.479,540.532 352.479,531.064 " />
<polyline points="352.479,531.064 350.747,531.064 350.747,529.212 356.597,529.212 356.597,531.064 355.111,531.064 " />
<polyline points="354.805,599.889 353.219,598.302 " />
<polyline points="355.852,599.193 353.219,596.561 " />
<polyline points="355.852,597.451 353.219,594.819 " />
<polyline points="355.852,595.71 353.219,593.077 " />
<polyline points="355.852,593.968 353.219,591.335 " />
<polyline points="352.305,590.421 351.488,589.604 " />
<polyline points="355.852,592.226 352.194,588.569 " />
<polyline points="355.852,590.484 353.936,588.569 " />
<polyline points="357.338,590.229 355.677,588.569 " />
<polyline points="353.354,599.889 353.219,599.754 " />
<polyline points="355.096,599.889 353.219,598.012 " />
<polyline points="355.852,598.903 353.219,596.27 " />
<polyline points="355.852,597.161 353.219,594.529 " />
<polyline points="355.852,595.419 353.219,592.787 " />
<polyline points="355.852,593.678 353.219,591.045 " />
<polyline points="352.595,590.421 351.488,589.314 " />
<polyline points="355.852,591.936 352.484,588.569 " />
<polyline points="356.079,590.421 354.226,588.569 " />
<polyline points="357.338,589.939 355.968,588.569 " />
<polyline points="353.644,599.889 353.219,599.463 " />
<polyline points="355.386,599.889 353.219,597.722 " />
<polyline points="355.852,598.613 353.219,595.98 " />
<polyline points="355.852,596.871 353.219,594.238 " />
<polyline points="355.852,595.129 353.219,592.496 " />
<polyline points="355.852,593.387 353.219,590.755 " />
<polyline points="352.885,590.421 351.488,589.023 " />
<polyline points="355.852,591.646 352.775,588.569 " />
<polyline points="356.369,590.421 354.516,588.569 " />
<polyline points="357.338,589.648 356.258,588.569 " />
<polyline points="353.934,599.889 353.219,599.173 " />
<polyline points="355.676,599.889 353.219,597.431 " />
<polyline points="355.852,598.322 353.219,595.69 " />
<polyline points="355.852,596.581 353.219,593.948 " />
<polyline points="355.852,594.839 353.219,592.206 " />
<polyline points="355.852,593.097 353.219,590.464 " />
<polyline points="353.176,590.421 351.488,588.733 " />
<polyline points="355.852,591.355 353.065,588.569 " />
<polyline points="356.659,590.421 354.807,588.569 " />
<polyline points="357.338,589.358 356.548,588.569 " />
<polyline points="355.852,590.421 355.852,599.889 353.219,599.889 353.219,590.421 " />
<polyline points="353.219,590.421 351.488,590.421 351.488,588.569 357.338,588.569 357.338,590.421 355.852,590.421 " />
</g>
<g stroke-width="2.5" clip-path="url(#clipId0)" fill="rgb(255,127,0)" stroke="none" >
<text transform="matrix(12.9301 0 -0 12.9301 412.409 331.65)" font-family="SimSun,'sans-serif'" font-size="1.43" >&#25277;&#25918;&#27893;</text>
<text transform="matrix(8.08129 0 -0 8.08129 400.768 378.984)" font-family="SimSun,'sans-serif'" font-size="1.43" >&#25277;&#25918;&#27893;</text>
</g>
</svg>
