<?xml version="1.0" standalone="no"?>
<svg viewBox="0 0 2000 800" version="1.1" xmlns="http://www.w3.org/2000/svg" xmlns:xlink="http://www.w3.org/1999/xlink" stroke-linecap="round" stroke-linejoin="round" fill-rule="evenodd" xml:space="preserve" >
<defs >
<clipPath id="clipId0" >
<path d="M0,800 2000,800 2000,0 0,0 z" />
</clipPath>
</defs>
<g stroke-width="1" clip-path="url(#clipId0)" fill="none" stroke="rgb(0,0,0)" />
<g stroke-width="2.5" clip-path="url(#clipId0)" fill="none" stroke="rgb(0,255,255)" >
<polyline points="1217.53,635.362 717.662,635.362 " />
<polyline points="1216.6,642.925 716.721,643.551 " />
<polyline points="717.662,635.362 717.662,635.362 " />
<polyline points="717.662,635.362 702.803,635.362 " />
<polyline points="702.803,635.362 702.803,686.059 " />
<polyline points="702.803,736.756 1213.29,736.756 " />
<polyline points="716.721,643.551 716.721,727.984 " />
<polyline points="716.721,727.984 1213.37,728.268 " />
<polyline points="702.803,701.542 371.201,701.542 " />
<polyline points="702.803,686.059 382.86,685.358 " />
<polyline points="702.803,701.542 702.803,736.756 " />
</g>
<g stroke-width="2.5" clip-path="url(#clipId0)" fill="none" stroke="rgb(0,0,0)" >
<polyline points="318.658,517.765 330.898,505.525 " />
<polyline points="359.837,517.765 372.105,505.497 " />
<polyline points="401.016,517.765 413.312,505.469 " />
<polyline points="442.195,517.765 454.519,505.442 " />
<polyline points="483.375,517.765 495.726,505.414 " />
<polyline points="524.554,517.765 536.933,505.386 " />
<polyline points="565.733,517.765 578.14,505.358 " />
<polyline points="606.912,517.765 619.347,505.33 " />
<polyline points="648.091,517.765 660.554,505.302 " />
<polyline points="689.27,517.765 701.761,505.274 " />
<polyline points="730.449,517.765 742.968,505.246 " />
<polyline points="771.628,517.765 784.176,505.218 " />
<polyline points="812.807,517.765 825.383,505.19 " />
<polyline points="853.987,517.765 866.59,505.162 " />
<polyline points="895.166,517.765 907.797,505.134 " />
<polyline points="936.345,517.765 949.004,505.106 " />
<polyline points="977.524,517.765 990.211,505.078 " />
<polyline points="1018.7,517.765 1031.42,505.05 " />
<polyline points="1059.88,517.765 1072.62,505.022 " />
<polyline points="1101.06,517.765 1113.83,504.994 " />
<polyline points="1142.24,517.765 1155.04,504.966 " />
<polyline points="1183.42,517.765 1196.25,504.938 " />
<polyline points="1224.6,517.765 1237.45,504.91 " />
<polyline points="1265.78,517.765 1278.66,504.882 " />
<polyline points="325.521,517.765 337.766,505.521 " />
<polyline points="366.7,517.765 378.973,505.493 " />
<polyline points="407.88,517.765 420.18,505.465 " />
<polyline points="449.059,517.765 461.387,505.437 " />
<polyline points="490.238,517.765 502.594,505.409 " />
<polyline points="531.417,517.765 543.801,505.381 " />
<polyline points="572.596,517.765 585.008,505.353 " />
<polyline points="613.775,517.765 626.215,505.325 " />
<polyline points="654.954,517.765 667.422,505.297 " />
<polyline points="696.133,517.765 708.629,505.269 " />
<polyline points="737.312,517.765 749.836,505.241 " />
<polyline points="778.491,517.765 791.043,505.213 " />
<polyline points="819.671,517.765 832.25,505.185 " />
<polyline points="860.85,517.765 873.458,505.157 " />
<polyline points="902.029,517.765 914.665,505.129 " />
<polyline points="943.208,517.765 955.872,505.101 " />
<polyline points="984.387,517.765 997.079,505.073 " />
<polyline points="1025.57,517.765 1038.29,505.045 " />
<polyline points="1066.75,517.765 1079.49,505.017 " />
<polyline points="1107.92,517.765 1120.7,504.99 " />
<polyline points="1149.1,517.765 1161.91,504.962 " />
<polyline points="1190.28,517.765 1203.11,504.934 " />
<polyline points="1231.46,517.765 1244.32,504.906 " />
<polyline points="1272.64,517.765 1285.53,504.878 " />
<polyline points="332.384,517.765 344.634,505.516 " />
<polyline points="373.564,517.765 385.841,505.488 " />
<polyline points="414.743,517.765 427.048,505.46 " />
<polyline points="455.922,517.765 468.255,505.432 " />
<polyline points="497.101,517.765 509.462,505.404 " />
<polyline points="538.28,517.765 550.669,505.376 " />
<polyline points="579.459,517.765 591.876,505.348 " />
<polyline points="620.638,517.765 633.083,505.32 " />
<polyline points="661.817,517.765 674.29,505.292 " />
<polyline points="702.996,517.765 715.497,505.264 " />
<polyline points="744.176,517.765 756.704,505.236 " />
<polyline points="785.355,517.765 797.911,505.209 " />
<polyline points="826.534,517.765 839.118,505.181 " />
<polyline points="867.713,517.765 880.325,505.153 " />
<polyline points="908.892,517.765 921.532,505.125 " />
<polyline points="950.071,517.765 962.739,505.097 " />
<polyline points="991.25,517.765 1003.95,505.069 " />
<polyline points="1032.43,517.765 1045.15,505.041 " />
<polyline points="1073.61,517.765 1086.36,505.013 " />
<polyline points="1114.79,517.765 1127.57,504.985 " />
<polyline points="1155.97,517.765 1168.77,504.957 " />
<polyline points="1197.15,517.765 1209.98,504.929 " />
<polyline points="1238.32,517.765 1251.19,504.901 " />
<polyline points="1279.5,517.765 1292.4,504.873 " />
<polyline points="339.248,517.765 351.501,505.511 " />
<polyline points="380.427,517.765 392.708,505.483 " />
<polyline points="421.606,517.765 433.915,505.455 " />
<polyline points="462.785,517.765 475.123,505.428 " />
<polyline points="503.964,517.765 516.33,505.4 " />
<polyline points="545.143,517.765 557.537,505.372 " />
<polyline points="586.322,517.765 598.744,505.344 " />
<polyline points="627.501,517.765 639.951,505.316 " />
<polyline points="668.681,517.765 681.158,505.288 " />
<polyline points="709.86,517.765 722.365,505.26 " />
<polyline points="751.039,517.765 763.572,505.232 " />
<polyline points="792.218,517.765 804.779,505.204 " />
<polyline points="833.397,517.765 845.986,505.176 " />
<polyline points="874.576,517.765 887.193,505.148 " />
<polyline points="915.755,517.765 928.4,505.12 " />
<polyline points="956.934,517.765 969.607,505.092 " />
<polyline points="998.113,517.765 1010.81,505.064 " />
<polyline points="1039.29,517.765 1052.02,505.036 " />
<polyline points="1080.47,517.765 1093.23,505.008 " />
<polyline points="1121.65,517.765 1134.44,504.98 " />
<polyline points="1162.83,517.765 1175.64,504.952 " />
<polyline points="1204.01,517.765 1216.85,504.924 " />
<polyline points="1245.19,517.765 1258.06,504.896 " />
<polyline points="1286.37,517.765 1297.65,506.48 " />
<polyline points="311.936,505.538 1297.65,504.869 1297.65,517.765 311.936,517.765 311.936,505.538 " />
</g>
<g stroke-width="2.5" clip-path="url(#clipId0)" fill="rgb(0,0,0)" stroke="none" >
<text transform="matrix(12.7375 0 -0 12.7375 327.693 498.945)" font-family="SimSun,'sans-serif'" font-size="1.43" >&#22320;&#38754;</text>
<text transform="matrix(12.7375 0 -0 12.7375 328.624 540.301)" font-family="SimSun,'sans-serif'" font-size="1.43" >&#20117;&#19979;</text>
</g>
<g stroke-width="2.5" clip-path="url(#clipId0)" fill="none" stroke="rgb(0,255,255)" >
<polyline points="371.201,701.542 371.201,356.481 " />
<polyline points="382.86,685.358 382.934,369.745 " />
<polyline points="382.934,369.745 477.253,369.745 " />
<polyline points="371.201,356.481 477.253,356.481 " />
<polyline points="477.253,356.481 477.253,306.024 " />
<polyline points="477.253,369.745 477.253,409.758 " />
<polyline points="477.253,409.758 589.391,409.758 " />
<polyline points="477.253,306.024 583.206,306.024 " />
<polyline points="481.9,370.09 481.9,404.574 " />
<polyline points="481.9,404.574 746.879,404.574 " />
<polyline points="589.391,409.758 747.25,409.758 " />
<polyline points="481.9,370.09 481.9,311.646 " />
<polyline points="481.9,311.646 767.101,311.646 " />
<polyline points="583.206,306.024 811.842,306.024 " />
</g>
<g stroke-width="2.5" clip-path="url(#clipId0)" fill="none" stroke="rgb(0,127,255)" >
<polyline points="717.191,439.621 717.7,439.621 " />
<polyline points="720.757,439.621 721.267,439.621 " />
<polyline points="724.324,439.621 724.833,439.621 " />
<polyline points="727.89,439.621 728.4,439.621 " />
<polyline points="731.457,439.621 731.966,439.621 " />
<polyline points="735.023,439.621 735.533,439.621 " />
<polyline points="738.59,439.621 739.099,439.621 " />
<polyline points="742.156,439.621 742.666,439.621 " />
<polyline points="745.723,439.621 746.232,439.621 " />
<polyline points="749.289,439.621 749.799,439.621 " />
<polyline points="752.856,439.621 753.365,439.621 " />
<polyline points="756.422,439.621 756.932,439.621 " />
<polyline points="759.989,439.621 760.498,439.621 " />
<polyline points="763.555,439.621 764.065,439.621 " />
<polyline points="767.122,439.621 767.631,439.621 " />
<polyline points="770.688,439.621 771.198,439.621 " />
<polyline points="774.255,439.621 774.765,439.621 " />
<polyline points="777.822,439.621 778.331,439.621 " />
<polyline points="781.388,439.621 781.898,439.621 " />
<polyline points="784.955,439.621 785.464,439.621 " />
<polyline points="788.521,439.621 789.031,439.621 " />
<polyline points="792.088,439.621 792.597,439.621 " />
<polyline points="795.654,439.621 796.164,439.621 " />
<polyline points="799.221,439.621 799.73,439.621 " />
<polyline points="802.787,439.621 803.297,439.621 " />
<polyline points="806.354,439.621 806.863,439.621 " />
<polyline points="809.92,439.621 810.43,439.621 " />
<polyline points="813.487,439.621 813.996,439.621 " />
<polyline points="817.053,439.621 817.563,439.621 " />
<polyline points="820.62,439.621 821.129,439.621 " />
<polyline points="824.186,439.621 824.696,439.621 " />
<polyline points="827.753,439.621 828.262,439.621 " />
<polyline points="831.319,439.621 831.829,439.621 " />
<polyline points="834.886,439.621 835.395,439.621 " />
<polyline points="838.452,439.621 838.962,439.621 " />
<polyline points="842.019,439.621 842.528,439.621 " />
<polyline points="845.585,439.621 846.095,439.621 " />
<polyline points="849.152,439.621 849.661,439.621 " />
<polyline points="852.718,439.621 853.228,439.621 " />
<polyline points="856.285,439.621 856.794,439.621 " />
<polyline points="859.851,439.621 860.361,439.621 " />
<polyline points="863.418,439.621 863.927,439.621 " />
<polyline points="866.984,439.621 867.494,439.621 " />
<polyline points="870.551,439.621 871.06,439.621 " />
<polyline points="874.117,439.621 874.627,439.621 " />
<polyline points="877.684,439.621 878.193,439.621 " />
<polyline points="881.25,439.621 881.76,439.621 " />
<polyline points="884.817,439.621 885.326,439.621 " />
<polyline points="888.383,439.621 888.893,439.621 " />
<polyline points="891.95,439.621 892.459,439.621 " />
<polyline points="895.516,439.621 896.026,439.621 " />
<polyline points="899.083,439.621 899.592,439.621 " />
<polyline points="902.649,439.621 903.159,439.621 " />
<polyline points="906.216,439.621 906.725,439.621 " />
<polyline points="909.782,439.621 910.292,439.621 " />
<polyline points="913.349,439.621 913.858,439.621 " />
<polyline points="916.916,439.621 917.425,439.621 " />
<polyline points="920.482,439.621 920.992,439.621 " />
<polyline points="924.049,439.621 924.558,439.621 " />
<polyline points="927.615,439.621 928.125,439.621 " />
<polyline points="931.182,439.621 931.691,439.621 " />
<polyline points="934.748,439.621 935.258,439.621 " />
<polyline points="938.315,439.621 938.824,439.621 " />
<polyline points="941.881,439.621 942.391,439.621 " />
<polyline points="945.448,439.621 945.957,439.621 " />
<polyline points="949.014,439.621 949.524,439.621 " />
<polyline points="952.581,439.621 953.09,439.621 " />
<polyline points="956.147,439.621 956.657,439.621 " />
<polyline points="959.714,439.621 960.223,439.621 " />
<polyline points="963.28,439.621 963.79,439.621 " />
<polyline points="966.847,439.621 967.356,439.621 " />
<polyline points="970.413,439.621 970.923,439.621 " />
<polyline points="973.98,439.621 974.489,439.621 " />
<polyline points="977.546,439.621 978.056,439.621 " />
<polyline points="981.113,439.621 981.622,439.621 " />
<polyline points="984.679,439.621 985.189,439.621 " />
<polyline points="988.246,439.621 988.755,439.621 " />
<polyline points="991.812,439.621 992.322,439.621 " />
<polyline points="995.379,439.621 995.888,439.621 " />
<polyline points="998.945,439.621 999.455,439.621 " />
<polyline points="1002.51,439.621 1003.02,439.621 " />
<polyline points="717.191,444.716 717.7,444.716 " />
<polyline points="720.757,444.716 721.267,444.716 " />
<polyline points="724.324,444.716 724.833,444.716 " />
<polyline points="727.89,444.716 728.4,444.716 " />
<polyline points="731.457,444.716 731.966,444.716 " />
<polyline points="735.023,444.716 735.533,444.716 " />
<polyline points="738.59,444.716 739.099,444.716 " />
<polyline points="742.156,444.716 742.666,444.716 " />
<polyline points="745.723,444.716 746.232,444.716 " />
<polyline points="749.289,444.716 749.799,444.716 " />
<polyline points="752.856,444.716 753.365,444.716 " />
<polyline points="756.422,444.716 756.932,444.716 " />
<polyline points="759.989,444.716 760.498,444.716 " />
<polyline points="763.555,444.716 764.065,444.716 " />
<polyline points="767.122,444.716 767.631,444.716 " />
<polyline points="770.688,444.716 771.198,444.716 " />
<polyline points="774.255,444.716 774.765,444.716 " />
<polyline points="777.822,444.716 778.331,444.716 " />
<polyline points="781.388,444.716 781.898,444.716 " />
<polyline points="784.955,444.716 785.464,444.716 " />
<polyline points="788.521,444.716 789.031,444.716 " />
<polyline points="792.088,444.716 792.597,444.716 " />
<polyline points="795.654,444.716 796.164,444.716 " />
<polyline points="799.221,444.716 799.73,444.716 " />
<polyline points="802.787,444.716 803.297,444.716 " />
<polyline points="806.354,444.716 806.863,444.716 " />
<polyline points="809.92,444.716 810.43,444.716 " />
<polyline points="813.487,444.716 813.996,444.716 " />
<polyline points="817.053,444.716 817.563,444.716 " />
<polyline points="820.62,444.716 821.129,444.716 " />
<polyline points="824.186,444.716 824.696,444.716 " />
<polyline points="827.753,444.716 828.262,444.716 " />
<polyline points="831.319,444.716 831.829,444.716 " />
<polyline points="834.886,444.716 835.395,444.716 " />
<polyline points="838.452,444.716 838.962,444.716 " />
<polyline points="842.019,444.716 842.528,444.716 " />
<polyline points="845.585,444.716 846.095,444.716 " />
<polyline points="849.152,444.716 849.661,444.716 " />
<polyline points="852.718,444.716 853.228,444.716 " />
<polyline points="856.285,444.716 856.794,444.716 " />
<polyline points="859.851,444.716 860.361,444.716 " />
<polyline points="863.418,444.716 863.927,444.716 " />
<polyline points="866.984,444.716 867.494,444.716 " />
<polyline points="870.551,444.716 871.06,444.716 " />
<polyline points="874.117,444.716 874.627,444.716 " />
<polyline points="877.684,444.716 878.193,444.716 " />
<polyline points="881.25,444.716 881.76,444.716 " />
<polyline points="884.817,444.716 885.326,444.716 " />
<polyline points="888.383,444.716 888.893,444.716 " />
<polyline points="891.95,444.716 892.459,444.716 " />
<polyline points="895.516,444.716 896.026,444.716 " />
<polyline points="899.083,444.716 899.592,444.716 " />
<polyline points="902.649,444.716 903.159,444.716 " />
<polyline points="906.216,444.716 906.725,444.716 " />
<polyline points="909.782,444.716 910.292,444.716 " />
<polyline points="913.349,444.716 913.858,444.716 " />
<polyline points="916.916,444.716 917.425,444.716 " />
<polyline points="920.482,444.716 920.992,444.716 " />
<polyline points="924.049,444.716 924.558,444.716 " />
<polyline points="927.615,444.716 928.125,444.716 " />
<polyline points="931.182,444.716 931.691,444.716 " />
<polyline points="934.748,444.716 935.258,444.716 " />
<polyline points="938.315,444.716 938.824,444.716 " />
<polyline points="941.881,444.716 942.391,444.716 " />
<polyline points="945.448,444.716 945.957,444.716 " />
<polyline points="949.014,444.716 949.524,444.716 " />
<polyline points="952.581,444.716 953.09,444.716 " />
<polyline points="956.147,444.716 956.657,444.716 " />
<polyline points="959.714,444.716 960.223,444.716 " />
<polyline points="963.28,444.716 963.79,444.716 " />
<polyline points="966.847,444.716 967.356,444.716 " />
<polyline points="970.413,444.716 970.923,444.716 " />
<polyline points="973.98,444.716 974.489,444.716 " />
<polyline points="977.546,444.716 978.056,444.716 " />
<polyline points="981.113,444.716 981.622,444.716 " />
<polyline points="984.679,444.716 985.189,444.716 " />
<polyline points="988.246,444.716 988.755,444.716 " />
<polyline points="991.812,444.716 992.322,444.716 " />
<polyline points="995.379,444.716 995.888,444.716 " />
<polyline points="998.945,444.716 999.455,444.716 " />
<polyline points="1002.51,444.716 1003.02,444.716 " />
<polyline points="717.191,449.811 717.7,449.811 " />
<polyline points="720.757,449.811 721.267,449.811 " />
<polyline points="724.324,449.811 724.833,449.811 " />
<polyline points="727.89,449.811 728.4,449.811 " />
<polyline points="731.457,449.811 731.966,449.811 " />
<polyline points="735.023,449.811 735.533,449.811 " />
<polyline points="738.59,449.811 739.099,449.811 " />
<polyline points="742.156,449.811 742.666,449.811 " />
<polyline points="745.723,449.811 746.232,449.811 " />
<polyline points="749.289,449.811 749.799,449.811 " />
<polyline points="752.856,449.811 753.365,449.811 " />
<polyline points="756.422,449.811 756.932,449.811 " />
<polyline points="759.989,449.811 760.498,449.811 " />
<polyline points="763.555,449.811 764.065,449.811 " />
<polyline points="767.122,449.811 767.631,449.811 " />
<polyline points="770.688,449.811 771.198,449.811 " />
<polyline points="774.255,449.811 774.765,449.811 " />
<polyline points="777.822,449.811 778.331,449.811 " />
<polyline points="781.388,449.811 781.898,449.811 " />
<polyline points="784.955,449.811 785.464,449.811 " />
<polyline points="788.521,449.811 789.031,449.811 " />
<polyline points="792.088,449.811 792.597,449.811 " />
<polyline points="795.654,449.811 796.164,449.811 " />
<polyline points="799.221,449.811 799.73,449.811 " />
<polyline points="802.787,449.811 803.297,449.811 " />
<polyline points="806.354,449.811 806.863,449.811 " />
<polyline points="809.92,449.811 810.43,449.811 " />
<polyline points="813.487,449.811 813.996,449.811 " />
<polyline points="817.053,449.811 817.563,449.811 " />
<polyline points="820.62,449.811 821.129,449.811 " />
<polyline points="824.186,449.811 824.696,449.811 " />
<polyline points="827.753,449.811 828.262,449.811 " />
<polyline points="831.319,449.811 831.829,449.811 " />
<polyline points="834.886,449.811 835.395,449.811 " />
<polyline points="838.452,449.811 838.962,449.811 " />
<polyline points="842.019,449.811 842.528,449.811 " />
<polyline points="845.585,449.811 846.095,449.811 " />
<polyline points="849.152,449.811 849.661,449.811 " />
<polyline points="852.718,449.811 853.228,449.811 " />
<polyline points="856.285,449.811 856.794,449.811 " />
<polyline points="859.851,449.811 860.361,449.811 " />
<polyline points="863.418,449.811 863.927,449.811 " />
<polyline points="866.984,449.811 867.494,449.811 " />
<polyline points="870.551,449.811 871.06,449.811 " />
<polyline points="874.117,449.811 874.627,449.811 " />
<polyline points="877.684,449.811 878.193,449.811 " />
<polyline points="881.25,449.811 881.76,449.811 " />
<polyline points="884.817,449.811 885.326,449.811 " />
<polyline points="888.383,449.811 888.893,449.811 " />
<polyline points="891.95,449.811 892.459,449.811 " />
<polyline points="895.516,449.811 896.026,449.811 " />
<polyline points="899.083,449.811 899.592,449.811 " />
<polyline points="902.649,449.811 903.159,449.811 " />
<polyline points="906.216,449.811 906.725,449.811 " />
<polyline points="909.782,449.811 910.292,449.811 " />
<polyline points="913.349,449.811 913.858,449.811 " />
<polyline points="916.916,449.811 917.425,449.811 " />
<polyline points="920.482,449.811 920.992,449.811 " />
<polyline points="924.049,449.811 924.558,449.811 " />
<polyline points="927.615,449.811 928.125,449.811 " />
<polyline points="931.182,449.811 931.691,449.811 " />
<polyline points="934.748,449.811 935.258,449.811 " />
<polyline points="938.315,449.811 938.824,449.811 " />
<polyline points="941.881,449.811 942.391,449.811 " />
<polyline points="945.448,449.811 945.957,449.811 " />
<polyline points="949.014,449.811 949.524,449.811 " />
<polyline points="952.581,449.811 953.09,449.811 " />
<polyline points="956.147,449.811 956.657,449.811 " />
<polyline points="959.714,449.811 960.223,449.811 " />
<polyline points="963.28,449.811 963.79,449.811 " />
<polyline points="966.847,449.811 967.356,449.811 " />
<polyline points="970.413,449.811 970.923,449.811 " />
<polyline points="973.98,449.811 974.489,449.811 " />
<polyline points="977.546,449.811 978.056,449.811 " />
<polyline points="981.113,449.811 981.622,449.811 " />
<polyline points="984.679,449.811 985.189,449.811 " />
<polyline points="988.246,449.811 988.755,449.811 " />
<polyline points="991.812,449.811 992.322,449.811 " />
<polyline points="995.379,449.811 995.888,449.811 " />
<polyline points="998.945,449.811 999.455,449.811 " />
<polyline points="1002.51,449.811 1003.02,449.811 " />
<polyline points="717.191,454.907 717.7,454.907 " />
<polyline points="720.757,454.907 721.267,454.907 " />
<polyline points="724.324,454.907 724.833,454.907 " />
<polyline points="727.89,454.907 728.4,454.907 " />
<polyline points="731.457,454.907 731.966,454.907 " />
<polyline points="735.023,454.907 735.533,454.907 " />
<polyline points="738.59,454.907 739.099,454.907 " />
<polyline points="742.156,454.907 742.666,454.907 " />
<polyline points="745.723,454.907 746.232,454.907 " />
<polyline points="749.289,454.907 749.799,454.907 " />
<polyline points="752.856,454.907 753.365,454.907 " />
<polyline points="756.422,454.907 756.932,454.907 " />
<polyline points="759.989,454.907 760.498,454.907 " />
<polyline points="763.555,454.907 764.065,454.907 " />
<polyline points="767.122,454.907 767.631,454.907 " />
<polyline points="770.688,454.907 771.198,454.907 " />
<polyline points="774.255,454.907 774.765,454.907 " />
<polyline points="777.822,454.907 778.331,454.907 " />
<polyline points="781.388,454.907 781.898,454.907 " />
<polyline points="784.955,454.907 785.464,454.907 " />
<polyline points="788.521,454.907 789.031,454.907 " />
<polyline points="792.088,454.907 792.597,454.907 " />
<polyline points="795.654,454.907 796.164,454.907 " />
<polyline points="799.221,454.907 799.73,454.907 " />
<polyline points="802.787,454.907 803.297,454.907 " />
<polyline points="806.354,454.907 806.863,454.907 " />
<polyline points="809.92,454.907 810.43,454.907 " />
<polyline points="813.487,454.907 813.996,454.907 " />
<polyline points="817.053,454.907 817.563,454.907 " />
<polyline points="820.62,454.907 821.129,454.907 " />
<polyline points="824.186,454.907 824.696,454.907 " />
<polyline points="827.753,454.907 828.262,454.907 " />
<polyline points="831.319,454.907 831.829,454.907 " />
<polyline points="834.886,454.907 835.395,454.907 " />
<polyline points="838.452,454.907 838.962,454.907 " />
<polyline points="842.019,454.907 842.528,454.907 " />
<polyline points="845.585,454.907 846.095,454.907 " />
<polyline points="849.152,454.907 849.661,454.907 " />
<polyline points="852.718,454.907 853.228,454.907 " />
<polyline points="856.285,454.907 856.794,454.907 " />
<polyline points="859.851,454.907 860.361,454.907 " />
<polyline points="863.418,454.907 863.927,454.907 " />
<polyline points="866.984,454.907 867.494,454.907 " />
<polyline points="870.551,454.907 871.06,454.907 " />
<polyline points="874.117,454.907 874.627,454.907 " />
<polyline points="877.684,454.907 878.193,454.907 " />
<polyline points="881.25,454.907 881.76,454.907 " />
<polyline points="884.817,454.907 885.326,454.907 " />
<polyline points="888.383,454.907 888.893,454.907 " />
<polyline points="891.95,454.907 892.459,454.907 " />
<polyline points="895.516,454.907 896.026,454.907 " />
<polyline points="899.083,454.907 899.592,454.907 " />
<polyline points="902.649,454.907 903.159,454.907 " />
<polyline points="906.216,454.907 906.725,454.907 " />
<polyline points="909.782,454.907 910.292,454.907 " />
<polyline points="913.349,454.907 913.858,454.907 " />
<polyline points="916.916,454.907 917.425,454.907 " />
<polyline points="920.482,454.907 920.992,454.907 " />
<polyline points="924.049,454.907 924.558,454.907 " />
<polyline points="927.615,454.907 928.125,454.907 " />
<polyline points="931.182,454.907 931.691,454.907 " />
<polyline points="934.748,454.907 935.258,454.907 " />
<polyline points="938.315,454.907 938.824,454.907 " />
<polyline points="941.881,454.907 942.391,454.907 " />
<polyline points="945.448,454.907 945.957,454.907 " />
<polyline points="949.014,454.907 949.524,454.907 " />
<polyline points="952.581,454.907 953.09,454.907 " />
<polyline points="956.147,454.907 956.657,454.907 " />
<polyline points="959.714,454.907 960.223,454.907 " />
<polyline points="963.28,454.907 963.79,454.907 " />
<polyline points="966.847,454.907 967.356,454.907 " />
<polyline points="970.413,454.907 970.923,454.907 " />
<polyline points="973.98,454.907 974.489,454.907 " />
<polyline points="977.546,454.907 978.056,454.907 " />
<polyline points="981.113,454.907 981.622,454.907 " />
<polyline points="984.679,454.907 985.189,454.907 " />
<polyline points="988.246,454.907 988.755,454.907 " />
<polyline points="991.812,454.907 992.322,454.907 " />
<polyline points="995.379,454.907 995.888,454.907 " />
<polyline points="998.945,454.907 999.455,454.907 " />
<polyline points="1002.51,454.907 1003.02,454.907 " />
<polyline points="717.191,460.002 717.7,460.002 " />
<polyline points="720.757,460.002 721.267,460.002 " />
<polyline points="724.324,460.002 724.833,460.002 " />
<polyline points="727.89,460.002 728.4,460.002 " />
<polyline points="731.457,460.002 731.966,460.002 " />
<polyline points="735.023,460.002 735.533,460.002 " />
<polyline points="738.59,460.002 739.099,460.002 " />
<polyline points="742.156,460.002 742.666,460.002 " />
<polyline points="745.723,460.002 746.232,460.002 " />
<polyline points="749.289,460.002 749.799,460.002 " />
<polyline points="752.856,460.002 753.365,460.002 " />
<polyline points="756.422,460.002 756.932,460.002 " />
<polyline points="759.989,460.002 760.498,460.002 " />
<polyline points="763.555,460.002 764.065,460.002 " />
<polyline points="767.122,460.002 767.631,460.002 " />
<polyline points="770.688,460.002 771.198,460.002 " />
<polyline points="774.255,460.002 774.765,460.002 " />
<polyline points="777.822,460.002 778.331,460.002 " />
<polyline points="781.388,460.002 781.898,460.002 " />
<polyline points="784.955,460.002 785.464,460.002 " />
<polyline points="788.521,460.002 789.031,460.002 " />
<polyline points="792.088,460.002 792.597,460.002 " />
<polyline points="795.654,460.002 796.164,460.002 " />
<polyline points="799.221,460.002 799.73,460.002 " />
<polyline points="802.787,460.002 803.297,460.002 " />
<polyline points="806.354,460.002 806.863,460.002 " />
<polyline points="809.92,460.002 810.43,460.002 " />
<polyline points="813.487,460.002 813.996,460.002 " />
<polyline points="817.053,460.002 817.563,460.002 " />
<polyline points="820.62,460.002 821.129,460.002 " />
<polyline points="824.186,460.002 824.696,460.002 " />
<polyline points="827.753,460.002 828.262,460.002 " />
<polyline points="831.319,460.002 831.829,460.002 " />
<polyline points="834.886,460.002 835.395,460.002 " />
<polyline points="838.452,460.002 838.962,460.002 " />
<polyline points="842.019,460.002 842.528,460.002 " />
<polyline points="845.585,460.002 846.095,460.002 " />
<polyline points="849.152,460.002 849.661,460.002 " />
<polyline points="852.718,460.002 853.228,460.002 " />
<polyline points="856.285,460.002 856.794,460.002 " />
<polyline points="859.851,460.002 860.361,460.002 " />
<polyline points="863.418,460.002 863.927,460.002 " />
<polyline points="866.984,460.002 867.494,460.002 " />
<polyline points="870.551,460.002 871.06,460.002 " />
<polyline points="874.117,460.002 874.627,460.002 " />
<polyline points="877.684,460.002 878.193,460.002 " />
<polyline points="881.25,460.002 881.76,460.002 " />
<polyline points="884.817,460.002 885.326,460.002 " />
<polyline points="888.383,460.002 888.893,460.002 " />
<polyline points="891.95,460.002 892.459,460.002 " />
<polyline points="895.516,460.002 896.026,460.002 " />
<polyline points="899.083,460.002 899.592,460.002 " />
<polyline points="902.649,460.002 903.159,460.002 " />
<polyline points="906.216,460.002 906.725,460.002 " />
<polyline points="909.782,460.002 910.292,460.002 " />
<polyline points="913.349,460.002 913.858,460.002 " />
<polyline points="916.916,460.002 917.425,460.002 " />
<polyline points="920.482,460.002 920.992,460.002 " />
<polyline points="924.049,460.002 924.558,460.002 " />
<polyline points="927.615,460.002 928.125,460.002 " />
<polyline points="931.182,460.002 931.691,460.002 " />
<polyline points="934.748,460.002 935.258,460.002 " />
<polyline points="938.315,460.002 938.824,460.002 " />
<polyline points="941.881,460.002 942.391,460.002 " />
<polyline points="945.448,460.002 945.957,460.002 " />
<polyline points="949.014,460.002 949.524,460.002 " />
<polyline points="952.581,460.002 953.09,460.002 " />
<polyline points="956.147,460.002 956.657,460.002 " />
<polyline points="959.714,460.002 960.223,460.002 " />
<polyline points="963.28,460.002 963.79,460.002 " />
<polyline points="966.847,460.002 967.356,460.002 " />
<polyline points="970.413,460.002 970.923,460.002 " />
<polyline points="973.98,460.002 974.489,460.002 " />
<polyline points="977.546,460.002 978.056,460.002 " />
<polyline points="981.113,460.002 981.622,460.002 " />
<polyline points="984.679,460.002 985.189,460.002 " />
<polyline points="988.246,460.002 988.755,460.002 " />
<polyline points="991.812,460.002 992.322,460.002 " />
<polyline points="995.379,460.002 995.888,460.002 " />
<polyline points="998.945,460.002 999.455,460.002 " />
<polyline points="1002.51,460.002 1003.02,460.002 " />
<polyline points="717.191,465.097 717.7,465.097 " />
<polyline points="720.757,465.097 721.267,465.097 " />
<polyline points="724.324,465.097 724.833,465.097 " />
<polyline points="727.89,465.097 728.4,465.097 " />
<polyline points="731.457,465.097 731.966,465.097 " />
<polyline points="735.023,465.097 735.533,465.097 " />
<polyline points="738.59,465.097 739.099,465.097 " />
<polyline points="742.156,465.097 742.666,465.097 " />
<polyline points="745.723,465.097 746.232,465.097 " />
<polyline points="749.289,465.097 749.799,465.097 " />
<polyline points="752.856,465.097 753.365,465.097 " />
<polyline points="756.422,465.097 756.932,465.097 " />
<polyline points="759.989,465.097 760.498,465.097 " />
<polyline points="763.555,465.097 764.065,465.097 " />
<polyline points="767.122,465.097 767.631,465.097 " />
<polyline points="770.688,465.097 771.198,465.097 " />
<polyline points="774.255,465.097 774.765,465.097 " />
<polyline points="777.822,465.097 778.331,465.097 " />
<polyline points="781.388,465.097 781.898,465.097 " />
<polyline points="784.955,465.097 785.464,465.097 " />
<polyline points="788.521,465.097 789.031,465.097 " />
<polyline points="792.088,465.097 792.597,465.097 " />
<polyline points="795.654,465.097 796.164,465.097 " />
<polyline points="799.221,465.097 799.73,465.097 " />
<polyline points="802.787,465.097 803.297,465.097 " />
<polyline points="806.354,465.097 806.863,465.097 " />
<polyline points="809.92,465.097 810.43,465.097 " />
<polyline points="813.487,465.097 813.996,465.097 " />
<polyline points="817.053,465.097 817.563,465.097 " />
<polyline points="820.62,465.097 821.129,465.097 " />
<polyline points="824.186,465.097 824.696,465.097 " />
<polyline points="827.753,465.097 828.262,465.097 " />
<polyline points="831.319,465.097 831.829,465.097 " />
<polyline points="834.886,465.097 835.395,465.097 " />
<polyline points="838.452,465.097 838.962,465.097 " />
<polyline points="842.019,465.097 842.528,465.097 " />
<polyline points="845.585,465.097 846.095,465.097 " />
<polyline points="849.152,465.097 849.661,465.097 " />
<polyline points="852.718,465.097 853.228,465.097 " />
<polyline points="856.285,465.097 856.794,465.097 " />
<polyline points="859.851,465.097 860.361,465.097 " />
<polyline points="863.418,465.097 863.927,465.097 " />
<polyline points="866.984,465.097 867.494,465.097 " />
<polyline points="870.551,465.097 871.06,465.097 " />
<polyline points="874.117,465.097 874.627,465.097 " />
<polyline points="877.684,465.097 878.193,465.097 " />
<polyline points="881.25,465.097 881.76,465.097 " />
<polyline points="884.817,465.097 885.326,465.097 " />
<polyline points="888.383,465.097 888.893,465.097 " />
<polyline points="891.95,465.097 892.459,465.097 " />
<polyline points="895.516,465.097 896.026,465.097 " />
<polyline points="899.083,465.097 899.592,465.097 " />
<polyline points="902.649,465.097 903.159,465.097 " />
<polyline points="906.216,465.097 906.725,465.097 " />
<polyline points="909.782,465.097 910.292,465.097 " />
<polyline points="913.349,465.097 913.858,465.097 " />
<polyline points="916.916,465.097 917.425,465.097 " />
<polyline points="920.482,465.097 920.992,465.097 " />
<polyline points="924.049,465.097 924.558,465.097 " />
<polyline points="927.615,465.097 928.125,465.097 " />
<polyline points="931.182,465.097 931.691,465.097 " />
<polyline points="934.748,465.097 935.258,465.097 " />
<polyline points="938.315,465.097 938.824,465.097 " />
<polyline points="941.881,465.097 942.391,465.097 " />
<polyline points="945.448,465.097 945.957,465.097 " />
<polyline points="949.014,465.097 949.524,465.097 " />
<polyline points="952.581,465.097 953.09,465.097 " />
<polyline points="956.147,465.097 956.657,465.097 " />
<polyline points="959.714,465.097 960.223,465.097 " />
<polyline points="963.28,465.097 963.79,465.097 " />
<polyline points="966.847,465.097 967.356,465.097 " />
<polyline points="970.413,465.097 970.923,465.097 " />
<polyline points="973.98,465.097 974.489,465.097 " />
<polyline points="977.546,465.097 978.056,465.097 " />
<polyline points="981.113,465.097 981.622,465.097 " />
<polyline points="984.679,465.097 985.189,465.097 " />
<polyline points="988.246,465.097 988.755,465.097 " />
<polyline points="991.812,465.097 992.322,465.097 " />
<polyline points="995.379,465.097 995.888,465.097 " />
<polyline points="998.945,465.097 999.455,465.097 " />
<polyline points="1002.51,465.097 1003.02,465.097 " />
<polyline points="717.191,470.192 717.7,470.192 " />
<polyline points="720.757,470.192 721.267,470.192 " />
<polyline points="724.324,470.192 724.833,470.192 " />
<polyline points="727.89,470.192 728.4,470.192 " />
<polyline points="731.457,470.192 731.966,470.192 " />
<polyline points="735.023,470.192 735.533,470.192 " />
<polyline points="738.59,470.192 739.099,470.192 " />
<polyline points="742.156,470.192 742.666,470.192 " />
<polyline points="745.723,470.192 746.232,470.192 " />
<polyline points="749.289,470.192 749.799,470.192 " />
<polyline points="752.856,470.192 753.365,470.192 " />
<polyline points="756.422,470.192 756.932,470.192 " />
<polyline points="759.989,470.192 760.498,470.192 " />
<polyline points="763.555,470.192 764.065,470.192 " />
<polyline points="767.122,470.192 767.631,470.192 " />
<polyline points="770.688,470.192 771.198,470.192 " />
<polyline points="774.255,470.192 774.765,470.192 " />
<polyline points="777.822,470.192 778.331,470.192 " />
<polyline points="781.388,470.192 781.898,470.192 " />
<polyline points="784.955,470.192 785.464,470.192 " />
<polyline points="788.521,470.192 789.031,470.192 " />
<polyline points="792.088,470.192 792.597,470.192 " />
<polyline points="795.654,470.192 796.164,470.192 " />
<polyline points="799.221,470.192 799.73,470.192 " />
<polyline points="802.787,470.192 803.297,470.192 " />
<polyline points="806.354,470.192 806.863,470.192 " />
<polyline points="809.92,470.192 810.43,470.192 " />
<polyline points="813.487,470.192 813.996,470.192 " />
<polyline points="817.053,470.192 817.563,470.192 " />
<polyline points="820.62,470.192 821.129,470.192 " />
<polyline points="824.186,470.192 824.696,470.192 " />
<polyline points="827.753,470.192 828.262,470.192 " />
<polyline points="831.319,470.192 831.829,470.192 " />
<polyline points="834.886,470.192 835.395,470.192 " />
<polyline points="838.452,470.192 838.962,470.192 " />
<polyline points="842.019,470.192 842.528,470.192 " />
<polyline points="845.585,470.192 846.095,470.192 " />
<polyline points="849.152,470.192 849.661,470.192 " />
<polyline points="852.718,470.192 853.228,470.192 " />
<polyline points="856.285,470.192 856.794,470.192 " />
<polyline points="859.851,470.192 860.361,470.192 " />
<polyline points="863.418,470.192 863.927,470.192 " />
<polyline points="866.984,470.192 867.494,470.192 " />
<polyline points="870.551,470.192 871.06,470.192 " />
<polyline points="874.117,470.192 874.627,470.192 " />
<polyline points="877.684,470.192 878.193,470.192 " />
<polyline points="881.25,470.192 881.76,470.192 " />
<polyline points="884.817,470.192 885.326,470.192 " />
<polyline points="888.383,470.192 888.893,470.192 " />
<polyline points="891.95,470.192 892.459,470.192 " />
<polyline points="895.516,470.192 896.026,470.192 " />
<polyline points="899.083,470.192 899.592,470.192 " />
<polyline points="902.649,470.192 903.159,470.192 " />
<polyline points="906.216,470.192 906.725,470.192 " />
<polyline points="909.782,470.192 910.292,470.192 " />
<polyline points="913.349,470.192 913.858,470.192 " />
<polyline points="916.916,470.192 917.425,470.192 " />
<polyline points="920.482,470.192 920.992,470.192 " />
<polyline points="924.049,470.192 924.558,470.192 " />
<polyline points="927.615,470.192 928.125,470.192 " />
<polyline points="931.182,470.192 931.691,470.192 " />
<polyline points="934.748,470.192 935.258,470.192 " />
<polyline points="938.315,470.192 938.824,470.192 " />
<polyline points="941.881,470.192 942.391,470.192 " />
<polyline points="945.448,470.192 945.957,470.192 " />
<polyline points="949.014,470.192 949.524,470.192 " />
<polyline points="952.581,470.192 953.09,470.192 " />
<polyline points="956.147,470.192 956.657,470.192 " />
<polyline points="959.714,470.192 960.223,470.192 " />
<polyline points="963.28,470.192 963.79,470.192 " />
<polyline points="966.847,470.192 967.356,470.192 " />
<polyline points="970.413,470.192 970.923,470.192 " />
<polyline points="973.98,470.192 974.489,470.192 " />
<polyline points="977.546,470.192 978.056,470.192 " />
<polyline points="981.113,470.192 981.622,470.192 " />
<polyline points="984.679,470.192 985.189,470.192 " />
<polyline points="988.246,470.192 988.755,470.192 " />
<polyline points="991.812,470.192 992.322,470.192 " />
<polyline points="995.379,470.192 995.888,470.192 " />
<polyline points="998.945,470.192 999.455,470.192 " />
<polyline points="1002.51,470.192 1003.02,470.192 " />
<polyline points="717.191,475.287 717.7,475.287 " />
<polyline points="720.757,475.287 721.267,475.287 " />
<polyline points="724.324,475.287 724.833,475.287 " />
<polyline points="727.89,475.287 728.4,475.287 " />
<polyline points="731.457,475.287 731.966,475.287 " />
<polyline points="735.023,475.287 735.533,475.287 " />
<polyline points="738.59,475.287 739.099,475.287 " />
<polyline points="742.156,475.287 742.666,475.287 " />
<polyline points="745.723,475.287 746.232,475.287 " />
<polyline points="749.289,475.287 749.799,475.287 " />
<polyline points="752.856,475.287 753.365,475.287 " />
<polyline points="756.422,475.287 756.932,475.287 " />
<polyline points="759.989,475.287 760.498,475.287 " />
<polyline points="763.555,475.287 764.065,475.287 " />
<polyline points="767.122,475.287 767.631,475.287 " />
<polyline points="770.688,475.287 771.198,475.287 " />
<polyline points="774.255,475.287 774.765,475.287 " />
<polyline points="777.822,475.287 778.331,475.287 " />
<polyline points="781.388,475.287 781.898,475.287 " />
<polyline points="784.955,475.287 785.464,475.287 " />
<polyline points="788.521,475.287 789.031,475.287 " />
<polyline points="792.088,475.287 792.597,475.287 " />
<polyline points="795.654,475.287 796.164,475.287 " />
<polyline points="799.221,475.287 799.73,475.287 " />
<polyline points="802.787,475.287 803.297,475.287 " />
<polyline points="806.354,475.287 806.863,475.287 " />
<polyline points="809.92,475.287 810.43,475.287 " />
<polyline points="813.487,475.287 813.996,475.287 " />
<polyline points="817.053,475.287 817.563,475.287 " />
<polyline points="820.62,475.287 821.129,475.287 " />
<polyline points="824.186,475.287 824.696,475.287 " />
<polyline points="827.753,475.287 828.262,475.287 " />
<polyline points="831.319,475.287 831.829,475.287 " />
<polyline points="834.886,475.287 835.395,475.287 " />
<polyline points="838.452,475.287 838.962,475.287 " />
<polyline points="842.019,475.287 842.528,475.287 " />
<polyline points="845.585,475.287 846.095,475.287 " />
<polyline points="849.152,475.287 849.661,475.287 " />
<polyline points="852.718,475.287 853.228,475.287 " />
<polyline points="856.285,475.287 856.794,475.287 " />
<polyline points="859.851,475.287 860.361,475.287 " />
<polyline points="863.418,475.287 863.927,475.287 " />
<polyline points="866.984,475.287 867.494,475.287 " />
<polyline points="870.551,475.287 871.06,475.287 " />
<polyline points="874.117,475.287 874.627,475.287 " />
<polyline points="877.684,475.287 878.193,475.287 " />
<polyline points="881.25,475.287 881.76,475.287 " />
<polyline points="884.817,475.287 885.326,475.287 " />
<polyline points="888.383,475.287 888.893,475.287 " />
<polyline points="891.95,475.287 892.459,475.287 " />
<polyline points="895.516,475.287 896.026,475.287 " />
<polyline points="899.083,475.287 899.592,475.287 " />
<polyline points="902.649,475.287 903.159,475.287 " />
<polyline points="906.216,475.287 906.725,475.287 " />
<polyline points="909.782,475.287 910.292,475.287 " />
<polyline points="913.349,475.287 913.858,475.287 " />
<polyline points="916.916,475.287 917.425,475.287 " />
<polyline points="920.482,475.287 920.992,475.287 " />
<polyline points="924.049,475.287 924.558,475.287 " />
<polyline points="927.615,475.287 928.125,475.287 " />
<polyline points="931.182,475.287 931.691,475.287 " />
<polyline points="934.748,475.287 935.258,475.287 " />
<polyline points="938.315,475.287 938.824,475.287 " />
<polyline points="941.881,475.287 942.391,475.287 " />
<polyline points="945.448,475.287 945.957,475.287 " />
<polyline points="949.014,475.287 949.524,475.287 " />
<polyline points="952.581,475.287 953.09,475.287 " />
<polyline points="956.147,475.287 956.657,475.287 " />
<polyline points="959.714,475.287 960.223,475.287 " />
<polyline points="963.28,475.287 963.79,475.287 " />
<polyline points="966.847,475.287 967.356,475.287 " />
<polyline points="970.413,475.287 970.923,475.287 " />
<polyline points="973.98,475.287 974.489,475.287 " />
<polyline points="977.546,475.287 978.056,475.287 " />
<polyline points="981.113,475.287 981.622,475.287 " />
<polyline points="984.679,475.287 985.189,475.287 " />
<polyline points="988.246,475.287 988.755,475.287 " />
<polyline points="991.812,475.287 992.322,475.287 " />
<polyline points="995.379,475.287 995.888,475.287 " />
<polyline points="998.945,475.287 999.455,475.287 " />
<polyline points="1002.51,475.287 1003.02,475.287 " />
<polyline points="717.191,480.382 717.7,480.382 " />
<polyline points="720.757,480.382 721.267,480.382 " />
<polyline points="724.324,480.382 724.833,480.382 " />
<polyline points="727.89,480.382 728.4,480.382 " />
<polyline points="731.457,480.382 731.966,480.382 " />
<polyline points="735.023,480.382 735.533,480.382 " />
<polyline points="738.59,480.382 739.099,480.382 " />
<polyline points="742.156,480.382 742.666,480.382 " />
<polyline points="745.723,480.382 746.232,480.382 " />
<polyline points="749.289,480.382 749.799,480.382 " />
<polyline points="752.856,480.382 753.365,480.382 " />
<polyline points="756.422,480.382 756.932,480.382 " />
<polyline points="759.989,480.382 760.498,480.382 " />
<polyline points="763.555,480.382 764.065,480.382 " />
<polyline points="767.122,480.382 767.631,480.382 " />
<polyline points="770.688,480.382 771.198,480.382 " />
<polyline points="774.255,480.382 774.765,480.382 " />
<polyline points="777.822,480.382 778.331,480.382 " />
<polyline points="781.388,480.382 781.898,480.382 " />
<polyline points="784.955,480.382 785.464,480.382 " />
<polyline points="788.521,480.382 789.031,480.382 " />
<polyline points="792.088,480.382 792.597,480.382 " />
<polyline points="795.654,480.382 796.164,480.382 " />
<polyline points="799.221,480.382 799.73,480.382 " />
<polyline points="802.787,480.382 803.297,480.382 " />
<polyline points="806.354,480.382 806.863,480.382 " />
<polyline points="809.92,480.382 810.43,480.382 " />
<polyline points="813.487,480.382 813.996,480.382 " />
<polyline points="817.053,480.382 817.563,480.382 " />
<polyline points="820.62,480.382 821.129,480.382 " />
<polyline points="824.186,480.382 824.696,480.382 " />
<polyline points="827.753,480.382 828.262,480.382 " />
<polyline points="831.319,480.382 831.829,480.382 " />
<polyline points="834.886,480.382 835.395,480.382 " />
<polyline points="838.452,480.382 838.962,480.382 " />
<polyline points="842.019,480.382 842.528,480.382 " />
<polyline points="845.585,480.382 846.095,480.382 " />
<polyline points="849.152,480.382 849.661,480.382 " />
<polyline points="852.718,480.382 853.228,480.382 " />
<polyline points="856.285,480.382 856.794,480.382 " />
<polyline points="859.851,480.382 860.361,480.382 " />
<polyline points="863.418,480.382 863.927,480.382 " />
<polyline points="866.984,480.382 867.494,480.382 " />
<polyline points="870.551,480.382 871.06,480.382 " />
<polyline points="874.117,480.382 874.627,480.382 " />
<polyline points="877.684,480.382 878.193,480.382 " />
<polyline points="881.25,480.382 881.76,480.382 " />
<polyline points="884.817,480.382 885.326,480.382 " />
<polyline points="888.383,480.382 888.893,480.382 " />
<polyline points="891.95,480.382 892.459,480.382 " />
<polyline points="895.516,480.382 896.026,480.382 " />
<polyline points="899.083,480.382 899.592,480.382 " />
<polyline points="902.649,480.382 903.159,480.382 " />
<polyline points="906.216,480.382 906.725,480.382 " />
<polyline points="909.782,480.382 910.292,480.382 " />
<polyline points="913.349,480.382 913.858,480.382 " />
<polyline points="916.916,480.382 917.425,480.382 " />
<polyline points="920.482,480.382 920.992,480.382 " />
<polyline points="924.049,480.382 924.558,480.382 " />
<polyline points="927.615,480.382 928.125,480.382 " />
<polyline points="931.182,480.382 931.691,480.382 " />
<polyline points="934.748,480.382 935.258,480.382 " />
<polyline points="938.315,480.382 938.824,480.382 " />
<polyline points="941.881,480.382 942.391,480.382 " />
<polyline points="945.448,480.382 945.957,480.382 " />
<polyline points="949.014,480.382 949.524,480.382 " />
<polyline points="952.581,480.382 953.09,480.382 " />
<polyline points="956.147,480.382 956.657,480.382 " />
<polyline points="959.714,480.382 960.223,480.382 " />
<polyline points="963.28,480.382 963.79,480.382 " />
<polyline points="966.847,480.382 967.356,480.382 " />
<polyline points="970.413,480.382 970.923,480.382 " />
<polyline points="973.98,480.382 974.489,480.382 " />
<polyline points="977.546,480.382 978.056,480.382 " />
<polyline points="981.113,480.382 981.622,480.382 " />
<polyline points="984.679,480.382 985.189,480.382 " />
<polyline points="988.246,480.382 988.755,480.382 " />
<polyline points="991.812,480.382 992.322,480.382 " />
<polyline points="995.379,480.382 995.888,480.382 " />
<polyline points="998.945,480.382 999.455,480.382 " />
<polyline points="1002.51,480.382 1003.02,480.382 " />
<polyline points="717.191,485.477 717.7,485.477 " />
<polyline points="720.757,485.477 721.267,485.477 " />
<polyline points="724.324,485.477 724.833,485.477 " />
<polyline points="727.89,485.477 728.4,485.477 " />
<polyline points="731.457,485.477 731.966,485.477 " />
<polyline points="735.023,485.477 735.533,485.477 " />
<polyline points="738.59,485.477 739.099,485.477 " />
<polyline points="742.156,485.477 742.666,485.477 " />
<polyline points="745.723,485.477 746.232,485.477 " />
<polyline points="749.289,485.477 749.799,485.477 " />
<polyline points="752.856,485.477 753.365,485.477 " />
<polyline points="756.422,485.477 756.932,485.477 " />
<polyline points="759.989,485.477 760.498,485.477 " />
<polyline points="763.555,485.477 764.065,485.477 " />
<polyline points="767.122,485.477 767.631,485.477 " />
<polyline points="770.688,485.477 771.198,485.477 " />
<polyline points="774.255,485.477 774.765,485.477 " />
<polyline points="777.822,485.477 778.331,485.477 " />
<polyline points="781.388,485.477 781.898,485.477 " />
<polyline points="784.955,485.477 785.464,485.477 " />
<polyline points="788.521,485.477 789.031,485.477 " />
<polyline points="792.088,485.477 792.597,485.477 " />
<polyline points="795.654,485.477 796.164,485.477 " />
<polyline points="799.221,485.477 799.73,485.477 " />
<polyline points="802.787,485.477 803.297,485.477 " />
<polyline points="806.354,485.477 806.863,485.477 " />
<polyline points="809.92,485.477 810.43,485.477 " />
<polyline points="813.487,485.477 813.996,485.477 " />
<polyline points="817.053,485.477 817.563,485.477 " />
<polyline points="820.62,485.477 821.129,485.477 " />
<polyline points="824.186,485.477 824.696,485.477 " />
<polyline points="827.753,485.477 828.262,485.477 " />
<polyline points="831.319,485.477 831.829,485.477 " />
<polyline points="834.886,485.477 835.395,485.477 " />
<polyline points="838.452,485.477 838.962,485.477 " />
<polyline points="842.019,485.477 842.528,485.477 " />
<polyline points="845.585,485.477 846.095,485.477 " />
<polyline points="849.152,485.477 849.661,485.477 " />
<polyline points="852.718,485.477 853.228,485.477 " />
<polyline points="856.285,485.477 856.794,485.477 " />
<polyline points="859.851,485.477 860.361,485.477 " />
<polyline points="863.418,485.477 863.927,485.477 " />
<polyline points="866.984,485.477 867.494,485.477 " />
<polyline points="870.551,485.477 871.06,485.477 " />
<polyline points="874.117,485.477 874.627,485.477 " />
<polyline points="877.684,485.477 878.193,485.477 " />
<polyline points="881.25,485.477 881.76,485.477 " />
<polyline points="884.817,485.477 885.326,485.477 " />
<polyline points="888.383,485.477 888.893,485.477 " />
<polyline points="891.95,485.477 892.459,485.477 " />
<polyline points="895.516,485.477 896.026,485.477 " />
<polyline points="899.083,485.477 899.592,485.477 " />
<polyline points="902.649,485.477 903.159,485.477 " />
<polyline points="906.216,485.477 906.725,485.477 " />
<polyline points="909.782,485.477 910.292,485.477 " />
<polyline points="913.349,485.477 913.858,485.477 " />
<polyline points="916.916,485.477 917.425,485.477 " />
<polyline points="920.482,485.477 920.992,485.477 " />
<polyline points="924.049,485.477 924.558,485.477 " />
<polyline points="927.615,485.477 928.125,485.477 " />
<polyline points="931.182,485.477 931.691,485.477 " />
<polyline points="934.748,485.477 935.258,485.477 " />
<polyline points="938.315,485.477 938.824,485.477 " />
<polyline points="941.881,485.477 942.391,485.477 " />
<polyline points="945.448,485.477 945.957,485.477 " />
<polyline points="949.014,485.477 949.524,485.477 " />
<polyline points="952.581,485.477 953.09,485.477 " />
<polyline points="956.147,485.477 956.657,485.477 " />
<polyline points="959.714,485.477 960.223,485.477 " />
<polyline points="963.28,485.477 963.79,485.477 " />
<polyline points="966.847,485.477 967.356,485.477 " />
<polyline points="970.413,485.477 970.923,485.477 " />
<polyline points="973.98,485.477 974.489,485.477 " />
<polyline points="977.546,485.477 978.056,485.477 " />
<polyline points="981.113,485.477 981.622,485.477 " />
<polyline points="984.679,485.477 985.189,485.477 " />
<polyline points="988.246,485.477 988.755,485.477 " />
<polyline points="991.812,485.477 992.322,485.477 " />
<polyline points="995.379,485.477 995.888,485.477 " />
<polyline points="998.945,485.477 999.455,485.477 " />
<polyline points="1002.51,485.477 1003.02,485.477 " />
</g>
<g stroke-width="2.5" clip-path="url(#clipId0)" fill="none" stroke="rgb(0,0,0)" >
<polyline points="714.269,439.507 1003.45,439.507 " />
</g>
<g stroke-width="2.5" clip-path="url(#clipId0)" fill="none" stroke="rgb(127,0,255)" >
<polyline points="714.269,439.507 714.269,488.592 " />
<polyline points="714.269,488.592 1003.45,488.592 " />
<polyline points="1003.45,488.592 1003.45,433.45 " />
</g>
<g stroke-width="2.5" clip-path="url(#clipId0)" fill="none" stroke="rgb(255,127,0)" >
<polyline points="773.06,467.716 773.06,339.301 " />
<polyline points="782.403,467.44 782.403,347.502 " />
</g>
<g stroke-width="2.5" clip-path="url(#clipId0)" fill="none" stroke="rgb(0,191,255)" >
<polyline points="767.101,311.646 811.842,311.646 " />
</g>
<g stroke-width="2.5" clip-path="url(#clipId0)" fill="none" stroke="rgb(255,127,0)" >
<polyline points="820.72,470.327 820.72,399.078 " />
<polyline points="830.062,470.051 830.062,399.078 " />
<polyline points="874.085,472.188 874.085,399.078 " />
<polyline points="883.428,471.913 883.428,399.078 " />
<polyline points="931.174,472.809 931.174,331.263 " />
<polyline points="940.517,472.533 940.517,331.101 " />
<polyline points="811.842,279.759 967.596,279.759 967.596,331.263 811.842,331.263 811.842,279.759 " />
<polyline points="773.06,339.301 859.654,339.301 " />
<polyline points="859.654,339.301 859.654,331.263 " />
<polyline points="782.403,347.502 867.482,347.502 " />
<polyline points="867.482,347.502 867.482,331.263 " />
<polyline points="801.648,370.032 907.978,370.032 907.978,399.078 801.648,399.078 801.648,370.032 " />
</g>
<g stroke-width="2.5" clip-path="url(#clipId0)" fill="none" stroke="rgb(0,255,255)" >
<polyline points="746.879,404.574 746.879,383.002 " />
<polyline points="746.879,383.002 801.648,383.002 " />
<polyline points="747.25,409.758 754.149,409.758 " />
<polyline points="754.149,409.758 754.149,389.242 " />
<polyline points="754.149,389.242 801.648,389.242 " />
<polyline points="894.186,370.032 894.186,366.898 " />
<polyline points="894.186,366.898 894.186,362.91 " />
<polyline points="894.186,362.91 894.186,354.276 " />
<polyline points="894.186,354.276 1019.93,354.247 " />
<polyline points="896.598,370.032 896.598,362.691 " />
<polyline points="896.598,362.691 1027.79,362.691 " />
<polyline points="949.319,279.759 949.319,239.102 " />
<polyline points="949.319,239.102 1027.79,239.102 " />
<polyline points="957.287,279.759 957.287,251.495 " />
<polyline points="957.287,251.495 957.287,247.803 " />
<polyline points="957.287,247.803 1019.93,247.803 " />
<polyline points="1027.79,239.102 1027.79,318.005 " />
<polyline points="1019.93,247.803 1019.93,354.247 " />
<polyline points="1027.79,318.005 1149.25,318.005 " />
<polyline points="1027.79,324.878 1202.4,324.878 " />
<polyline points="1027.79,324.878 1027.79,362.691 " />
<polyline points="1202.4,294.055 1269.3,294.055 1269.3,351.629 1202.4,351.629 1202.4,294.055 " />
<path d="M1269.3,294.055  A69.1027,69.1027 0 0,0 1202.4,294.055 " />
<polyline points="1156.92,318.005 1156.92,252.646 " />
<polyline points="1149.25,318.005 1149.25,252.638 " />
<polyline points="1156.92,318.005 1202.4,318.005 " />
</g>
<g stroke-width="2.5" clip-path="url(#clipId0)" fill="none" stroke="rgb(255,0,255)" >
<polyline points="1148.47,275.856 1150.97,273.355 " />
<polyline points="1149.56,277.505 1153.71,273.355 " />
<polyline points="1152.31,277.505 1156.46,273.355 " />
<polyline points="1155.05,277.505 1159.2,273.355 " />
<polyline points="1157.8,277.505 1161.95,273.355 " />
<polyline points="1163.39,271.915 1164.68,270.626 " />
<polyline points="1160.54,277.505 1166.31,271.74 " />
<polyline points="1163.29,277.505 1166.31,274.485 " />
<polyline points="1163.69,279.847 1166.31,277.23 " />
<polyline points="1148.47,273.568 1148.68,273.355 " />
<polyline points="1148.47,276.313 1151.42,273.355 " />
<polyline points="1150.02,277.505 1154.17,273.355 " />
<polyline points="1152.77,277.505 1156.92,273.355 " />
<polyline points="1155.51,277.505 1159.66,273.355 " />
<polyline points="1158.26,277.505 1162.41,273.355 " />
<polyline points="1163.39,272.372 1165.13,270.626 " />
<polyline points="1161,277.505 1166.31,272.197 " />
<polyline points="1163.39,277.863 1166.31,274.943 " />
<polyline points="1164.15,279.847 1166.31,277.688 " />
<polyline points="1148.47,274.026 1149.14,273.355 " />
<polyline points="1148.47,276.771 1151.88,273.355 " />
<polyline points="1150.48,277.505 1154.63,273.355 " />
<polyline points="1153.22,277.505 1157.37,273.355 " />
<polyline points="1155.97,277.505 1160.12,273.355 " />
<polyline points="1158.71,277.505 1162.86,273.355 " />
<polyline points="1163.39,272.83 1165.59,270.626 " />
<polyline points="1161.46,277.505 1166.31,272.655 " />
<polyline points="1163.39,278.32 1166.31,275.4 " />
<polyline points="1164.61,279.847 1166.31,278.146 " />
<polyline points="1148.47,274.483 1149.59,273.355 " />
<polyline points="1148.47,277.228 1152.34,273.355 " />
<polyline points="1150.94,277.505 1155.08,273.355 " />
<polyline points="1153.68,277.505 1157.83,273.355 " />
<polyline points="1156.43,277.505 1160.58,273.355 " />
<polyline points="1159.17,277.505 1163.32,273.355 " />
<polyline points="1163.39,273.287 1166.05,270.626 " />
<polyline points="1161.92,277.505 1166.31,273.113 " />
<polyline points="1163.39,278.778 1166.31,275.858 " />
<polyline points="1165.06,279.847 1166.31,278.603 " />
<polyline points="1163.39,277.505 1148.47,277.505 1148.47,273.355 1163.39,273.355 " />
<polyline points="1163.39,273.355 1163.39,270.626 1166.31,270.626 1166.31,279.847 1163.39,279.847 1163.39,277.505 " />
<polyline points="1178.19,325.712 1175.69,323.212 " />
<polyline points="1179.84,324.616 1175.69,320.467 " />
<polyline points="1179.84,321.871 1175.69,317.721 " />
<polyline points="1179.84,319.125 1175.69,314.976 " />
<polyline points="1179.84,316.38 1175.69,312.231 " />
<polyline points="1174.25,310.79 1172.96,309.502 " />
<polyline points="1179.84,313.635 1174.08,307.87 " />
<polyline points="1179.84,310.89 1176.82,307.87 " />
<polyline points="1182.19,310.487 1179.57,307.87 " />
<polyline points="1175.91,325.712 1175.69,325.5 " />
<polyline points="1178.65,325.712 1175.69,322.754 " />
<polyline points="1179.84,324.158 1175.69,320.009 " />
<polyline points="1179.84,321.413 1175.69,317.264 " />
<polyline points="1179.84,318.668 1175.69,314.518 " />
<polyline points="1179.84,315.923 1175.69,311.773 " />
<polyline points="1174.71,310.79 1172.96,309.044 " />
<polyline points="1179.84,313.177 1174.54,307.87 " />
<polyline points="1180.2,310.79 1177.28,307.87 " />
<polyline points="1182.19,310.029 1180.03,307.87 " />
<polyline points="1176.36,325.712 1175.69,325.042 " />
<polyline points="1179.11,325.712 1175.69,322.297 " />
<polyline points="1179.84,323.701 1175.69,319.551 " />
<polyline points="1179.84,320.956 1175.69,316.806 " />
<polyline points="1179.84,318.21 1175.69,314.061 " />
<polyline points="1179.84,315.465 1175.69,311.316 " />
<polyline points="1175.17,310.79 1172.96,308.587 " />
<polyline points="1179.84,312.72 1174.99,307.87 " />
<polyline points="1180.66,310.79 1177.74,307.87 " />
<polyline points="1182.19,309.572 1180.48,307.87 " />
<polyline points="1176.82,325.712 1175.69,324.584 " />
<polyline points="1179.57,325.712 1175.69,321.839 " />
<polyline points="1179.84,323.243 1175.69,319.094 " />
<polyline points="1179.84,320.498 1175.69,316.349 " />
<polyline points="1179.84,317.753 1175.69,313.603 " />
<polyline points="1179.84,315.008 1175.69,310.858 " />
<polyline points="1175.63,310.79 1172.96,308.129 " />
<polyline points="1179.84,312.262 1175.45,307.87 " />
<polyline points="1181.12,310.79 1178.2,307.87 " />
<polyline points="1182.19,309.114 1180.94,307.87 " />
<polyline points="1179.84,310.79 1179.84,325.712 1175.69,325.712 1175.69,310.79 " />
<polyline points="1175.69,310.79 1172.96,310.79 1172.96,307.87 1182.19,307.87 1182.19,310.79 1179.84,310.79 " />
<polyline points="979.232,364.517 976.732,362.017 " />
<polyline points="980.881,363.421 976.732,359.272 " />
<polyline points="980.881,360.676 976.732,356.526 " />
<polyline points="980.881,357.93 976.732,353.781 " />
<polyline points="980.881,355.185 976.732,351.036 " />
<polyline points="975.291,349.595 974.003,348.307 " />
<polyline points="980.881,352.44 975.116,346.675 " />
<polyline points="980.881,349.695 977.861,346.675 " />
<polyline points="983.224,349.292 980.607,346.675 " />
<polyline points="976.944,364.517 976.732,364.305 " />
<polyline points="979.69,364.517 976.732,361.559 " />
<polyline points="980.881,362.963 976.732,358.814 " />
<polyline points="980.881,360.218 976.732,356.069 " />
<polyline points="980.881,357.473 976.732,353.323 " />
<polyline points="980.881,354.728 976.732,350.578 " />
<polyline points="975.748,349.595 974.003,347.849 " />
<polyline points="980.881,351.982 975.574,346.675 " />
<polyline points="981.239,349.595 978.319,346.675 " />
<polyline points="983.224,348.834 981.064,346.675 " />
<polyline points="977.402,364.517 976.732,363.847 " />
<polyline points="980.147,364.517 976.732,361.102 " />
<polyline points="980.881,362.506 976.732,358.356 " />
<polyline points="980.881,359.761 976.732,355.611 " />
<polyline points="980.881,357.015 976.732,352.866 " />
<polyline points="980.881,354.27 976.732,350.121 " />
<polyline points="976.206,349.595 974.003,347.392 " />
<polyline points="980.881,351.525 976.031,346.675 " />
<polyline points="981.696,349.595 978.776,346.675 " />
<polyline points="983.224,348.377 981.522,346.675 " />
<polyline points="977.859,364.517 976.732,363.389 " />
<polyline points="980.605,364.517 976.732,360.644 " />
<polyline points="980.881,362.048 976.732,357.899 " />
<polyline points="980.881,359.303 976.732,355.154 " />
<polyline points="980.881,356.558 976.732,352.408 " />
<polyline points="980.881,353.813 976.732,349.663 " />
<polyline points="976.663,349.595 974.003,346.934 " />
<polyline points="980.881,351.067 976.489,346.675 " />
<polyline points="982.154,349.595 979.234,346.675 " />
<polyline points="983.224,347.919 981.979,346.675 " />
<polyline points="980.881,349.595 980.881,364.517 976.732,364.517 976.732,349.595 " />
<polyline points="976.732,349.595 974.003,349.595 974.003,346.675 983.224,346.675 983.224,349.595 980.881,349.595 " />
<polyline points="988.482,249.802 985.981,247.302 " />
<polyline points="990.131,248.706 985.981,244.557 " />
<polyline points="990.131,245.961 985.981,241.811 " />
<polyline points="990.131,243.216 985.981,239.066 " />
<polyline points="990.131,240.47 985.981,236.321 " />
<polyline points="984.541,234.88 983.252,233.592 " />
<polyline points="990.131,237.725 984.366,231.96 " />
<polyline points="990.131,234.98 987.111,231.96 " />
<polyline points="992.473,234.577 989.856,231.96 " />
<polyline points="986.194,249.802 985.981,249.59 " />
<polyline points="988.939,249.802 985.981,246.844 " />
<polyline points="990.131,248.249 985.981,244.099 " />
<polyline points="990.131,245.503 985.981,241.354 " />
<polyline points="990.131,242.758 985.981,238.609 " />
<polyline points="990.131,240.013 985.981,235.863 " />
<polyline points="984.998,234.88 983.252,233.134 " />
<polyline points="990.131,237.267 984.823,231.96 " />
<polyline points="990.489,234.88 987.569,231.96 " />
<polyline points="992.473,234.12 990.314,231.96 " />
<polyline points="986.652,249.802 985.981,249.132 " />
<polyline points="989.397,249.802 985.981,246.387 " />
<polyline points="990.131,247.791 985.981,243.642 " />
<polyline points="990.131,245.046 985.981,240.896 " />
<polyline points="990.131,242.3 985.981,238.151 " />
<polyline points="990.131,239.555 985.981,235.406 " />
<polyline points="985.456,234.88 983.252,232.677 " />
<polyline points="990.131,236.81 985.281,231.96 " />
<polyline points="990.946,234.88 988.026,231.96 " />
<polyline points="992.473,233.662 990.771,231.96 " />
<polyline points="987.109,249.802 985.981,248.675 " />
<polyline points="989.854,249.802 985.981,245.929 " />
<polyline points="990.131,247.333 985.981,243.184 " />
<polyline points="990.131,244.588 985.981,240.439 " />
<polyline points="990.131,241.843 985.981,237.693 " />
<polyline points="990.131,239.098 985.981,234.948 " />
<polyline points="985.913,234.88 983.252,232.219 " />
<polyline points="990.131,236.352 985.738,231.96 " />
<polyline points="991.404,234.88 988.484,231.96 " />
<polyline points="992.473,233.204 991.229,231.96 " />
<polyline points="990.131,234.88 990.131,249.802 985.981,249.802 985.981,234.88 " />
<polyline points="985.981,234.88 983.252,234.88 983.252,231.96 992.473,231.96 992.473,234.88 990.131,234.88 " />
<polyline points="720.043,313.751 717.542,311.251 " />
<polyline points="721.692,312.655 717.542,308.506 " />
<polyline points="721.692,309.91 717.542,305.76 " />
<polyline points="721.692,307.165 717.542,303.015 " />
<polyline points="721.692,304.419 717.542,300.27 " />
<polyline points="716.102,298.829 714.814,297.541 " />
<polyline points="721.692,301.674 715.927,295.909 " />
<polyline points="721.692,298.929 718.672,295.909 " />
<polyline points="724.035,298.526 721.418,295.909 " />
<polyline points="717.755,313.751 717.542,313.539 " />
<polyline points="720.5,313.751 717.542,310.793 " />
<polyline points="721.692,312.198 717.542,308.048 " />
<polyline points="721.692,309.452 717.542,305.303 " />
<polyline points="721.692,306.707 717.542,302.558 " />
<polyline points="721.692,303.962 717.542,299.812 " />
<polyline points="716.559,298.829 714.814,297.083 " />
<polyline points="721.692,301.216 716.385,295.909 " />
<polyline points="722.05,298.829 719.13,295.909 " />
<polyline points="724.035,298.069 721.875,295.909 " />
<polyline points="718.213,313.751 717.542,313.081 " />
<polyline points="720.958,313.751 717.542,310.336 " />
<polyline points="721.692,311.74 717.542,307.591 " />
<polyline points="721.692,308.995 717.542,304.845 " />
<polyline points="721.692,306.249 717.542,302.1 " />
<polyline points="721.692,303.504 717.542,299.355 " />
<polyline points="717.017,298.829 714.814,296.626 " />
<polyline points="721.692,300.759 716.842,295.909 " />
<polyline points="722.507,298.829 719.587,295.909 " />
<polyline points="724.035,297.611 722.333,295.909 " />
<polyline points="718.67,313.751 717.542,312.624 " />
<polyline points="721.416,313.751 717.542,309.878 " />
<polyline points="721.692,311.282 717.542,307.133 " />
<polyline points="721.692,308.537 717.542,304.388 " />
<polyline points="721.692,305.792 717.542,301.642 " />
<polyline points="721.692,303.047 717.542,298.897 " />
<polyline points="717.474,298.829 714.814,296.168 " />
<polyline points="721.692,300.301 717.3,295.909 " />
<polyline points="722.965,298.829 720.045,295.909 " />
<polyline points="724.035,297.153 722.79,295.909 " />
<polyline points="721.692,298.829 721.692,313.751 717.542,313.751 717.542,298.829 " />
<polyline points="717.542,298.829 714.814,298.829 714.814,295.909 724.035,295.909 724.035,298.829 721.692,298.829 " />
<polyline points="720.043,411.263 717.542,408.763 " />
<polyline points="721.692,410.167 717.542,406.018 " />
<polyline points="721.692,407.422 717.542,403.272 " />
<polyline points="721.692,404.677 717.542,400.527 " />
<polyline points="721.692,401.931 717.542,397.782 " />
<polyline points="716.102,396.341 714.814,395.053 " />
<polyline points="721.692,399.186 715.927,393.421 " />
<polyline points="721.692,396.441 718.672,393.421 " />
<polyline points="724.035,396.038 721.418,393.421 " />
<polyline points="717.755,411.263 717.542,411.051 " />
<polyline points="720.5,411.263 717.542,408.305 " />
<polyline points="721.692,409.71 717.542,405.56 " />
<polyline points="721.692,406.964 717.542,402.815 " />
<polyline points="721.692,404.219 717.542,400.07 " />
<polyline points="721.692,401.474 717.542,397.324 " />
<polyline points="716.559,396.341 714.814,394.595 " />
<polyline points="721.692,398.728 716.385,393.421 " />
<polyline points="722.05,396.341 719.13,393.421 " />
<polyline points="724.035,395.581 721.875,393.421 " />
<polyline points="718.213,411.263 717.542,410.593 " />
<polyline points="720.958,411.263 717.542,407.848 " />
<polyline points="721.692,409.252 717.542,405.103 " />
<polyline points="721.692,406.507 717.542,402.357 " />
<polyline points="721.692,403.761 717.542,399.612 " />
<polyline points="721.692,401.016 717.542,396.867 " />
<polyline points="717.017,396.341 714.814,394.138 " />
<polyline points="721.692,398.271 716.842,393.421 " />
<polyline points="722.507,396.341 719.587,393.421 " />
<polyline points="724.035,395.123 722.333,393.421 " />
<polyline points="718.67,411.263 717.542,410.136 " />
<polyline points="721.416,411.263 717.542,407.39 " />
<polyline points="721.692,408.794 717.542,404.645 " />
<polyline points="721.692,406.049 717.542,401.9 " />
<polyline points="721.692,403.304 717.542,399.154 " />
<polyline points="721.692,400.559 717.542,396.409 " />
<polyline points="717.474,396.341 714.814,393.68 " />
<polyline points="721.692,397.813 717.3,393.421 " />
<polyline points="722.965,396.341 720.045,393.421 " />
<polyline points="724.035,394.665 722.79,393.421 " />
<polyline points="721.692,396.341 721.692,411.263 717.542,411.263 717.542,396.341 " />
<polyline points="717.542,396.341 714.814,396.341 714.814,393.421 724.035,393.421 724.035,396.341 721.692,396.341 " />
<polyline points="751.067,646.722 748.566,644.221 " />
<polyline points="752.716,645.625 748.566,641.476 " />
<polyline points="752.716,642.88 748.566,638.731 " />
<polyline points="752.716,640.135 748.566,635.985 " />
<polyline points="752.716,637.389 748.566,633.24 " />
<polyline points="747.125,631.799 745.837,630.511 " />
<polyline points="752.716,634.644 746.951,628.879 " />
<polyline points="752.716,631.899 749.696,628.879 " />
<polyline points="755.058,631.496 752.441,628.879 " />
<polyline points="748.779,646.722 748.566,646.509 " />
<polyline points="751.524,646.722 748.566,643.764 " />
<polyline points="752.716,645.168 748.566,641.018 " />
<polyline points="752.716,642.422 748.566,638.273 " />
<polyline points="752.716,639.677 748.566,635.528 " />
<polyline points="752.716,636.932 748.566,632.782 " />
<polyline points="747.583,631.799 745.837,630.054 " />
<polyline points="752.716,634.187 747.408,628.879 " />
<polyline points="753.073,631.799 750.153,628.879 " />
<polyline points="755.058,631.039 752.899,628.879 " />
<polyline points="749.236,646.722 748.566,646.051 " />
<polyline points="751.982,646.722 748.566,643.306 " />
<polyline points="752.716,644.71 748.566,640.561 " />
<polyline points="752.716,641.965 748.566,637.815 " />
<polyline points="752.716,639.22 748.566,635.07 " />
<polyline points="752.716,636.474 748.566,632.325 " />
<polyline points="748.04,631.799 745.837,629.596 " />
<polyline points="752.716,633.729 747.866,628.879 " />
<polyline points="753.531,631.799 750.611,628.879 " />
<polyline points="755.058,630.581 753.356,628.879 " />
<polyline points="749.694,646.722 748.566,645.594 " />
<polyline points="752.439,646.722 748.566,642.848 " />
<polyline points="752.716,644.253 748.566,640.103 " />
<polyline points="752.716,641.507 748.566,637.358 " />
<polyline points="752.716,638.762 748.566,634.613 " />
<polyline points="752.716,636.017 748.566,631.867 " />
<polyline points="748.498,631.799 745.837,629.138 " />
<polyline points="752.716,633.272 748.323,628.879 " />
<polyline points="753.988,631.799 751.068,628.879 " />
<polyline points="755.058,630.124 753.814,628.879 " />
<polyline points="752.716,631.799 752.716,646.722 748.566,646.722 748.566,631.799 " />
<polyline points="748.566,631.799 745.837,631.799 745.837,628.879 755.058,628.879 755.058,631.799 752.716,631.799 " />
<polyline points="752.234,740.279 749.733,737.778 " />
<polyline points="753.883,739.182 749.733,735.033 " />
<polyline points="753.883,736.437 749.733,732.288 " />
<polyline points="753.883,733.692 749.733,729.542 " />
<polyline points="753.883,730.946 749.733,726.797 " />
<polyline points="748.292,725.356 747.004,724.068 " />
<polyline points="753.883,728.201 748.118,722.436 " />
<polyline points="753.883,725.456 750.863,722.436 " />
<polyline points="756.225,725.053 753.608,722.436 " />
<polyline points="749.946,740.279 749.733,740.066 " />
<polyline points="752.691,740.279 749.733,737.321 " />
<polyline points="753.883,738.725 749.733,734.575 " />
<polyline points="753.883,735.979 749.733,731.83 " />
<polyline points="753.883,733.234 749.733,729.085 " />
<polyline points="753.883,730.489 749.733,726.339 " />
<polyline points="748.75,725.356 747.004,723.611 " />
<polyline points="753.883,727.744 748.575,722.436 " />
<polyline points="754.24,725.356 751.32,722.436 " />
<polyline points="756.225,724.596 754.066,722.436 " />
<polyline points="750.403,740.279 749.733,739.608 " />
<polyline points="753.149,740.279 749.733,736.863 " />
<polyline points="753.883,738.267 749.733,734.118 " />
<polyline points="753.883,735.522 749.733,731.372 " />
<polyline points="753.883,732.777 749.733,728.627 " />
<polyline points="753.883,730.031 749.733,725.882 " />
<polyline points="749.207,725.356 747.004,723.153 " />
<polyline points="753.883,727.286 749.033,722.436 " />
<polyline points="754.698,725.356 751.778,722.436 " />
<polyline points="756.225,724.138 754.523,722.436 " />
<polyline points="750.861,740.279 749.733,739.151 " />
<polyline points="753.606,740.279 749.733,736.405 " />
<polyline points="753.883,737.81 749.733,733.66 " />
<polyline points="753.883,735.064 749.733,730.915 " />
<polyline points="753.883,732.319 749.733,728.17 " />
<polyline points="753.883,729.574 749.733,725.424 " />
<polyline points="749.665,725.356 747.004,722.695 " />
<polyline points="753.883,726.829 749.49,722.436 " />
<polyline points="755.156,725.356 752.236,722.436 " />
<polyline points="756.225,723.681 754.981,722.436 " />
<polyline points="753.883,725.356 753.883,740.279 749.733,740.279 749.733,725.356 " />
<polyline points="749.733,725.356 747.004,725.356 747.004,722.436 756.225,722.436 756.225,725.356 753.883,725.356 " />
</g>
<g stroke-width="2.5" clip-path="url(#clipId0)" fill="rgb(255,127,0)" stroke="none" >
<text transform="matrix(20.3801 0 -0 20.3801 843.027 317.487)" font-family="SimSun,'sans-serif'" font-size="1.43" >&#25277;&#25918;&#27893;</text>
<text transform="matrix(12.7375 0 -0 12.7375 824.679 392.095)" font-family="SimSun,'sans-serif'" font-size="1.43" >&#25277;&#25918;&#27893;</text>
</g>
</svg>
