<?xml version="1.0" standalone="no"?><!DOCTYPE svg PUBLIC "-//W3C//DTD SVG 1.1//EN" "http://www.w3.org/Graphics/SVG/1.1/DTD/svg11.dtd"><svg t="1520927669866" class="icon" style="" viewBox="0 0 1024 1024" version="1.1" xmlns="http://www.w3.org/2000/svg" p-id="1985" xmlns:xlink="http://www.w3.org/1999/xlink" width="128" height="128"><defs><style type="text/css"></style></defs><path d="M511.990608 1024C225.275867 1024-7.154306 787.094147 0.169533 498.751887 7.222119 220.615532 238.262119-2.354682 516.500194 0.018784a508.294782 508.294782 0 0 1 277.186968 84.359777 16.512545 16.512545 0 0 1 4.340053 23.327784A16.478638 16.478638 0 0 1 775.445378 111.910771a479.033332 479.033332 0 0 0-742.555915 400.098621c0 264.098996 214.866522 478.965518 478.965518 478.965518s479.101145-214.866522 479.101145-478.965518A473.438732 473.438732 0 0 0 945.995891 309.315362a16.580358 16.580358 0 0 1 7.425559-21.801984 16.546451 16.546451 0 0 1 22.446211 7.662906A506.192569 506.192569 0 0 1 1023.981216 512.009392c0 282.306874-229.683734 511.990608-511.990608 511.990608z" p-id="1986" fill="#d81e06"></path><path d="M927.00816 223.361972m-18.648664 0a18.648665 18.648665 0 1 0 37.297329 0 18.648665 18.648665 0 1 0-37.297329 0Z" p-id="1987" fill="#d81e06"></path><path d="M511.990608 186.50543a325.503963 325.503963 0 1 0 325.503962 325.503962 325.503963 325.503963 0 0 0-325.503962-325.503962z m-81.036924 93.107696a127.862025 127.862025 0 0 1 67.169099-27.735651 129.489545 129.489545 0 1 1-67.169099 27.735651z m305.838098 439.023469c-0.678133 12.308119-7.764626 20.988224-18.309598 27.12533a102.432028 102.432028 0 0 1-34.788236 11.528266c-29.05801 5.187719-58.455087 5.425066-87.818256 5.628506-28.24425 0.237347-56.454594 0-84.766657 0-30.17693 0-60.35386 0.271253-90.462977 0-19.157264-0.237347-38.280622-0.949387-57.336166-2.305653a158.378022 158.378022 0 0 1-50.554835-10.578879 42.417235 42.417235 0 0 1-21.768077-17.902718 35.737623 35.737623 0 0 1-4.0688-16.682078 164.549034 164.549034 0 0 1 20.886505-89.61531 170.516607 170.516607 0 0 1 90.530789-76.629058 176.78934 176.78934 0 0 1 63.439366-11.121385c33.499783 0 66.999566-0.169533 100.499349 0 44.417728 0.169533 83.749457 14.105172 117.079706 42.925835a162.751981 162.751981 0 0 1 55.200047 96.261015 176.009486 176.009486 0 0 1 2.23784 41.366129z" p-id="1988" fill="#d81e06"></path></svg>